<?xml version="1.0" standalone="no"?>
<!DOCTYPE svg PUBLIC "-//W3C//DTD SVG 1.1//EN" "http://www.w3.org/Graphics/SVG/1.1/DTD/svg11.dtd" >
<svg xmlns="http://www.w3.org/2000/svg">
<metadata></metadata>
<defs>
<font id="quirky_notsregular" horiz-adv-x="999" >
<font-face units-per-em="2048" ascent="1536" descent="-512" />
<missing-glyph horiz-adv-x="430" />
<glyph horiz-adv-x="0" />
<glyph horiz-adv-x="682" />
<glyph horiz-adv-x="0" />
<glyph horiz-adv-x="0" />
<glyph unicode="&#xd;" horiz-adv-x="563" />
<glyph unicode=" "  horiz-adv-x="430" />
<glyph unicode="&#x09;" horiz-adv-x="430" />
<glyph unicode="&#xa0;" horiz-adv-x="430" />
<glyph unicode="!" horiz-adv-x="471" d="M130 271.5q-7 17.5 11 52.5q18 32 24.5 45t13 44.5t5.5 75.5q0 16 -7.5 165t-2.5 272q1 26 1 89t1 115q1 35 7 75t19 85t38 74t59 29q30 1 41.5 -11.5t2 -30t-35.5 -28.5q-17 -8 -30 -28t-21 -55.5t-13 -66t-7.5 -83t-3 -81.5t-1.5 -85q-1 -96 1.5 -160t7.5 -141.5 t8 -137.5q2 -53 -4.5 -95.5t-17.5 -66.5t-25.5 -40.5t-25.5 -22t-19 -6.5q-19 0 -26 17.5zM135 -14q-23 30 6 86q12 25 33.5 41t42.5 6q25 -11 28 -42t-22 -67q-27 -36 -47 -42t-41 18z" />
<glyph unicode="&#x22;" horiz-adv-x="577" d="M109 1143q-14 20 0 63q19 53 26 119q1 4 1 34.5t3 47.5q5 33 29 33q26 0 34.5 -28.5t2.5 -59.5q-5 -31 -19 -105q-1 -4 -3 -19t-3 -20.5t-3.5 -18t-5.5 -18.5l-7 -14t-10 -14q-27 -27 -45 0zM375 1143q-14 20 0 63q19 53 26 119q0 4 0.5 34.5t4.5 47.5q5 33 28 33 q26 0 34.5 -28.5t2.5 -59.5q-8 -55 -18 -105q-1 -3 -2.5 -14.5t-2 -15.5t-2.5 -13.5t-3.5 -14.5t-3.5 -13t-5 -13t-6.5 -10.5t-7.5 -9.5q-27 -27 -45 0z" />
<glyph unicode="#" horiz-adv-x="1093" d="M22 427.5q4 15.5 19 23.5q39 21 139 36q9 1 107 17q3 25 17 114t20 144q-26 -4 -35 -6q-24 -4 -101.5 -19t-117.5 -22q-27 -5 -39.5 6t-8.5 26t19 23q41 23 139 37q115 17 148 20q0 3 1 8.5t1 8.5q5 72 13 130.5t15.5 103.5t10.5 67q1 9 5 45.5t7 58.5t8 54.5t11 57.5 t14 42q18 42 38 43q26 2 24 -66q0 -6 -1 -14q-4 -46 -9.5 -88.5t-17.5 -123t-20 -140.5q-12 -93 -29 -178q3 1 8.5 1t8.5 1q6 1 60 7t151 17q30 2 71 10q16 159 33 273q3 18 10.5 76.5t16 101.5t20.5 70q13 30 31.5 44t31.5 -2t9 -65q-4 -56 -27.5 -178.5t-31.5 -177.5 q-4 -31 -11.5 -74.5t-9.5 -58.5q21 3 62 10.5t67 11.5t64.5 7t54.5 -3q32 -5 47.5 -22.5t-0.5 -35.5t-64 -24q-48 -7 -125.5 -9t-117.5 -5q-3 -24 -6 -51q-13 -102 -19 -193v-10q7 0 31 4q24 3 84.5 14t91 14t78.5 -1q32 -5 47.5 -22.5t-0.5 -35.5t-64 -24 q-50 -8 -135.5 -11t-140.5 -8q-3 -25 -14.5 -95.5t-14.5 -102.5q-3 -27 -9.5 -99t-12.5 -113t-15 -69q-16 -42 -35 -40.5t-28 28.5q-7 25 -4 65t18 136q10 55 13 79t7 65t13 108q0 12 4 28q-53 -8 -100 -10q-105 -9 -195 -23q-18 -128 -18 -155q-6 -222 -25 -281 q-16 -42 -41.5 -40.5t-34.5 28.5q-7 28 -4 65.5t19 135.5q9 54 12 77.5t7 62t12 97.5q-195 -37 -209 -39q-27 -5 -39.5 6t-8.5 26.5zM360 512q4 1 22.5 2.5t33.5 3.5q4 0 59 7t152 18q6 0 15.5 1t14.5 1q4 22 10.5 59.5t12 73t10.5 90.5q0 6 1 18.5t1 18.5l-51 -7 q-51 -8 -94 -12q-12 -1 -158 -16v-10q-19 -151 -22 -193z" />
<glyph unicode="$" horiz-adv-x="872" d="M125 172q-6 69 37 119q27 35 65 35q19 0 29 -14.5t-8 -37.5q-26 -28 -37.5 -49t-11.5 -51q0 -86 45 -135q23 -26 35.5 -37.5t41.5 -24.5t68 -18q1 9 2 29t2 30q5 99 5 163t-2.5 131.5t-2.5 127.5q0 152 -8 277q-51 17 -77.5 34.5t-63.5 57.5q-54 57 -80.5 143.5 t-26.5 141.5q0 81 29 163.5t84 133.5q66 60 127 77q3 27 8 41q7 32 26 34q21 2 31 -41q3 -12 4 -27q5 -1 29 -7q77 -20 127.5 -82t50.5 -137q0 -36 -24 -45q-22 -8 -33 16q-3 8 -4 19q-2 33 -8 54.5t-26.5 48t-57.5 49.5q-15 10 -49 18q3 -79 -5 -311q-2 -82 -2 -109.5 t2 -105.5t3 -111q82 -22 149 -72q8 -6 14 -11t12.5 -12t10 -10t9.5 -12t7.5 -11.5t9.5 -14t9 -13.5q37 -55 58.5 -136.5t21.5 -153.5q0 -35 -1 -57t-1 -23q-4 -81 -36 -143.5t-94 -120.5q-68 -65 -151 -82q-4 -46 -6 -60q-6 -29 -18 -39.5t-23.5 -4t-18.5 21.5 q-12 24 -12 76q-40 3 -67 12q-44 14 -78.5 37t-55 48.5t-34.5 58.5t-20 61t-9 61zM209 1094q2 -82 29 -144q21 -47 51.5 -83t58.5 -50q18 -12 33 -18q0 6 -1 20t-1 21q-10 166 -4 381v178q-42 -18 -90 -66q-76 -76 -76 -239zM449 676q0 -72 8 -236t8 -268q0 -28 1 -100.5 t1 -108.5q53 13 113 76q47 51 70.5 97t29.5 112q-3 119 -14 178q-11 60 -60 145q-24 41 -63.5 73t-66.5 44l-27 12v-24z" />
<glyph unicode="%" horiz-adv-x="847" d="M42.5 16.5q-5.5 18.5 12 30t45.5 6.5q45 -8 94.5 56.5t92.5 172.5t78.5 214.5t66.5 210t43 131.5l61 152.5t72 174.5q35 80 70.5 126t56 56t33.5 5q17 -7 17.5 -24.5t-23.5 -41.5q-33 -25 -45.5 -36.5t-32 -41.5t-41.5 -80q-23 -54 -52.5 -147.5t-47.5 -134.5l-158 -486 q-9 -21 -38.5 -77t-53.5 -105q-15 -32 -36 -66t-51 -70.5t-64.5 -53t-65.5 -2.5q-28 12 -33.5 30.5zM80 1180q7 30 16.5 58t27.5 63.5t46.5 57t62.5 21.5q45 0 86.5 -36t63.5 -107q13 -39 14 -76t-10 -68t-39.5 -50.5t-71.5 -20.5q-38 -1 -48 24q-9 23 15 33q9 4 21 4 q41 0 60.5 14t19.5 50q0 68 -26.5 120t-77.5 56q-59 0 -93 -94q-48 -129 3 -197q7 -9 15 -15.5t14.5 -10t17.5 -5t16.5 -1.5t19 0.5t19.5 0.5q34 0 45 -16t-12 -33q-26 -21 -83 -13t-87 40q-65 70 -35 201zM489 184q7 30 17 58.5t28 64t46.5 57t62.5 21.5q45 0 86.5 -36 t63.5 -107q13 -39 14 -76t-10 -68t-39.5 -50.5t-71.5 -20.5q-38 -1 -48 24q-9 23 15 33q9 4 21 4q41 0 60.5 14t19.5 50q0 68 -27 120t-78 56q-58 0 -92 -95q-48 -129 2 -196q8 -11 16.5 -18t21.5 -9.5t18.5 -3.5t24 -0.5t22.5 0.5q34 0 44.5 -16t-12.5 -33q-26 -21 -83 -13 t-87 40q-65 70 -35 200z" />
<glyph unicode="&#x26;" horiz-adv-x="1019" d="M83.5 231q1.5 72 25.5 134q19 46 57.5 107t85.5 112q33 39 88 90q-24 20 -111 102q-102 95 -112 223q-6 75 30 164q31 79 95 137q53 47 118.5 49t118.5 -38q44 -33 94 -105q21 -30 35.5 -79t14.5 -89q-2 -85 -34 -165t-93 -140q-9 -8 -32 -29.5t-34 -31.5q28 -25 88 -92 q43 -48 86 -117q50 -79 105 -223q7 21 19.5 62.5t19.5 62.5q29 89 50 133.5t56 76.5q27 25 53.5 36t41.5 8.5t22 -11.5q24 -33 -53 -78q-13 -8 -23.5 -16t-19 -18t-14 -17.5t-12 -21.5t-9.5 -21t-10.5 -26t-10.5 -27q-12 -27 -37 -109t-39 -118q16 -35 41 -78 q28 -40 50.5 -54t52.5 -14q31 0 48.5 21.5t18 50t-5.5 55.5q-14 42 9 53q21 10 41 -16q7 -10 12 -24q26 -76 -11 -138.5t-116 -62.5q-94 0 -154 100q-6 9 -20 37q-106 -155 -301 -162q-36 0 -54 2q-113 9 -184 80q-57 57 -74 117q-14 36 -12.5 108zM150 279q-18 -88 26 -170 q21 -39 69 -71.5t101 -39.5q54 -7 112 3.5t103 35.5q47 24 92 88q9 12 21 35q-50 132 -51 133q-53 116 -117 203q-82 109 -117 139q-64 -57 -84 -80q-63 -68 -102.5 -141.5t-52.5 -134.5zM180 1012q-3 -62 30.5 -114t96.5 -110q69 -65 78 -75q2 2 27 22q50 43 83 88t45.5 84 t17 78.5t-0.5 71.5q-7 79 -64.5 153.5t-134.5 73.5q-49 0 -90 -45q-83 -91 -88 -227z" />
<glyph unicode="'" horiz-adv-x="434" d="M150 1143q-14 20 0 63q19 53 26 119q1 6 1.5 36t2.5 46q8 33 29 33q26 0 34.5 -28.5t2.5 -59.5q-5 -31 -19 -105q-1 -4 -3 -19t-3 -20.5t-3.5 -18t-5.5 -18.5l-7 -14t-10 -14q-27 -27 -45 0z" />
<glyph unicode="(" horiz-adv-x="526" d="M102 549q0 14 2 57t2 60q0 97 15 188q61 387 262 569q28 25 49 4q20 -20 5 -49q-5 -8 -13 -16q-92 -90 -154 -217q-110 -257 -110 -547q0 -80 18 -172q33 -172 109 -291q53 -82 147 -149q52 -36 39 -69q-10 -22 -38 -19q-12 3 -23 10q-96 71 -169.5 182t-103.5 240 q-3 17 -12 54.5t-13 58t-8 51t-4 55.5z" />
<glyph unicode=")" horiz-adv-x="526" d="M59 -47q10 17 33 33q96 69 148 149q74 117 108 291q19 97 19 172q0 288 -111 547q-62 127 -154 217q-28 26 -15 55q11 24 36 18q10 -3 20 -12q202 -183 263 -569q14 -85 14 -188q0 -17 2 -60t2 -57q0 -25 -4 -55.5t-8 -51t-13 -58t-12 -54.5q-30 -129 -103 -240 t-169 -182q-27 -20 -51 -3t-5 48z" />
<glyph unicode="*" horiz-adv-x="583" d="M63 1057q-14 35 66 76q7 4 86 45q2 1 11.5 6.5t15.5 7.5q-2 1 -12 6.5t-15 9.5q-79 41 -86 45q-80 41 -66 76q13 25 50 6q14 -7 37.5 -25t27.5 -20q3 -2 37.5 -26.5t50.5 -34.5q1 6 1 18.5t1 18.5q0 8 -0.5 25t-0.5 34.5t1 36.5q0 90 35 94q29 0 29 -41q1 -17 -3.5 -46 t-4.5 -34q-2 -19 -7 -56.5t-6 -43.5l19 12q5 4 48 36t66 44q31 18 41 19q13 4 26.5 -6.5t6.5 -28.5q-7 -16 -51 -39q-43 -21 -90 -47q-49 -25 -58 -33q6 -4 58 -31q47 -26 90 -47q44 -23 51 -39q7 -18 -6.5 -28.5t-26.5 -6.5q-10 1 -41 19q-17 9 -36 22.5t-41.5 31 t-36.5 26.5q-12 5 -27 16v-55v-103q0 -51 -8 -63q-16 -13 -29.5 -7t-17.5 19q-4 14 -4 45q0 26 7.5 74.5t8.5 64.5q0 15 2 23q-16 -9 -47 -31t-37 -26q-4 -2 -27.5 -20t-37.5 -25q-37 -19 -50 6z" />
<glyph unicode="+" horiz-adv-x="1007" d="M104 617.5q-2 16.5 13 34t47 22.5q53 8 190 8h101q0 13 -1 31t-1 24q-4 90 -2 158q0 1 1 16.5t1.5 25.5t3 27.5t6 29t9 24t14 18.5t18.5 6q41 -4 28 -110q-7 -51 -16 -246q6 1 21 2t22 2q12 1 52.5 3.5t79 4.5t63.5 2q151 0 149 -51q0 -46 -106 -31t-271 11h-12v-94 q-2 -48 2 -125q5 -56 2.5 -96.5t-18.5 -61.5q-8 -11 -20 -12t-23.5 15t-14.5 48q-1 55 -1.5 65t3.5 60t5 59q3 81 6 138q-22 -1 -68 -7q-14 -2 -52 -4t-56 -4q-24 -3 -53 -9.5t-45.5 -10t-34 -3.5t-29.5 7q-11 7 -13 23.5z" />
<glyph unicode="," horiz-adv-x="372" d="M85.5 -138.5q9.5 20.5 39.5 19.5q67 -3 84 74q10 22 5.5 56t-32.5 34q-13 0 -23.5 -7.5t-13.5 -17.5t1.5 -17t13.5 -7q22 0 26 -21q5 -22 -18 -30q-12 -4 -27 -2q-31 6 -40.5 37.5t3.5 66.5q10 26 35.5 41.5t50.5 15.5q28 0 47.5 -20t26.5 -47q12 -29 1.5 -77t-44.5 -89 q-23 -27 -51.5 -39.5t-48.5 -11t-29 9.5q-16 11 -6.5 31.5z" />
<glyph unicode="-" horiz-adv-x="694" d="M82 545q3 21 28.5 32t55.5 11h108q15 1 39.5 2t47 2t47.5 2q22 1 69 7.5t70 6.5q25 0 45 -8q6 -2 12 -9t8 -16.5t-10 -19.5t-61 -10h-185q-29 0 -81 -8.5t-72 -10.5q-80 -10 -82 -10q-39 0 -39 29z" />
<glyph unicode="." horiz-adv-x="307" d="M88.5 -57q-11.5 32 5.5 75q37 90 86 52q36 -26 17 -95q-7 -30 -25.5 -51.5t-42.5 -15.5q-29 3 -40.5 35z" />
<glyph unicode="/" horiz-adv-x="786" d="M22 16.5q-5 18.5 12.5 30t45.5 6.5q45 -8 94.5 56.5t92.5 172.5t78.5 214.5t66.5 210t43 131.5l61 152.5t72 174.5q35 80 70.5 126t56 56t33.5 5q17 -7 17 -24.5t-24 -41.5q-32 -24 -45 -36.5t-32 -42t-41 -79.5q-23 -54 -53 -147.5t-48 -134.5l-157 -486 q-9 -21 -39 -76.5t-54 -105.5q-15 -32 -36 -66t-51 -70.5t-64.5 -53t-65.5 -2.5q-28 12 -33 30.5z" />
<glyph unicode="0" horiz-adv-x="905" d="M102 375q0 151 51 315t136 283q30 41 62.5 64t61.5 26.5t51 -1t42 -15.5q18 -10 31 -19.5t27 -23.5l14 -13q28 -22 57 -71q45 -75 88 -183q27 -69 41.5 -110.5t27.5 -101t13 -111.5q0 -167 -72 -269q-22 -33 -37 -46t-49 -33q-53 -30 -119.5 -30t-132.5 27q-47 19 -44 49 q2 22 27 27q19 4 40 -6q69 -31 102 -33q92 -3 161 75t69 226q0 65 -29 172q-124 -50 -248 -124q-66 -37 -117 -78q-9 -7 -41.5 -26.5t-48.5 -31.5q-54 -38 -92 -69q18 -62 66 -129q37 -54 69 -71.5t94 -27.5q43 -6 56 -36q12 -26 -14 -37q-12 -5 -31 -4q-68 3 -154 71 q-59 46 -100 121q-25 48 -41.5 115t-16.5 129zM158 379q0 -44 2 -62q15 9 73 48t89 57q79 44 153 94q82 54 168 96q31 16 53 35q-3 9 -13 37.5t-15 42.5q-30 75 -76 148t-84 104q-26 20 -55.5 22.5t-55.5 -10.5t-48.5 -33.5t-41.5 -46.5q-27 -39 -47 -82t-28 -68t-19 -67 q-2 -8 -11.5 -41.5t-13.5 -47.5t-11 -46.5t-10 -56t-6 -57t-3 -66.5z" />
<glyph unicode="1" horiz-adv-x="829" d="M102 59q2 31 28 35t32 -28q7 -36 39 -61t71 -25q62 0 119 47q1 1 4.5 3.5t5.5 4.5q-34 78 -34 168q-3 152 -5 205q-3 74 -3.5 137t0.5 91t4 103t4 103q0 33 2 51q-1 5 -4.5 6.5t-11 -2.5t-15.5 -9t-23 -16q-3 -2 -17 -14t-27.5 -20.5t-24.5 -12.5q-49 -17 -49 21 q0 29 61 61q41 21 80 70q6 7 15.5 21.5t15.5 22.5t16.5 14.5t22.5 6.5h4q9 0 15.5 -6.5t9.5 -20.5t4 -29t0 -39.5t-2.5 -45t-3.5 -52.5t-3 -56q-2 -52 -5.5 -106.5t-4.5 -74t-2 -80.5t0 -126q0 -232 31 -326q19 19 49 39q50 31 106 31q44 -2 80.5 -24.5t40.5 -64.5 q3 -36 -27 -71t-69 -49q-37 -18 -92.5 -16t-89.5 34l-17 16l-6 -6q-66 -50 -152 -47q-64 2 -119.5 38.5t-52.5 98.5zM481 18q11 -10 15 -12q30 -18 77 -18q35 0 63 23t28 50q-4 18 -32.5 25.5t-70.5 -8.5q-29 -13 -80 -60z" />
<glyph unicode="2" horiz-adv-x="829" d="M102 61q4 42 40.5 64.5t80.5 24.5q57 0 107 -31q21 -14 55 -45q16 37 52.5 149t64.5 183q55 138 66 234.5t-5 195.5q-5 46 -28 94q-28 48 -81.5 63t-91.5 -6q-53 -24 -88 -80q-36 -55 -36 -121q0 -42 61 -73q21 -12 26 -29.5t-10.5 -25t-50.5 0.5q-12 3 -38 23.5 t-36 48.5q-20 57 -2.5 122t64.5 124q89 110 203 86q55 -12 96 -53q24 -27 45 -70q3 -7 8.5 -20.5t7.5 -18.5q23 -71 24 -148t-15 -151.5t-50 -175.5q-16 -48 -39 -110.5t-38 -112.5q-39 -123 -62 -172q1 -1 3 -2t3 -2q57 -47 119 -47q39 0 71.5 25t39.5 61q6 32 31.5 28 t27.5 -35q3 -62 -52.5 -98.5t-119.5 -38.5q-86 -3 -152 47q-1 1 -4 3t-4 3q-2 -3 -7 -8t-7 -8q-34 -32 -89.5 -34t-92.5 16q-40 15 -70 49.5t-27 70.5zM166 61q0 -27 27.5 -50t62.5 -23q48 0 78 18q9 4 14 12q-51 47 -80 60q-42 16 -71 8.5t-31 -25.5z" />
<glyph unicode="3" horiz-adv-x="798" d="M104 -143q5 32 33 40q25 7 33 -15q3 -7 2 -17q-5 -56 29 -108.5t104 -71.5q147 -41 232 63q52 63 73 124t21 159q0 12 0.5 35t0.5 34t-2.5 33.5t-8.5 50.5q-19 97 -64 181q-15 28 -41 47q-69 -66 -145 -50q-49 9 -62 54q-9 36 15 69t88 33q50 0 96 -22q42 86 33 221 q-3 30 -9 60.5t-17.5 65.5t-28 60.5t-39.5 46.5t-53 23.5t-68 -8.5q-42 -16 -62 -63.5t-24 -104.5q-2 -33 -26 -33q-22 0 -35 25q-5 11 -5 24q0 76 43.5 137.5t126.5 85.5q35 14 76.5 7t79.5 -44q12 -12 23 -28t21.5 -41t15.5 -37t16 -44.5t12 -35.5q10 -31 15.5 -92 t0.5 -100q-12 -94 -47 -156q23 -18 45 -51q31 -49 47.5 -90t30.5 -111q12 -58 15 -140t-3 -120q-9 -61 -31 -132.5t-49 -103.5q-62 -75 -132.5 -96t-162.5 -8q-123 19 -174.5 89t-38.5 155zM373 432q6 -25 36 -21t60 31q-55 27 -84 13q-15 -7 -12 -23z" />
<glyph unicode="4" horiz-adv-x="940" d="M102 459q3 252 70 428q10 24 27.5 32t27 -5.5t0.5 -43.5q-31 -93 -45 -161q-22 -116 -22 -236q3 -146 59 -252q64 -125 201 -125q86 0 170 41q0 51 -2 78q-12 -6 -33 -37q-8 -16 -19.5 -20t-21 4t-10.5 24q-1 17 14.5 38t36.5 36l31 21q0 20 -1 55t-1 51q0 36 1 63.5 t2.5 54.5t2.5 48q0 9 14 211q8 111 46 188.5t91 77.5q33 0 46 -13t2 -28.5t-39 -21.5q-58 -13 -84 -158q-6 -30 -9 -58t-5 -76t-5 -83q-4 -49 -4 -95t2 -89t2 -58v-53q40 3 70 -10q28 -15 28 -43q0 -50 -43 -97q-17 -19 -59 -51q1 -33 5 -88t5 -67q4 -213 64 -243 q25 -10 53 13q34 31 57 15q19 -13 7 -38q-1 -3 -3 -5q-15 -25 -41 -41.5t-53 -16.5q-36 0 -70.5 24.5t-45.5 71.5q-25 102 -25 173q0 7 -6 178q-72 -35 -176 -35q-91 0 -178 63q-51 38 -93 144.5t-41 214.5zM643 168q35 24 49 53q10 28 -20 29q-15 0 -27 -4q-2 -27 -2 -78z " />
<glyph unicode="5" horiz-adv-x="798" d="M104 -143q5 32 33 40q25 7 33 -15q3 -7 2 -17q-5 -56 29 -108.5t104 -71.5q147 -41 232 63q52 63 73 124t21 159q0 12 0.5 35t0.5 34t-2.5 33.5t-8.5 50.5q-17 90 -66 181q-16 32 -69 61.5t-97 26.5q-48 -3 -90.5 -18.5t-69.5 -29.5t-41 -14q-16 0 -30 17q-18 22 -6 129 q9 88 6 161q-2 53 4 95.5t16 66t23.5 39.5t23.5 21.5t19 7.5q3 1 58.5 3.5t107.5 16.5q42 11 72 25t44.5 24.5t40.5 32.5q19 17 34.5 19t23 -6t8.5 -19q3 -11 -6.5 -31t-41 -45t-77.5 -37q-23 -6 -35.5 -8.5t-27.5 -4t-27 -3.5q-117 -18 -156 -41q-17 -12 -24 -27 q-2 -2 -2 -4q-3 -3 -3 -6q-13 -37 -18 -119q-4 -50 -4 -131q0 -17 4.5 -52t5.5 -48q3 1 18.5 9t22.5 11.5t23 10.5t28 10.5t28.5 7.5t33 6t33.5 2q61 0 113 -32.5t81 -77.5q31 -49 47.5 -90t30.5 -111q12 -58 15 -140t-3 -120q-9 -61 -31 -132.5t-49 -103.5 q-62 -75 -132.5 -96t-162.5 -8q-123 19 -174.5 89t-38.5 155z" />
<glyph unicode="6" horiz-adv-x="894" d="M102 190q0 39 22 98.5t52 108.5q0 13 1 61t1.5 74.5t4.5 85t10 127.5q10 95 40 203q27 91 46 140t53 102q42 69 112.5 108.5t128.5 30.5q69 -11 122 -79t53 -156q0 -24 -16 -33t-32.5 1t-17.5 32q-3 73 -35 116q-22 29 -45.5 42.5t-60.5 13.5q-36 0 -80 -27t-68 -63 q-24 -37 -40 -67t-39 -87.5t-38.5 -138t-21.5 -181.5q-4 -52 -10 -219q104 131 223 133q156 2 238 -108q53 -71 73.5 -157.5t9.5 -172.5q-10 -73 -47.5 -141t-87.5 -115q-37 -35 -86.5 -49.5t-91 -10.5t-69.5 19q-49 27 -87.5 66t-56.5 67q-33 47 -53 140q-29 -26 -55 -23 q-26 0 -39 17t-13 42zM155 206q1 -21 21 -11l21 14q-18 76 -19 82q-26 -53 -23 -85zM238 379q-3 -66 4 -111q19 35 30 76q5 21 18 29t24.5 -1.5t11.5 -31.5q0 -34 -25 -70q-33 -45 -49 -73q14 -75 41 -123q29 -54 83.5 -102t112.5 -48q76 0 125.5 49t87.5 129q28 58 31 146 q2 33 -11 84.5t-36 95.5q-35 68 -103 100.5t-139 24.5q-105 -13 -206 -174z" />
<glyph unicode="7" horiz-adv-x="880" d="M104 911.5q8 28.5 29 46.5q34 31 76 40.5t158 17.5q202 17 305 6q44 -5 65.5 -12t34.5 -25q8 -11 8 -22q0 -7 -2 -11v-4q-3 -12 -36 -116t-42 -160q-18 -99 -57.5 -212.5t-48.5 -146.5q-26 -97 -56.5 -194.5t-43.5 -145.5q-34 -122 -23 -249q5 -48 -25 -59q-26 -9 -45 20 q-14 21 -14 55q0 66 29 180q4 15 20 85t39 143t70 202q6 16 19 52.5t18 49.5t15 42t14.5 44t12.5 42t13.5 49t12.5 51t14 61q28 137 28 163q-1 38 -33 50q-13 5 -34 9q10 3 26 7t50 10.5t56.5 2.5t22.5 -20q0 -7 -2 -11v-4q-15 -43 -65 -12q-70 39 -303 35q-27 0 -57.5 -2 t-77.5 -9t-77 -25.5t-30 -45.5q0 -13 17.5 -35t17.5 -39q-3 -13 -19 -18.5t-37.5 5t-35.5 38.5q-15 43 -7 71.5z" />
<glyph unicode="8" horiz-adv-x="823" d="M102.5 234q1.5 66 26.5 131q19 46 57.5 107t85.5 112q33 39 88 90q-16 13 -110 102q-103 96 -113 223q-5 73 31 164q26 72 88 131l6 6q53 47 119 49t119 -38q44 -33 94 -105q21 -30 35 -78.5t14 -89.5q-2 -85 -34 -165t-93 -140q-25 -23 -63 -61q5 -4 61.5 -55.5 t97.5 -90.5q49 -48 77 -98.5t34 -120.5q3 -39 -11 -84.5t-36 -77.5q-22 -33 -37 -46t-49 -33q-53 -30 -119.5 -30t-132.5 27q-47 19 -44 49q1 21 26 27q19 4 40 -6q64 -29 103 -33q87 -8 141 44t55 151q3 124 -135 235q-75 59 -116 103q-79 -74 -82 -78q-127 -139 -156 -276 q-20 -100 29 -164q42 -57 66.5 -73.5t80.5 -25.5q43 -6 56 -36q11 -26 -15 -37q-12 -5 -31 -4q-67 3 -153 71q-30 23 -46.5 48t-37.5 73q-18 37 -16.5 103zM201 1012q-3 -62 30.5 -114t96.5 -110q69 -65 78 -75q6 6 26 22q96 81 124.5 160t21.5 162q-7 79 -64.5 153.5 t-134.5 73.5q-49 0 -90 -45l-4 -4q-79 -91 -84 -223z" />
<glyph unicode="9" horiz-adv-x="892" d="M100 952q0 150 90.5 262.5t206.5 112.5q43 0 85 -18.5t72.5 -46.5t48 -48.5t28.5 -37.5q31 -51 51 -140q31 23 51 23q29 0 43.5 -16.5t14.5 -43.5q0 -39 -22 -98t-52 -108q0 -165 -17 -349q-12 -124 -50.5 -245t-88.5 -199q-39 -63 -101.5 -102t-119.5 -39q-73 0 -134 71 t-61 166q0 18 9 27.5t22 9.5t23.5 -9.5t11.5 -27.5q3 -80 39.5 -126t101.5 -46q36 0 80 27t68 63q25 38 40.5 67t38.5 86.5t38.5 138t21.5 181.5q0 4 8 218q-106 -132 -227 -132q-73 0 -130.5 26t-92 66t-57.5 92.5t-31.5 100t-8.5 94.5zM160 936q0 -118 74.5 -209.5 t187.5 -91.5q17 0 27 2q100 10 204 172v43q0 12 -1 32.5t-1 30.5q-14 -28 -26 -59q-21 -49 -42 -41q-16 6 -16 33q0 12 4 24.5t7.5 20.5t11.5 21.5t10 17.5q13 24 41 61q-10 55 -41 123q-28 54 -83.5 102t-113.5 48q-59 0 -107.5 -33.5t-77 -85t-43.5 -107t-15 -104.5z M696 981q13 -56 17 -84q24 55 24 84q0 16 -10 16q-15 0 -31 -16z" />
<glyph unicode=":" horiz-adv-x="389" d="M129.5 -57q-11.5 32 5.5 75q37 90 86 52q36 -26 17 -95q-7 -30 -25.5 -51.5t-42.5 -15.5q-29 3 -40.5 35zM135 857.5q-4 33.5 23 72.5q30 40 52 47t44 -19q27 -34 -6 -94q-14 -28 -36.5 -45t-45.5 -6q-27 11 -31 44.5z" />
<glyph unicode=";" horiz-adv-x="434" d="M126.5 -138.5q9.5 20.5 39.5 19.5q67 -3 84 74q10 22 5.5 56t-32.5 34q-13 0 -23.5 -7.5t-13.5 -17.5t1.5 -17t13.5 -7q22 0 26 -21q5 -22 -18 -30q-12 -4 -27 -2q-31 6 -40.5 37.5t3.5 66.5q10 26 35.5 41.5t50.5 15.5q27 0 47 -20t27 -47q12 -29 1.5 -77t-44.5 -89 q-23 -27 -51.5 -39.5t-48.5 -11t-29 9.5q-16 11 -6.5 31.5zM157 857.5q-4 33.5 23 72.5q30 40 52 47t44 -19q27 -34 -6 -94q-14 -28 -36.5 -45t-45.5 -6q-27 11 -31 44.5z" />
<glyph unicode="&#x3c;" horiz-adv-x="882" d="M154 465v10q0 8 2 12q5 25 35.5 63.5t78 87t54.5 56.5l78 90t110 131q15 19 36.5 44t30.5 36.5t19 28.5t12 33t0 37q-3 29 21 38.5t39 -26.5q15 -41 -10 -93.5t-109 -146.5q-30 -33 -70 -76t-72.5 -80t-76.5 -89q-22 -27 -48 -54.5t-37.5 -39.5t-19.5 -26t-8 -26 q0 -16 22.5 -41t69.5 -69.5t78 -79.5q38 -42 70 -74t75.5 -71t63.5 -58q50 -46 64.5 -79t5.5 -75q-8 -38 -36 -40q-23 -2 -31 21q-5 13 1 30q10 25 0 46t-43 52q-55 50 -158 158q-16 16 -83.5 80.5t-109.5 110.5t-52 73q0 1 -1 3t-1 3z" />
<glyph unicode="=" horiz-adv-x="1007" d="M104 617.5q-2 16.5 13 34t47 22.5q23 4 50.5 5.5t45.5 1.5t50 -0.5t44 -0.5q119 0 205 8q123 12 195 12q151 0 149 -51q0 -46 -106 -31q-118 16 -271 13q-80 -4 -139 -13q-14 -2 -52 -4t-56 -4q-24 -3 -53 -9.5t-45.5 -10t-34 -3.5t-29.5 7q-11 7 -13 23.5zM105 300 q-2 15 12.5 29.5t46.5 16.5q33 2 97 -1t93 -1q35 3 75 5.5t63 4.5q161 15 272 15q123 0 139 -37q5 -12 -4 -24.5t-36 -19.5t-66 -1q-62 9 -271 4q-37 -2 -68.5 -2h-45.5t-25 -2q-13 -2 -51.5 -4t-56.5 -4q-17 -2 -43 -6.5t-40.5 -6.5t-31.5 -2.5t-28 2.5t-19 10 q-10 9 -12 24z" />
<glyph unicode="&#x3e;" horiz-adv-x="882" d="M213 1106q15 36 38.5 26.5t20.5 -38.5q-3 -26 4 -48t15 -34t36.5 -45t43.5 -52q45 -56 110 -131l78 -90q7 -8 54.5 -56.5t78 -87t35.5 -63.5q3 -20 -2 -28q-10 -27 -51.5 -73t-109.5 -111t-83 -80q-111 -115 -157 -158q-33 -31 -43 -52t0 -46q12 -32 -11 -46 q-22 -14 -41 6q-10 11 -14 29q-9 42 5.5 75t64.5 79q20 19 63.5 58t75.5 71t70 74q31 35 76.5 77.5t68.5 67.5t25 41v4q0 16 -10 30.5t-44 50t-59 65.5q-44 52 -76.5 89t-72.5 80t-70 76q-84 94 -109 146.5t-10 93.5z" />
<glyph unicode="?" horiz-adv-x="831" d="M123 1137q0 40 9.5 77t30.5 74.5t61 67.5t95 47q37 12 81 13t104.5 -20.5t111.5 -68.5q73 -70 99 -153q4 -12 4 -17q4 -12 4 -18q10 -49 14 -154q3 -234 -141 -319q-22 -14 -50.5 -29t-42 -22t-29.5 -21t-22 -31.5t-9.5 -47t-2.5 -73.5q2 -53 -4 -91t-13 -56t-21 -28 t-19.5 -11t-17.5 -2q-20 0 -29 18t14 52q43 50 25 256q-3 34 16 50.5t67.5 34.5t78.5 37q126 78 139 199q6 53 5.5 84.5t-7.5 101.5q-3 20 -12 58q-2 4 -5.5 13t-5.5 13q-5 14 -20 41q0 1 -1 3.5t-1 3.5q-2 3 -6.5 8.5t-8 10.5t-6.5 9q-5 7 -28 35q-80 88 -187 76 q-61 -7 -93.5 -26.5t-66.5 -57.5q-45 -49 -45 -133q0 -55 50 -115q17 -25 12 -34t-23 -9q-40 0 -67 35q-37 43 -37 119zM344 -14q-23 30 6 86q12 25 33.5 41t42.5 6q25 -11 28 -42t-22 -67q-27 -36 -47 -42t-41 18z" />
<glyph unicode="@" horiz-adv-x="1206" d="M82 645q0 65 35 207q34 133 113 278t180 220q77 57 159.5 70t150.5 -9t126 -70q125 -103 192 -262q46 -109 66 -190t20 -189q0 -156 -82 -338q-40 -89 -98 -157q-27 -31 -63 -40.5t-72 13.5q-20 13 -31 27q-43 -31 -67 -45.5t-71 -30.5t-93 -14q-108 3 -174 96 q-44 61 -61 131t-15 170q3 148 41 260q56 163 141 219q98 66 180 -6q16 -14 32.5 -34.5t26 -36t19 -27.5t15.5 -13q4 -1 6 1t5 6t5 6q31 57 74 86q42 29 68 6q20 -16 6 -38q-6 -8 -13 -13q-32 -21 -48.5 -39t-37.5 -51q-25 -40 -41 -109q-17 -73 -20 -178q-2 -67 10 -156v-6 q51 11 84 -6q44 -25 24 -72q-15 -36 -51 -69q9 -9 25 -17q4 -2 16 -2q57 3 121 164q37 98 55.5 174.5t18.5 167.5q0 177 -103 371q-72 136 -163 200q-68 47 -148 53t-149 -32q-70 -39 -103.5 -74.5t-79.5 -111.5q-57 -93 -114 -242q-16 -41 -25.5 -82t-13.5 -71.5 t-13 -110.5q-5 -45 0 -108t13 -101q17 -81 38.5 -132.5t61.5 -113.5q40 -61 115 -116t137 -62q81 -10 142.5 5t125.5 58q29 17 54 15t22.5 -25t-41.5 -49q-59 -38 -145.5 -55.5t-169.5 -7.5q-57 7 -102 30.5t-109 73.5q-45 35 -98.5 129.5t-75.5 185.5q-26 101 -31 195 q-2 27 -2 94zM360 557q-9 -187 50 -281q35 -57 64 -78.5t71 -23.5q99 -4 198 74q-18 36 -24 63q-20 -17 -33 -39q-15 -26 -35.5 -18t-15.5 37q3 14 19 32t34 29q3 2 19 10q-6 23 -9 56q-8 58 -8 105t8 132l7 50q1 12 2.5 28.5t2 25.5t-2 25t-9.5 35q-50 128 -102 137 q-38 7 -80 -23.5t-70 -74.5q-76 -125 -86 -301zM776 342q4 -20 21 -57q11 8 18.5 17.5t11 18.5t-1.5 16t-20 9q-13 0 -29 -4z" />
<glyph unicode="A" d="M32 -16q0 3 -1 5q0 25 32 42q25 13 48.5 66t68.5 183q5 15 8 23q37 106 56.5 181.5t43.5 197t44 209.5q21 94 40 212t29 171q11 59 23.5 101t21.5 62.5t20 31.5t16.5 12.5t13.5 1.5q23 0 46.5 -51t57.5 -183q10 -37 32 -118.5t38 -144t28 -120.5q2 -8 19 -85t27.5 -121 t31 -123t41.5 -148q18 -61 41 -159t38.5 -141t39.5 -56q26 -15 30 -39q1 -4 1 -6q0 -18 -16 -26q-19 -10 -52 1q-27 12 -46 46.5t-27 69t-20 93.5t-20 88q-62 235 -77 301q-44 213 -86 359q-12 2 -27 2q-10 0 -80 -7q-8 -1 -52 -7t-73 -9q-23 -87 -37 -176.5t-24 -130.5 q-6 -23 -22.5 -90.5t-23 -91.5t-19 -70.5t-23.5 -78t-23 -62.5q-10 -24 -22.5 -59.5t-20.5 -59t-20 -50t-23 -42t-27 -25.5t-34 -10q-36 3 -40 31zM408 958q8 -2 30 -2q25 0 68 4t61 5q6 0 41 10q-11 40 -31 129.5t-36 142.5q-2 7 -8 29q-25 104 -41 105q-7 0 -13 -13 q-10 -32 -24 -115q-11 -61 -24.5 -156t-22.5 -139z" />
<glyph unicode="B" horiz-adv-x="884" d="M135 825q-7 12 -7 24q0 24 26 50q25 25 63 31q1 56 1 107q0 119 -5 212q-4 60 -9 97.5t-8.5 49.5t-7.5 24t-6 24q-3 24 24 32q6 2 11 1q19 0 33 -21q33 -28 65 -37q11 -4 38 -9t53 -13.5t49 -24.5q35 -24 70.5 -79t56.5 -109q15 -47 15 -76v-6q-2 -29 -19 -76 q-15 -40 -49.5 -88t-75.5 -78q81 -51 127 -92q55 -48 86 -83.5t67 -92.5q22 -35 32.5 -70.5t15 -79.5t5.5 -47q12 -63 12 -113q0 -58 -16 -100q-21 -56 -64.5 -114.5t-103.5 -96.5q-91 -59 -133 -59q-17 0 -57.5 2t-65.5 2q-44 0 -77 8q-7 -20 -21 -20q-30 0 -34 48 q-1 11 -1 23q0 41 9 92q3 23 4 35q6 30 6 103v39q-2 104 -5.5 176t-10.5 186t-9 172q-39 4 -59 18.5t-25 28.5zM188 838q8 -4 29 -4v53q-21 -3 -31 -13q-8 -9 -9 -18q0 -13 11 -18zM260 1229q0 -60 4 -160t4 -143q40 0 80 -13q49 -21 51 -22q59 47 99 96q44 54 44 124 q0 11 -1 22q-2 28 -17.5 69.5t-42.5 75.5q-63 80 -215 80q-6 -105 -6 -129zM270 885l2 -47q41 7 74 20q-4 3 -12 6.5t-10 5.5q-24 11 -54 15zM274 784l21 -358q0 -65 -6 -221q0 -7 -1 -20q0 -25 1.5 -72t1.5 -78v-27q6 -26 51 -37q14 -3 26 -5q10 -2 21 -2h5q14 0 22 1 t25.5 3.5t21.5 2.5q29 4 61.5 15.5t73 35.5t74 69t49.5 104q15 57 18 109q1 13 1 25q0 39 -8 73q-10 44 -17.5 68t-20.5 56q-18 43 -40.5 73t-67.5 75q-92 92 -146 125q-7 4 -22.5 13t-22.5 13q-63 -32 -121 -41z" />
<glyph unicode="C" horiz-adv-x="919" d="M119 563q0 13 2 54t2 57q0 98 14 178q62 352 279 539q102 88 190 88q23 0 45 -6q77 -20 128.5 -84.5t51.5 -139.5q0 -36 -26 -47q-23 -9 -34 14q-4 8 -5 19q-4 51 -21.5 87t-70.5 69q-29 18 -63 18q-69 0 -158 -78q-105 -91 -164 -205q-111 -225 -111 -522q0 -75 17 -158 q30 -145 118 -272q66 -92 144 -145q48 -33 98 -47q37 -11 72 -10q12 0 24 1q46 5 82.5 38t54.5 91q11 34 34 42.5t37 -10.5q8 -11 8 -26q0 -12 -5 -26q-23 -69 -96 -123.5t-141 -54.5q-42 0 -93.5 15.5t-76.5 31.5q-109 72 -187 177t-110 228q-3 11 -10.5 41t-11 44.5 t-8.5 38.5t-7 43.5t-2 39.5z" />
<glyph unicode="D" horiz-adv-x="952" d="M168 -82q-7 12 -7 25q0 24 25 49q27 27 86 35v28q-2 53 -27.5 389t-25.5 463q0 285 -4 342q-4 60 -9 97.5t-8.5 49.5t-7.5 24t-6 24q-2 15 11 26q10 8 23 8h8q18 -4 30 -26q8 -2 28.5 -11.5t30.5 -13.5q110 -56 193 -139q50 -49 95.5 -119.5t92 -159.5t52.5 -100 q43 -73 69 -213q4 -19 9.5 -48t8.5 -43t6.5 -36.5t6 -47t4.5 -56.5q0 -41 -17 -98.5t-20 -75.5q-10 -58 -73.5 -165.5t-127.5 -154.5q-95 -70 -153 -88q-39 -11 -109 -20q-18 -2 -49 -2q-39 1 -71 13.5t-46 24t-18 19.5zM215 -57q0 -30 61 -35q0 15 3 39v33 q-28 -1 -46 -12.5t-18 -24.5zM262 1229q0 -60 4 -160t4 -143l27 -500q0 -18 5 -95t5 -130v-35q0 -59 10 -141q7 0 31 -7q51 -16 62 -43q9 -23 -7 -32.5t-36 12.5q-19 22 -43 25q7 -48 12 -70q51 0 131 33q85 35 172 131q44 50 70 93t63 142q23 62 23 158q0 145 -58 328 q-19 60 -98 209q-47 93 -82 143q-73 105 -133 160q-84 79 -137 79q-3 0 -9.5 -1t-9.5 -1q0 -16 -3 -66t-3 -89z" />
<glyph unicode="E" horiz-adv-x="960" d="M190 1448q0 13 11 22q10 8 23 8h8q18 -4 30 -26q9 -21 12 -45q14 1 42.5 2t43.5 2q64 3 181 14q81 12 160 12q17 0 34 -1q83 0 115 -45q21 -27 3 -45q-11 -10 -28 -10q-20 0 -47 14q-18 10 -41 16t-58 6q-35 2 -52 2h-5q-18 0 -60 -3q-48 -3 -54 -3q-100 -7 -139 -16 q-13 -2 -47.5 -4.5t-49.5 -4.5q-4 -62 -4 -114q0 -60 4 -160t4 -143v-8q18 -2 43 -2t56 2q22 1 69 7.5t70 6.5q31 0 45 -4q13 -4 19 -18.5t-9 -28.5q-11 -9 -61 -9q-22 0 -58 1t-47 1q-17 0 -32 -1.5t-28 -3.5t-19 -3q-26 -4 -45 -14l24 -426q0 -65 -6 -221q0 -12 -0.5 -36 t0.5 -60.5t1 -63.5t-1 -45q2 -35 31 -43q20 -6 80 -6q25 0 88 6q47 5 81 5q11 0 21 -1q14 -1 27 -1q118 0 211 56q28 17 48 17q14 0 24 -8t10 -19t-9 -24q-29 -47 -110 -56q-112 -22 -185 -22q-29 0 -188 -8q-5 0 -26 -2t-34.5 -2t-33.5 0.5t-37 4.5t-31 11q-24 11 -24 95 q0 41 6 99q4 42 4 113q0 115 -10 307q-15 294 -15 365v8q1 80 1 146q0 132 -5 208q-4 60 -9 97.5t-8.5 49.5t-7.5 24q-6 19 -6 28z" />
<glyph unicode="F" horiz-adv-x="802" d="M190 1448q0 13 11 22q10 8 23 8h8q18 -4 30 -26q9 -21 12 -45q14 1 42.5 2t43.5 2q64 3 181 14q81 12 160 12q17 0 34 -1q83 0 115 -45q11 -15 11 -26q0 -10 -8 -19q-11 -10 -28 -10q-20 0 -47 14q-18 10 -41 16t-58 6q-35 2 -52 2h-5q-18 0 -60 -3q-48 -3 -54 -3 q-100 -7 -139 -16q-13 -2 -47.5 -4.5t-49.5 -4.5q-4 -62 -4 -114q0 -60 4 -160t4 -143v-8q18 -2 43 -2t56 2q22 1 69 7.5t70 6.5q31 0 45 -4q13 -4 19 -18.5t-9 -28.5q-11 -9 -61 -9q-22 0 -58 1t-47 1q-17 0 -32 -1.5t-28 -3.5t-19 -3q-26 -4 -45 -14l24 -426 q0 -169 -2 -221v-15q-1 -27 1 -93q1 -24 1 -46q0 -61 -5 -97q-7 -50 -30 -50q-15 0 -23.5 9.5t-9.5 32.5t0 41t5 56.5t6 58.5q3 37 3 98q0 116 -10 318q-14 291 -14 368v9q1 80 1 146q0 132 -5 208q-4 60 -9 97.5t-8.5 49.5t-7.5 24q-6 19 -6 28z" />
<glyph unicode="G" horiz-adv-x="948" d="M119 561q0 13 2 54t2 57q0 98 14 178q62 352 279 539q101 87 189 87q24 0 46 -6q77 -20 128.5 -84t51.5 -139q0 -36 -26 -47q-23 -9 -34 14q-4 8 -5 19q-4 51 -21.5 87t-70.5 69q-29 18 -63 18q-69 0 -158 -78q-105 -91 -164 -205q-111 -219 -111 -522q0 -75 17 -158 q34 -169 116 -286q79 -110 146 -150q94 -56 196 -63h11q64 3 109.5 31t60.5 75q14 45 14 89q0 16 -2 32q-4 30 -7 47t-11 37.5t-21 36.5q-15 18 -34 24t-42.5 -6.5t-40.5 -48.5q-18 -38 -44 -38q-3 0 -7 1q-23 4 -27 29q-3 22 13 43q35 46 82 67q24 11 47 11t45 -10 q48 -22 76 -80.5t28 -139.5q0 -84 -19 -135t-65 -86q-52 -39 -127 -45l-61 -2q-40 0 -96 15t-80 30q-115 73 -190.5 183.5t-106.5 248.5q-3 15 -16 64.5t-18 80.5t-5 62z" />
<glyph unicode="H" horiz-adv-x="933" d="M90 1450q0 19 16.5 28.5t38.5 -3.5q21 -15 47.5 -57t40.5 -95q13 -50 21 -88.5t10 -55.5t3 -35.5t3 -23.5q6 -40 9 -159h22q23 0 55 -1.5t43 -1.5q26 0 73.5 3t59.5 4q20 1 60.5 7t58.5 7q0 103 6 141q0 5 0.5 23.5t1.5 35.5t7 55.5t16 88.5q9 51 32 91.5t40 55.5 q19 14 33 14q3 0 6 -1q16 -4 16 -23q-1 -15 -11 -31t-24 -38t-28.5 -53.5t-25 -91.5t-11.5 -140q0 -16 -1 -60t-1 -69q2 -2 10 -2q13 -4 19 -18.5t-9 -28.5q-4 -4 -20 -8q0 -23 2 -33q1 -21 5.5 -85.5t4.5 -101.5q1 -17 1 -67.5t1.5 -104.5t5.5 -100q13 -169 27 -235 q30 -133 88 -150q26 -9 38 -25q6 -8 6 -16t-6 -14q-12 -14 -44 -13q-47 0 -85.5 74.5t-52.5 175.5q-16 117 -20 226q-3 88 -10 184q-12 155 -15 285q-20 0 -51 1t-41 1q-60 0 -80 -2q-7 -1 -34.5 -4t-60.5 -6t-60 -5q-9 -2 -47 -6q1 -24 1.5 -86.5t1.5 -107.5t5 -76 q1 -13 3.5 -36t3.5 -31.5t2 -24.5t0.5 -25.5t-2 -23.5t-3.5 -29q-17 -98 -19 -236q-2 -108 -40 -187.5t-91 -80.5h-4q-29 -1 -41 13q-7 8 -7 17q0 7 5 15q11 17 39 23q35 8 52.5 48.5t29.5 106.5q6 33 7 112t7 130q5 65 5 100v7q0 35 -5.5 95.5t-5.5 71.5v35q1 30 1 69 q2 66 1 85v16q-21 6 -18 27q0 12 16 22q-10 138 -10 156q-3 79 -16.5 139.5t-31 91.5t-35 52t-29 35.5t-11.5 27.5z" />
<glyph unicode="I" horiz-adv-x="481" d="M140 4q11 18 38 23q44 11 64 89q19 72 19 174v20q-2 116 -11 228t-20 219.5t-11 137.5q-1 53 -3 171q-2 84 -1 142v41q1 87 16 143.5t30.5 73.5t29.5 17q17 0 24 -15.5t-6 -46.5q-1 -2 -8.5 -15.5t-8.5 -15.5t-6.5 -13.5t-6.5 -15t-5 -14.5t-4.5 -17.5t-3 -18.5t-3 -23.5 t-1 -26.5t-0.5 -32q0 -60 8.5 -158t8.5 -141l40 -508q0 -27 -4 -91.5t-6 -113.5q-2 -36 -8.5 -75t-19.5 -84t-39 -74t-60 -29q-30 -1 -42 15q-6 8 -5 17q0 8 5 17z" />
<glyph unicode="J" horiz-adv-x="790" d="M98 1369q0 12 12 27q15 16 46 25q80 27 215 31q62 3 180 14q81 12 160 12q17 0 34 -1q83 0 115 -45q11 -15 11 -26t-8 -19q-11 -10 -28 -10q-20 0 -47 14q-39 22 -114 24h-30q-58 0 -107 -6q-19 -78 -19 -180q0 -60 8.5 -158t8.5 -141l40 -508q0 -27 -4 -91.5t-6 -113.5 q-2 -43 -14 -99.5t-33 -92.5q-53 -93 -135 -125q-33 -14 -66 -14q-56 0 -110 40q-46 35 -65 86t-19 135q0 81 28 139.5t76 80.5q22 10 45 10t47 -11q47 -21 82 -67q14 -19 14 -35q0 -13 -8 -24q-16 -22 -41 -10q-18 9 -30 34q-17 36 -40.5 48.5t-42.5 6.5t-34 -24 q-18 -22 -26 -49t-13 -72q-2 -15 -2 -30q0 -44 15 -91q16 -54 61 -84q27 -19 60 -19q20 0 42 7q54 16 103 82q57 86 57 268q0 127 -20.5 347.5t-20.5 240.5q0 54 -3 171q-1 84 -1 142v41q0 41 -1 93.5t-1 62.5q-56 -4 -90 -12q-11 -2 -48.5 -5t-58.5 -6q-25 -3 -53.5 -12.5 t-44 -16.5t-35.5 -11t-28 4q-13 8 -13 23z" />
<glyph unicode="K" horiz-adv-x="856" d="M143 829q-7 12 -7 25q0 25 28 53q24 24 59 27q1 56 1 106q0 118 -5 209q-4 60 -9 97.5t-8.5 49.5t-7.5 24t-6 24q-2 15 11 26q10 8 23 8h8q18 -4 30 -26q11 -23 14 -49q1 -12 1 -30q0 -23 -2 -53q-3 -56 -3 -91q0 -59 2 -157.5t2 -141.5q39 -5 80 -27q22 -13 35 -24 q53 45 113 147q62 108 76 205q10 69 38 72q20 2 29 -27q6 -19 2 -43q-4 -31 -12.5 -57t-22.5 -59t-20 -48q-17 -44 -67 -116.5t-93 -106.5l-2 -2q70 -69 82 -84q82 -94 131 -209q45 -108 68 -203q42 -148 47 -180q8 -43 19.5 -80t38.5 -71.5t61 -34.5q25 0 35 -20 q5 -9 5 -19q0 -11 -6 -21q-12 -20 -41 -20q-98 0 -145 137q-8 24 -20 88t-15 78q-26 108 -72 258q-60 190 -184 311q-36 32 -45 41q-52 -27 -108 -33l20 -356q0 -65 -6 -221q0 -4 -1 -12q0 -27 4 -97q1 -33 1 -60q0 -46 -4 -80q-6 -52 -29 -52q-30 0 -34 48q-1 11 -1 23 q0 41 9 92q3 23 4 35q6 30 6 104v39q-2 105 -5.5 177.5t-10.5 187t-9 172.5q-27 2 -46.5 11.5t-26 18.5t-9.5 17zM188 852q2 -10 11 -14q7 -7 24 -7v56q-21 -5 -29 -15q-6 -8 -6 -15q-1 -3 0 -5zM276 885l3 -47q24 0 63 16q-2 1 -5 4t-5 4q-33 20 -56 23z" />
<glyph unicode="L" horiz-adv-x="937" d="M190 1448q0 13 11 22q10 8 23 8h8q18 -4 30 -26q10 -23 12 -50q0 -7 1 -17q0 -25 -3 -63q-4 -53 -4 -93q0 -60 4 -160t4 -143l27 -500q0 -65 -6 -221q0 -12 -0.5 -36t0.5 -60.5t1 -63.5t-1 -45q2 -35 31 -43q20 -6 80 -6q25 0 88 6q47 5 81 5q11 0 21 -1q14 -1 27 -1 q118 0 211 56q28 17 48 17q14 0 24 -8t10 -19t-9 -24q-29 -47 -110 -56q-112 -22 -185 -22q-29 0 -188 -8q-5 0 -26 -2t-34.5 -2t-33.5 0.5t-37 4.5t-31 11q-25 12 -25 99q0 40 5 95q4 43 4 119q0 114 -9 302q-14 293 -14 364v8q1 80 1 146q0 132 -5 208q-4 60 -9 97.5 t-8.5 49.5t-7.5 24q-6 19 -6 28z" />
<glyph unicode="M" horiz-adv-x="1390" d="M56 5q11 18 38 24q104 22 152 297q34 200 59 569q5 70 22.5 185t22.5 169t13 97t17 68t18.5 41t17.5 22t16 6h4q4 0 8 -4q54 -24 74 -230q5 -56 24.5 -170.5t24.5 -183.5q25 -368 68 -576q1 -5 5.5 -40t10 -71.5t13.5 -75.5t19 -63.5t24 -25.5q11 0 18 10t12 35t9.5 52.5 t13 79t18.5 99.5q40 194 66 576q5 69 24.5 183.5t24.5 170.5q8 88 24.5 143.5t31 73t30.5 17.5q8 0 15.5 -6t17 -22t18 -41t16.5 -68t13 -97q5 -55 23.5 -170t23.5 -184q25 -369 59 -569q24 -137 57.5 -205t88.5 -80q27 -6 37 -24q5 -8 5 -16q0 -9 -6 -18q-12 -16 -42 -16 h-3q-36 0 -68 24q-32 25 -54.5 67t-37 84t-24.5 87q-14 65 -28 181t-19 151q-14 97 -33 369q-3 52 -20.5 164t-22.5 153l-8 68q-2 23 -9 21q-11 -5 -20 -89q-6 -54 -25 -161.5t-22 -155.5q-20 -286 -32 -369q-3 -20 -20 -148.5t-32 -195.5q-3 -14 -8.5 -45t-9.5 -50.5 t-11 -48t-15 -47t-19 -36.5t-25.5 -26.5t-31.5 -8.5q-28 0 -48 16.5t-32 50t-18.5 60.5t-14 72.5t-10.5 62.5q-15 67 -32 195.5t-20 148.5q-12 83 -32 369q-3 50 -23 160t-26 159q-10 86 -21 86h-1q-5 -3 -7 -28q-3 -25 -6 -58q-5 -40 -22.5 -153.5t-20.5 -165.5 q-19 -272 -33 -369q-4 -25 -20 -151.5t-31 -192.5q-11 -54 -36.5 -111.5t-67.5 -104t-87 -46.5q-30 0 -42 16q-6 8 -5 17q0 8 5 17z" />
<glyph unicode="N" horiz-adv-x="897" d="M43 5q9 18 35 24q52 12 76.5 86t27.5 211q0 254 -35 569q-7 74 -8.5 193.5t-3.5 160.5q-3 38 -3 69q0 14 1 28q2 40 6 67t11.5 42.5t14.5 21.5t15 6h4q2 -1 7.5 -3t7.5 -3q55 -37 104 -228q16 -62 53.5 -176t53.5 -178q4 -14 23 -95.5t35.5 -148t45.5 -162.5t57 -170 q64 -230 107 -278q10 -10 11 8l1 25v-8q-28 669 -31 829v32q0 125 13 322q3 54 11.5 96.5t18 67t21 40.5t20.5 21.5t17 4.5q18 -2 24 -17q2 -5 2 -10q0 -14 -10 -35q-21 -34 -29.5 -50t-15.5 -50t-10 -90q-2 -32 -2 -76q-1 -37 1 -83q1 -55 2 -92q0 -30 -1 -48l16 -510 q2 -62 3.5 -135t2.5 -93q1 -21 6.5 -60.5t7.5 -67t0 -56.5t-16.5 -44t-42.5 -15t-50.5 17.5t-38.5 51t-27 64t-24 73.5t-21 64q-27 67 -65.5 197.5t-43.5 146.5q-28 98 -92 369q-11 51 -49 162t-51 157q-28 91 -36 91q-1 0 -1 -1q-2 -2 -2 -6t4 -82q1 -37 2 -152.5t6 -168.5 q27 -298 27 -369q0 -43 4 -161q3 -79 3 -134q0 -27 -1 -49q-2 -54 -18.5 -111.5t-51.5 -104t-80 -46.5q-30 0 -44 16q-9 10 -9 20q0 7 4 14zM197 1315l2 -21q-2 8 -2 21z" />
<glyph unicode="O" horiz-adv-x="948" d="M121 645q0 127 14 207q33 185 71.5 305.5t115.5 228.5q30 41 62 64q33 22 62 26q13 2 24 3q15 1 27 -3q22 -4 42 -16q14 -8 27 -17t18.5 -13.5t15.5 -14t12 -10.5q25 -19 56 -72q26 -43 75 -166q31 -77 47.5 -123.5t33 -113.5t20.5 -127q2 -30 2 -68v-41q-1 -27 -1 -53 q0 -35 1 -70v-21q0 -26 -2 -50q-2 -36 -6 -55.5t-11.5 -52t-9.5 -44.5q-15 -72 -49 -145q-16 -34 -35 -54.5t-53 -44.5q-55 -39 -117 -39q-43 0 -90 19q-54 22 -92 80q-28 43 -28 84q0 14 3 28q4 16 16.5 21.5t28.5 -5t27 -34.5q5 -11 13.5 -34.5t15.5 -37t20 -29t35 -23 t53 -7.5q125 0 178 207q27 106 36 163.5t9 139.5t-6 156q-5 60 -30 170.5t-52 177.5q-31 75 -76 148t-83 104q-26 20 -55.5 22.5t-55.5 -10.5t-48.5 -33.5t-41.5 -46.5q-10 -14 -18.5 -27.5t-15 -25t-12.5 -25.5t-10 -23t-8.5 -24t-6.5 -22t-6 -23t-5 -20.5t-4 -22t-4 -20.5 l-22 -92q-21 -93 -27 -148q-1 -10 -7.5 -66.5t-10 -103t-3.5 -92.5q0 -81 13 -144q31 -153 106 -272q36 -57 92 -94.5t115 -46.5q43 -6 54 -38q10 -27 -16 -39q-11 -5 -27 -5h-5q-19 1 -43 11.5t-42 22.5t-47 32t-42 28q-44 28 -103 124.5t-81 186.5q-26 101 -31 195 q-2 27 -2 94z" />
<glyph unicode="P" horiz-adv-x="800" d="M128 4q11 18 38 23q82 18 82 284v45q-2 75 -11 219.5t-10 163.5q-21 3 -38.5 15t-27.5 27t-14.5 24.5t-7.5 17.5q-7 11 -7 24q0 25 28 52q25 25 63 31q1 56 1 107q0 119 -5 212q-4 60 -9 97.5t-8.5 49.5t-7.5 24t-6 24q-3 24 24 32q6 2 12 2q19 0 32 -22q1 -1 7 -11 t13.5 -16t20.5 -10q3 -4 45.5 -1.5t56.5 1.5q121 -9 184.5 -63t110.5 -172q14 -34 14 -73q0 -47 -20 -101q-15 -40 -59.5 -97.5t-89.5 -95.5q-24 -19 -67 -37t-81 -26q-76 -17 -106 -17l16 -311q0 -70 -2 -117q-1 -34 -1.5 -49.5t-2 -54t-5 -60.5t-9.5 -56t-16 -54 t-22.5 -40.5t-31 -30t-41.5 -9.5q-30 -1 -42 15q-6 8 -5 17q0 8 5 17zM184 846q0 -35 41 -49q-2 33 -2 90q-39 -5 -39 -41zM266 1229q0 -59 4 -157t4 -140q10 0 37 -8q51 -16 62 -43q9 -23 -7 -33t-36 12q-20 20 -54 25l5 -90q18 0 32 2q91 8 160.5 49t132.5 125 q43 57 43 141q0 100 -63 166q-30 32 -51 48.5t-64.5 30t-105.5 13.5q-83 0 -93 -14q-6 -105 -6 -127z" />
<glyph unicode="Q" d="M121 645q0 127 14 207q33 185 71.5 305.5t115.5 228.5q30 41 62.5 64t61.5 26q13 2 24 2q15 0 27 -2q22 -5 42 -16q14 -8 27 -17t18.5 -13.5t15.5 -14t12 -10.5q25 -19 56 -72q26 -43 75 -166q31 -77 47.5 -123.5t33 -113.5t20.5 -127q2 -30 2 -68v-41q-1 -27 -1 -53 q0 -36 1 -70v-21q0 -25 -2 -50q-2 -36 -6 -55.5t-11.5 -52t-9.5 -44.5q-15 -72 -49 -145q-20 -45 -49 -68q66 -63 131 -63q21 0 30 1t25.5 7t38.5 20q27 17 48 17q8 0 15 -2q19 -6 19 -24q0 -8 -4 -19q-12 -39 -62 -56q-42 -14 -91 -14h-17q-95 6 -182 84q-1 1 -4 3t-4 3 q-43 -26 -93 -26q-48 0 -98 20q-47 19 -75 48q-25 26 -25 58v7v5.5t2.5 14t8 19.5t17.5 19.5t29 16.5q35 12 67 12q52 0 97 -32q13 -10 24 -19t17 -15t18.5 -19t20.5 -21q40 48 71 154q27 106 36 163.5t9 139.5t-6 156q-5 60 -30 170.5t-52 177.5q-31 75 -76 148t-83 104 q-26 20 -55.5 22.5t-55.5 -10.5t-48.5 -33.5t-41.5 -46.5q-10 -14 -18.5 -27.5t-15 -25t-12.5 -25.5t-10 -23t-8.5 -24t-6.5 -22t-6 -23t-5 -20.5t-4 -22t-4 -20.5l-22 -92q-21 -93 -27 -148q-1 -10 -7.5 -66.5t-10 -103t-3.5 -92.5q0 -81 13 -144q31 -153 106 -272 q36 -57 92 -94.5t115 -46.5q43 -6 54 -38q10 -27 -16 -39q-11 -5 -27 -5h-5q-19 1 -43 11.5t-42 22.5t-47 32t-42 28q-44 28 -103 124.5t-81 186.5q-26 101 -31 195q-2 27 -2 94zM434 197q0 -27 33.5 -49t93.5 -23q36 0 60 12q-49 61 -84 78q-30 12 -53 12q-11 0 -20 -2 q-30 -8 -30 -28z" />
<glyph unicode="R" horiz-adv-x="944" d="M128 4q11 18 38 23q82 18 82 284v45q-2 75 -11 219.5t-10 163.5q-21 3 -38.5 15t-27.5 27t-14.5 24.5t-7.5 17.5q-7 11 -7 24q0 25 28 52q25 25 63 31q1 56 1 107q0 119 -5 212q-4 60 -9 97.5t-8.5 49.5t-7.5 24t-6 24q-3 24 24 32q6 2 12 2q19 0 32 -22q1 -1 7 -11 t13.5 -16t20.5 -10q3 -4 45.5 -1.5t56.5 1.5q121 -9 184.5 -63t110.5 -172q14 -34 14 -73q0 -47 -20 -101q-15 -40 -59.5 -97.5t-89.5 -95.5q-12 -10 -50 -31q4 -4 11.5 -12t11.5 -12q99 -114 143 -217q60 -137 68 -172q42 -148 47 -180q33 -187 117 -187q25 0 36 -19 q5 -9 5 -18q0 -10 -6 -20q-12 -19 -41 -19q-55 0 -87.5 34t-54.5 99q-6 18 -12.5 46.5t-13.5 65t-11 54.5q-9 39 -18.5 72t-15 49t-18.5 52t-19 53q-59 160 -191 313q-37 -12 -49 -14q-76 -17 -106 -17l16 -311q0 -70 -2 -117q-1 -34 -1.5 -49.5t-2 -54t-5 -60.5t-9.5 -56 t-16 -54t-22.5 -40.5t-31 -30t-41.5 -9.5q-30 -1 -42 15q-6 8 -5 17q0 8 5 17zM184 842q0 -33 41 -47q-2 33 -2 88q-39 -5 -39 -41zM266 1229q0 -59 4 -157.5t4 -141.5q36 -4 82 -27q33 -17 90 -74q89 44 160 142q43 57 43 141q0 100 -63 166q-30 32 -51 48.5t-64.5 30 t-105.5 13.5q-83 0 -93 -14q-6 -105 -6 -127zM276 879l5 -84q18 0 32 2q50 3 86 14q-39 35 -63 47q-44 19 -60 21z" />
<glyph unicode="S" horiz-adv-x="888" d="M152 172q0 77 36 119q27 35 68 35q18 0 22.5 -9t-12.5 -34q-49 -59 -49 -115q0 -84 45 -133q23 -25 39 -38.5t47.5 -27t73.5 -18.5q13 -1 25 -1q91 0 161 77q88 94 99 221q1 21 1 43q0 68 -14 141q-12 63 -65 156q-24 41 -62.5 69t-64.5 35l-27 8q-92 25 -125 42.5 t-80 66.5q-54 57 -80 143.5t-26 141.5q0 82 28.5 164t83.5 133q89 84 176 83q25 0 50 -6q77 -20 127.5 -82t50.5 -137q0 -37 -22 -45q-20 -8 -30 18q-2 7 -3 17q-3 48 -24 85t-75 71q-28 18 -59.5 19.5t-61 -10.5t-55 -29.5t-49.5 -41.5q-76 -76 -76 -239q2 -87 33 -158 q20 -45 53 -79t64 -50q26 -15 51 -25t37 -13l12 -3q85 -22 141 -66q40 -31 72 -88q35 -58 55.5 -137t20.5 -149q0 -35 -1 -57t-1 -23q-5 -85 -32 -147t-85 -117q-51 -46 -111 -68q-58 -21 -101 -21h-4q-44 1 -81 13q-55 17 -95 47t-61 67.5t-30.5 74.5t-9.5 77z" />
<glyph unicode="T" horiz-adv-x="802" d="M5 1369q1 13 13 27q14 16 45 25q80 27 216 31q62 3 180 14q81 12 160 12q17 0 34 -1q83 0 115 -45q11 -15 11 -26q0 -10 -8 -19q-11 -10 -28 -10q-20 0 -47 14q-41 21 -123 23h-32q-62 0 -111 -5v-160v-41q0 -58 -2 -142q-2 -118 -2 -171q0 -24 -6 -87.5t-15 -158 t-14 -168.5q-9 -87 -8 -165q0 -66 6 -126q14 -128 68 -163q23 -15 28 -32.5t-5 -28.5t-27 -11q-102 2 -121 254q-6 76 -6 152q0 62 4 124l37 445q0 43 8 141t8 158q0 91 -18 176q-48 -4 -78 -12q-11 -2 -48.5 -5t-58.5 -6q-25 -3 -53.5 -12.5t-44.5 -16.5t-36 -11t-28 4 q-13 8 -13 23z" />
<glyph unicode="U" horiz-adv-x="1230" d="M92 1450q0 18 16 28q7 4 15 5q11 0 24 -8q21 -15 48 -57t41 -95q13 -50 20.5 -88.5t9.5 -55.5t3.5 -35t2.5 -24q6 -42 9 -182q1 -23 1.5 -94t2 -124.5t4.5 -90.5q2 -32 4 -65t3.5 -55.5t4.5 -49.5q16 -148 66 -264q40 -93 106.5 -155t138.5 -65q156 0 248 213 q55 126 70 271q3 27 4 50.5t2 58t2 65.5q2 41 4 150t4 155q7 163 10 182q1 5 2.5 23.5t3.5 35.5t10 55.5t21 88.5q14 53 37.5 90.5t44.5 52.5q21 14 39 4q16 -9 16 -24q0 -21 -20 -46q-18 -22 -37 -45t-37.5 -88.5t-21.5 -162.5q-1 -18 -7 -100t-6 -121q1 -17 3 -82 q1 -36 1 -65q0 -23 -1 -42q-1 -17 -4 -67t-7 -104.5t-8 -102.5q-13 -141 -78 -270q-12 -25 -24.5 -45.5t-20 -33t-21 -28t-17.5 -20t-19.5 -19.5t-18.5 -18q-76 -76 -172 -76q-40 0 -88.5 20.5t-83.5 55.5q-2 2 -21.5 21t-25.5 26t-21.5 26.5t-28.5 41.5t-28 51 q-60 117 -73 268q-15 163 -19 274v35q1 30 1 69q2 66 1 85q0 39 -5.5 122t-6.5 99q-3 79 -16.5 139.5t-31 91.5t-35 52t-29 35.5t-11.5 27.5z" />
<glyph unicode="V" horiz-adv-x="1372" d="M43 1432q-4 10 -4 19q0 18 17 27q11 5 24 5q107 0 227 -262q48 -106 142 -377q59 -170 110 -336q13 -41 32.5 -93.5t47 -122t41.5 -108.5q30 -77 45 -102q9 -13 18 -13q24 0 51 78l13 43q17 61 41 164t37 154q48 187 90 369q7 29 18 76.5t17.5 75t18.5 68.5t26 81 q17 46 39 90.5t52 91t68 74.5q36 28 71 28h3q30 0 40 -16q4 -7 4 -13q0 -9 -7 -20q-13 -18 -41 -24q-55 -11 -99 -97t-95 -243q-24 -75 -47 -160.5t-34.5 -135.5t-27.5 -126.5t-18 -83.5q-17 -75 -50 -200t-41 -155q-22 -85 -47.5 -140t-44.5 -74t-35 -19q-57 0 -131 209 q-27 78 -68.5 190.5t-68.5 190.5q-13 35 -81 247t-124 332q-7 16 -21.5 48t-21 46t-19 39t-19 36.5t-17.5 29.5t-19 26.5t-19 19t-21.5 15.5t-22.5 7q-37 7 -49 41z" />
<glyph unicode="W" horiz-adv-x="1310" d="M44 1433q-5 9 -5 17q-1 9 5 17q12 16 42 16q45 0 87 -46.5t67 -104t36 -111.5q11 -50 20 -107.5t18.5 -128t15.5 -108.5q8 -56 30 -369q3 -52 20.5 -166.5t22.5 -153.5q1 -14 7 -61v8q3 -35 9 -33q9 4 19 86q9 79 29 198t22 136q7 44 24 160t28 184q2 9 5.5 33.5t6 38.5 t7 38t9 38.5t11 34.5t14.5 32t17.5 23.5t21.5 17.5t26 6q16 0 29 -9.5t22 -27t16 -36t13 -46t9.5 -48.5t8 -50.5t7.5 -44.5q17 -90 51 -344q3 -27 10 -81t10.5 -80t11.5 -73t19 -98q18 -89 28 -89q1 0 2 1q3 4 5 19v2v4l-8 -172q-2 1 -4 2.5t-8 7t-8 12t-4 17.5t5 22 q22 50 27 105v2q0 2 1 5t1 5v4q2 16 6 53q36 297 39 318q16 114 24 231t11 138q4 27 19 146t30 185q10 45 25 87t38 83.5t55 67.5q31 25 68 24h3q30 0 42 -16q6 -8 6 -17q-1 -8 -5 -16q-10 -18 -37 -24q-55 -12 -87.5 -79.5t-56.5 -205.5q-16 -95 -28.5 -213t-21.5 -226 t-11 -130q-8 -81 -25.5 -188.5t-23.5 -166.5q-5 -54 -13 -96.5t-16.5 -67.5t-18 -41.5t-17 -22t-15.5 -5.5q-47 0 -90 233q-21 119 -31 185.5t-22.5 163t-32.5 227.5q-5 35 -11 74.5t-9 64t-7 50.5t-7 40.5t-7 27.5t-8.5 18t-10.5 5q-9 -1 -17.5 -24t-15 -61t-11.5 -73.5 t-9.5 -74.5t-5.5 -49q-61 -379 -70 -453q-2 -13 -14 -116q-23 -195 -78 -232l-12 -6h-4q-8 0 -16 5.5t-17.5 22t-18.5 41.5t-17 67.5t-13 96.5t-22.5 169.5t-22.5 185.5q-21 322 -64 569q-25 140 -58.5 213t-88.5 84q-27 6 -38 24zM901 127l2 10v-4q0 -1 -1 -3t-1 -3z" />
<glyph unicode="X" horiz-adv-x="962" d="M35 -13q-1 4 -1 8q0 22 24 36q14 9 32 10q46 2 83.5 47t67 130t52.5 171t54.5 208.5t58.5 203.5l-5 16q-15 36 -55 149t-96 248q-36 90 -74 133q-32 36 -71 36q-7 0 -15 -1q-30 -6 -44 6.5t-7 31t31 28.5q14 6 29 5q39 -1 87 -37q68 -52 127 -187q24 -60 62.5 -176.5 t58.5 -169.5q11 31 38 109t49 137t48 120q57 136 109 185q49 47 94 47h4q34 -2 38 -29t-34 -41q-58 -19 -87.5 -57t-63.5 -127q-28 -73 -64 -162t-59.5 -149.5t-40.5 -112.5q30 -84 120 -381q78 -257 130 -337q41 -63 86 -63q27 0 55 23q27 22 51 4q14 -11 14 -25 q0 -10 -6 -21q-12 -23 -47 -40q-31 -15 -60 -16h-7q-25 0 -43 6q-22 7 -44.5 30t-35.5 40.5t-30.5 53t-25 53.5t-22.5 55q-5 13 -8 20q-22 54 -52 155t-38 125l-66 215l-69 -268q-1 -5 -13 -54t-24.5 -90.5t-30.5 -88.5q-12 -29 -24 -55.5t-34 -62t-45 -61t-55 -43.5 t-65 -18q-37 0 -41 28z" />
<glyph unicode="Y" horiz-adv-x="954" d="M47 1425q15 15 29 26t40 20.5t49 3.5t51.5 -36.5t51.5 -88.5q48 -117 138 -365q10 -28 106 -280q6 -21 14 -5q45 137 54 170q9 34 43.5 175.5t54.5 209.5q21 74 47.5 124t50 71t48.5 27q13 3 24 3q9 0 17 -2q17 -5 30 -16q22 -19 22 -36q0 -7 -4 -14q-14 -22 -51 -7 q-7 3 -14 3q-21 0 -44 -29q-31 -38 -48.5 -80.5t-24.5 -71.5q-6 -20 -84 -318q-19 -70 -31.5 -115.5t-24 -85.5t-17 -59.5t-15 -48t-13 -39.5t-16 -46.5t-20.5 -57.5q-67 -191 -100 -267q-36 -83 -78 -140t-79 -82t-71 -30q-10 -2 -19 -2q-23 0 -43 10q-26 14 -42 42 q-15 26 -15 44q0 16 11 27q18 16 37 3q8 -7 12 -19q15 -49 49 -49q14 0 32 9q62 32 126 155q77 150 143 358q6 20 6 44q0 23 -5 48q-11 53 -48 148q-22 55 -51 143t-33 98q-31 85 -63 166t-64 166q-16 42 -35 62t-37.5 18.5t-36 -18t-32.5 -45.5q-15 -31 -40 -24 q-22 7 -22 34q0 33 35 69zM539 723l2 8q-2 -4 -2 -8z" />
<glyph unicode="Z" horiz-adv-x="1040" d="M64 1341q4 25 15 43t25 29q16 13 37.5 22t39 13.5t51.5 6.5t51 2t63 -1.5t64 -1.5q54 1 88.5 3t56 4t35.5 3q22 3 63 4q61 0 164 -8q76 -3 101 -37q8 -11 8 -22v-6q0 -2 -1 -5.5t-1 -5.5q-8 -36 -35 -103t-58 -124q-28 -53 -79 -173t-72 -159l-219 -397 q-23 -43 -74 -116.5t-76 -116.5q-5 -9 -16.5 -26.5t-22.5 -34.5t-23.5 -37.5t-21 -37.5t-13.5 -32.5t-2.5 -25.5t13.5 -13q51 -13 76 -15q23 -1 61.5 1t45.5 3q25 -2 59.5 -2t79.5 2q30 2 96.5 6t88 7t57.5 13.5t65 29.5q29 20 51 20q12 0 21 -6q12 -9 12 -21q0 -10 -7 -22 q0 -1 -1 -2q-35 -57 -113 -65q-60 -11 -231 -11q-13 -1 -35.5 -1t-56 -1.5t-88.5 -5.5q-49 -6 -95 -6q-66 0 -127 12q-33 6 -48 19t-13 28v4q2 16 13 37t33 58t36 63q33 59 117.5 192t163.5 269.5t135 259.5q31 64 87 184t80 170q29 58 41.5 89t14 52.5t-8.5 29.5t-34 14 q-79 17 -197 17q-24 0 -49 -1q-40 -2 -76.5 -6.5t-62 -8.5t-33.5 -5q-18 -1 -66 -1.5t-77.5 -1.5t-61 -8t-43.5 -20q-13 -23 -5.5 -32.5t22 -26.5t12.5 -33q-1 -14 -17 -20t-38.5 5t-36.5 39q-10 19 -10 38q1 7 2 13z" />
<glyph unicode="[" horiz-adv-x="518" d="M168 928q-1 38 0.5 141t-0.5 158q-4 135 2 176q6 52 31 63q16 5 55 5.5t86.5 -1.5t52.5 -2q27 0 37.5 -13.5t2.5 -28t-25 -17.5q-13 -6 -78 -2t-72 4q-18 0 -26.5 -12.5t-8.5 -22.5q-4 -62 -4 -127q-1 -62 8 -354q0 -11 5.5 -227t11.5 -386t12 -227q0 -4 2 -10.5 t11 -15.5t24 -9q17 1 50 4t46.5 3.5t36.5 -2.5q17 -5 25 -20t-2 -28.5t-37 -13.5q-8 0 -48.5 -2.5t-74 -2.5t-47.5 5q-31 10 -42.5 51t-11 117.5t-0.5 83.5q-3 55 -9 118.5t-7 86.5z" />
<glyph unicode="\" horiz-adv-x="786" d="M21.5 1327.5q0.5 17.5 17.5 24.5q13 5 33.5 -5t56 -56t70.5 -126q27 -62 72 -174.5l61 -152.5q12 -28 43 -131.5t66.5 -210t78.5 -214.5t92.5 -172.5t94.5 -56.5q28 5 45.5 -6.5t12 -30t-33.5 -30.5q-31 -14 -65.5 2.5t-64.5 53t-51 70.5t-36 66q-24 49 -53.5 105 t-38.5 77l-158 486q-18 41 -47.5 134.5t-52.5 147.5q-22 50 -41.5 80t-32 41.5t-45.5 36.5q-24 24 -23.5 41.5z" />
<glyph unicode="]" horiz-adv-x="516" d="M66 1422.5q-9 14.5 0 28t36 13.5q4 0 35 3t55 4.5t53.5 1.5t43.5 -3q27 3 43 -63q6 -39 6 -176q-2 -68 3 -178.5t5 -120.5l6 -508q-1 -19 -5.5 -82.5t-6.5 -122.5q-1 -16 0.5 -56t1 -70.5t-5 -63.5t-21 -51.5t-43.5 -18.5h-6q-22 -2 -75.5 0t-65.5 0q-27 0 -38.5 13 t-4.5 28t24 20q13 5 33 5.5t54.5 -2.5t46.5 -3q15 0 24 9t10.5 15.5t1.5 10.5q1 -1 2 -2.5t4.5 -6.5t6.5 -10t6.5 -12t6 -13.5t4.5 -13.5t2 -12.5t-3 -10t-8 -7.5q-7 -5 -31 -8q-15 2 -20.5 8.5t-2 16t8.5 18t12 18t8 13.5q13 37 13 866q0 8 0.5 180.5t-0.5 173.5 q-2 30 -4 58t-3.5 46.5t-3 35.5t-3 26.5t-1.5 18.5v13t2 8t5 6.5t8 4.5h4q6 0 14 -4q11 -14 5 -34t-19 -38l-13 -18q0 4 -1 10.5t-9.5 16.5t-23.5 8q-17 0 -67.5 -4t-82.5 -2q-17 3 -26 17.5z" />
<glyph unicode="^" horiz-adv-x="1370" d="M62 974q-2 23 21 31q13 5 30 -1q25 -10 46 0t52 43q43 46 158 157q15 15 80 83t111 109.5t73 51.5q8 5 29 2q25 -5 63 -35.5t86 -77.5t57 -55q12 -10 88.5 -76.5t133.5 -111.5q20 -16 52 -43.5t44 -36t34 -15.5t48 -4q29 3 38.5 -20.5t-26.5 -38.5q-41 -15 -93.5 10 t-146.5 109q-33 30 -76 70t-80 72.5t-89 76.5q-26 22 -54 47.5t-40 37t-26 19.5t-26 8h-4q-16 -2 -41 -24.5t-67.5 -68t-77.5 -76.5q-42 -38 -74 -70t-71 -75.5t-58 -63.5q-46 -50 -79 -64.5t-75 -5.5q-38 8 -40 36z" />
<glyph unicode="_" horiz-adv-x="1169" d="M1 -375q2 17 13 25q7 9 27 8t35.5 -5.5t51.5 -10.5t73 -7q164 -8 215 -8q27 0 119.5 6.5t214.5 1.5q215 -7 313 7q106 18 106 -29q0 -53 -149 -53q-113 0 -236 12q-63 6 -401 -8q-209 -5 -322 6q-32 4 -47 21t-13 34z" />
<glyph unicode="`" horiz-adv-x="542" d="M41 1360q-4 18 12 31q10 12 43 -5q7 -7 20 -21t23 -24t15 -14q36 -31 54.5 -44t45.5 -26q38 -27 41 -47q1 -19 -10.5 -25.5t-24.5 -4.5q-9 0 -18 3t-19.5 10t-16.5 11.5t-20 16t-18 14.5q-50 36 -84 65q-15 11 -27 26.5t-16 33.5z" />
<glyph unicode="a" horiz-adv-x="782" d="M104 141q16 45 72 99.5t117 93.5q60 39 95.5 66.5t90.5 82.5q44 44 64 160q-2 41 -15 162q-11 68 -30 102q-32 49 -78 62q-18 5 -34 5q-27 0 -52 -13q-53 -24 -88 -80q-37 -56 -37 -121q0 -43 61 -74q21 -12 26 -29t-10 -24.5t-50 0.5q-12 3 -38 23.5t-36 48.5 q-11 31 -11 64q0 27 8 57q17 64 64 124q73 90 163 90q20 0 40 -4q52 -11 94 -53q8 -8 14.5 -16.5t10.5 -16t7 -13t5 -10.5l2 -5q21 -51 29 -117q12 -123 14 -187q1 -21 1 -53q0 -63 -3 -166q-2 -54 -2 -105v-62q2 -78 11.5 -135t37.5 -81q14 -12 33 -12q18 0 41 12 q28 14 37 -10q3 -7 3 -14q0 -16 -15 -28q-12 -12 -33 -11q-22 -6 -42 -6q-67 0 -102 67q-36 -44 -107.5 -69.5t-148.5 -28.5h-22q-55 0 -99 12q-54 15 -75 52q-25 44 -25 92q0 33 12 69zM150 70q0 -23 12.5 -40.5t44.5 -37.5q32 -18 82 -19q7 0 14 -1q41 0 77 8q42 9 77 22 q67 24 88 90q-6 36 -6 76q0 24 2 49q3 47 3 83q0 12 1 25q0 24 -1 49q-1 37 -1 48v39q-70 -67 -144 -122.5t-122 -87.5t-64 -50q-36 -40 -49.5 -67t-13.5 -64z" />
<glyph unicode="b" horiz-adv-x="866" d="M34 1353l3 5q29 47 78 57q9 2 17 2q29 0 61 -18q41 -23 55 -76q28 -113 28 -178q0 -42 4 -113.5t5 -93.5v-51q3 -21 12 -21q7 0 25.5 18.5l48.5 48.5t59 50q26 18 53.5 25.5t60 0t58.5 -35.5q38 -41 80.5 -139t58.5 -164q20 -80 36 -180t16 -164q0 -94 -40.5 -197 t-88.5 -139q-91 -68 -205 -68q-126 0 -242 78q-29 -42 -70 -45q-33 -1 -45.5 12.5t-1.5 29t39 21.5q15 3 29 17q-34 32 -51 71q-6 15 -6 27q0 28 30 45q18 10 44 10q17 0 36 -4q5 28 7.5 61.5t4 86.5t3.5 88q2 83 2 108t-3.5 95t-3.5 71v189q0 39 -5.5 122t-6.5 99 q-8 213 -67 240q-25 10 -52 -15q-22 -20 -40 -20q-10 0 -18 6q-12 8 -12 21q0 8 4 17zM165 114q4 -10 11.5 -19t18.5 -17q11 25 18 59q-16 4 -27 4q-15 -1 -20 -9q-3 -4 -3 -9t2 -9zM244 47q108 -65 215 -65q70 0 123 28t96 101q57 95 57 251q0 102 -26 203q-1 5 -8.5 35.5 t-10.5 42.5t-10.5 34.5t-15.5 39.5q-3 7 -21 54.5t-33 79.5t-44 62.5t-60 30.5q-51 0 -109.5 -56.5t-83.5 -109.5q-16 -33 -20 -82q0 -12 1 -33.5t1 -29.5q1 -40 1 -74q0 -57 -3 -100q-11 -157 -12 -236q0 -11 -5 -61q12 -6 27 -15q18 -11 34 -29t19 -32q5 -29 -15.5 -36.5 t-35.5 18.5q-17 27 -39 43q-8 -32 -22 -64z" />
<glyph unicode="c" horiz-adv-x="686" d="M90 438q0 152 80 375q30 84 96.5 151.5t134.5 67.5q99 0 157 -69.5t58 -149.5q0 -21 -13 -35t-28 -14q-21 0 -24 33q-8 128 -86 157q-33 11 -53 11q-42 0 -79 -25t-61.5 -64.5t-40.5 -79.5t-24 -79q-6 -28 -16.5 -67.5t-17 -74t-13.5 -92.5q-2 -20 -2 -57 q4 -290 157 -391q57 -41 109 -41q83 0 131 115q17 41 45 41q25 0 25 -33q0 -78 -63 -134.5t-148 -56.5q-76 0 -139 47.5t-102.5 123t-61 164.5t-21.5 177z" />
<glyph unicode="d" horiz-adv-x="880" d="M90 326q0 64 15.5 165t35.5 179q15 65 58.5 163.5t81.5 139.5q26 28 58.5 35.5t60 0t53.5 -25.5q29 -20 59 -50l48.5 -48.5t25.5 -18.5q10 0 10 21q0 6 1 19t1 18v2v12q1 19 4.5 91.5t3.5 115.5q0 61 29 178q14 53 55 76q31 18 61 18q9 0 17 -2q49 -10 78 -57 q8 -12 8 -22q0 -11 -10 -19q-22 -19 -56 7l-6 5q-20 19 -38 19q-25 0 -44 -38q-31 -62 -36 -206q-1 -18 -7 -100t-6 -121q0 -20 0.5 -58t0.5 -70t-1 -61q-5 -139 -5 -214q0 -38 1 -60q2 -32 4 -116t8 -120q19 4 36 4q26 0 46 -10q31 -17 31 -45q0 -12 -6 -27 q-17 -40 -53 -71q14 -14 30 -17q28 -6 39 -21.5t-1.5 -29t-45.5 -12.5q-42 3 -71 45q-112 -78 -240 -78q-114 0 -205 68q-48 36 -88.5 139t-40.5 197zM147 362q0 -154 58 -251q43 -73 96 -101t123 -28q116 0 213 65q-17 37 -23 64q-19 -16 -36 -43q-15 -26 -36 -18.5 t-16 36.5q3 14 19.5 32t34.5 29q8 6 26 15q-4 20 -4 61q-1 79 -12 236q-3 42 -3 100q0 34 1 74q0 40 2 63q-3 39 -21 82q-25 53 -83 109.5t-109 56.5q-31 0 -60 -30.5t-44 -62.5t-33 -79.5t-21 -54.5q-8 -17 -15.5 -39.5t-10.5 -34.5t-10.5 -42.5t-8.5 -35.5 q-27 -105 -27 -203zM670 137q6 -27 16 -59q11 8 20 18q8 8 12 18q1 4 1 8q0 6 -3 10q-5 8 -20 9q-10 0 -26 -4z" />
<glyph unicode="e" horiz-adv-x="688" d="M12 667q4 19 19 33q27 27 73 27q11 0 23 -2q6 21 16.5 47t14.5 39q15 47 46.5 93t74.5 75q72 49 140 50q15 0 30 -3q74 -10 115.5 -65t41.5 -136q-1 -54 -37 -112.5t-88 -102.5q-107 -90 -243 -90q-44 0 -84 10q-1 -7 -2 -24t-2 -25q-5 -50 -5 -57q3 -138 58 -268 q17 -41 39 -70.5t63 -58.5q55 -37 115 -42q7 -1 14 -1q52 0 92 34q45 38 47 117q1 44 24 48q21 3 34 -30q6 -14 8 -32q1 -8 1 -16q0 -62 -47 -119q-53 -64 -153 -64q-43 0 -91.5 13t-78.5 36q-49 36 -71.5 64.5t-61.5 99.5q-40 71 -51 211q-5 50 -5 96q0 62 9 115 q-24 11 -42 27.5t-25 29.5q-7 8 -11 21q-3 7 -2 17q0 7 2 15zM66 640q10 -16 32 -26q1 2 2 6.5t2 6.5q10 40 11 47q-32 3 -44 -8q-7 -6 -7 -14q0 -5 4 -12zM162 592q22 -7 71 -10h16q105 0 187 71q31 26 57 64t36 63l10 25q5 20 5 39q0 29 -12 56q-20 45 -73 56q-22 5 -44 5 q-32 0 -60 -11q-48 -18 -80 -58t-53 -84t-32 -91q-2 -2 -2 -6l9 -2q18 -7 36.5 -22.5t24.5 -27.5q12 -29 -5.5 -41.5t-39.5 9.5q-13 13 -39 28q-1 -8 -6 -30t-6 -33z" />
<glyph unicode="f" horiz-adv-x="745" d="M82 715q2 36 90 41q25 2 57.5 3.5t40.5 2.5h6q-4 89 -6 133q-2 39 -2.5 67.5t2.5 58t5 43t9.5 53.5t10.5 59q20 110 106 192q74 70 207 70q81 0 139 -28.5t80 -76.5q11 -23 11 -46t-11 -46q-21 -47 -67 -82q-19 -14 -35 -14q-13 0 -25 9q-22 17 -8 43q9 16 33 28 q36 17 48.5 40t6.5 42t-24 34q-49 41 -152 41q-46 0 -86 -12q-57 -16 -100 -70q-57 -78 -72 -170q-13 -73 -13 -170q0 -25 1 -51q1 -25 2 -72t2 -69q11 2 33 5t32 5q9 2 61 13t77 12q31 4 45 0q13 -2 20 -16t-6 -29q-11 -11 -61 -15q-77 -4 -103 -6q-54 -3 -80 -8 q-2 -1 -8.5 -2t-9.5 -2q4 -125 4 -289q0 -73 -20 -241q-3 -32 -14 -70t-28.5 -77.5t-46.5 -64.5q-26 -22 -56 -22h-7q-30 2 -41 19.5t1.5 34.5t39.5 18q117 5 117 461q0 17 -6 221q-13 -2 -39.5 -6.5t-38.5 -6.5q-4 0 -33.5 -6.5t-46.5 -7.5q-41 -3 -41 27z" />
<glyph unicode="g" horiz-adv-x="817" d="M-104 -240q0 24 13.5 33.5t29 0.5t20.5 -32q14 -68 66 -116q39 -36 76 -52t104 -16q55 0 93.5 9.5t90.5 37.5q101 53 146 182q31 95 38 218q-97 -62 -217 -62q-113 0 -202 66q-49 36 -91.5 141.5t-42.5 198.5q0 149 54 342q17 64 60 152t83 128q36 36 81 52q37 13 69 13 h12q37 -3 65 -18q33 -18 65 -49.5t51 -54t26 -23.5q4 -2 8 7q9 50 27 86.5t36 51.5q13 10 24 10q4 0 7 -1q16 -7 16 -25q0 -24 -30 -69q-43 -65 -47 -205v-20q0 -34 2 -92.5t2 -98.5v-25q-1 -27 -3 -89t-3 -110q-1 -24 -1 -44.5t1 -38.5v-21q35 4 55 -2q33 -10 42 -38 q1 -7 1 -13q0 -23 -21 -51q-34 -40 -73 -64v-75q0 -67 -20 -142t-50 -123q-27 -43 -56.5 -74.5t-49.5 -43.5q-83 -59 -178 -77q-50 -9 -91 -9q-37 0 -67 8q-85 23 -153 88t-68 149zM82 403q0 -161 57 -256q43 -73 95 -100t122 -27q55 0 109.5 18t82.5 36l27 18v64 q-24 -17 -40 -43q-15 -26 -36 -18.5t-16 36.5q3 14 19.5 32.5t34.5 29.5q24 16 36 20q0 59 -4 227q-1 36 -1 70q0 105 7 205q0 45 -10 84q-17 63 -77.5 128.5t-120.5 65.5q-32 0 -63 -17t-52.5 -40t-43.5 -59t-34.5 -61t-26.5 -58q-27 -66 -43 -152q-22 -113 -22 -203z M627 119q8 8 14 12q29 23 29 38q0 3 -1 5q-4 6 -12 8q-5 1 -9 1q-11 0 -21 -5v-59z" />
<glyph unicode="h" horiz-adv-x="903" d="M122 -29q-5 7 -5 15q0 9 6 18q12 17 39 21q44 9 66 87q23 80 24 196v35q0 97 -4 193q-6 112 -14 221q-7 96 -7 130v8q1 45 3.5 165.5t5.5 188.5q2 54 9 97t16 67.5t20.5 40.5t20.5 21q8 4 14 4h3q17 0 22.5 -15.5t-7.5 -46.5q-21 -36 -27.5 -49t-14 -48.5t-9.5 -90.5 q-1 -19 -1 -40q0 -53 4 -125q5 -100 5 -134l2 -39q3 -17 10 -17t26.5 20.5t50.5 52.5t60 52q26 18 54 26.5t62 2t62 -32.5q40 -37 61 -129q19 -84 19 -161v-15v-82v-101.5v-99v-75.5v-39q0 -117 10 -175q12 -68 48 -95q25 -20 25 -37q0 -8 -5 -15q-14 -21 -46 -11 q-39 13 -58 67q-29 84 -29 335q0 27 -4 95.5t-4 130.5q1 14 3 62q2 34 1 60v19q-1 41 -7 80t-18.5 76t-35.5 59.5t-54 22.5q-51 0 -115 -67t-90 -122q-15 -35 -18 -63l14 -297q-1 -18 -7 -82t-11 -123q-2 -33 -10 -73.5t-22.5 -84.5t-41.5 -73t-61 -29q-30 2 -40 18z" />
<glyph unicode="i" horiz-adv-x="413" d="M60 -5q10 17 36 28q26 12 42 50t23.5 103.5t9.5 114.5t3 129v71v79q-2 53 -6.5 121.5t-7.5 127.5v26q0 38 4 70q6 43 16 68t23.5 42t24 23t18.5 7q11 0 18.5 -7t7 -23t-13.5 -38q-17 -29 -24 -45q-6 -17 -12 -48q-5 -26 -5 -62v-13q-1 -23 7 -149q4 -75 5 -150 q0 -49 -2 -98q-1 -25 -1 -89t-1 -116q-1 -35 -7 -75t-19 -84.5t-38 -73.5t-59 -29h-5q-26 0 -36 11q-6 6 -6 14q0 7 5 15zM162 1270v7q0 28 22 60q27 37 47 43q4 1 9 1q16 0 32 -19q10 -13 10 -32q0 -23 -16 -54q-12 -25 -34 -41q-13 -10 -26 -10q-8 0 -16 4q-25 11 -28 41z " />
<glyph unicode="j" horiz-adv-x="536" d="M-241 -373q-8 22 -8 49q0 29 9 62q18 64 76 125q28 29 54 19q22 -10 10 -36l-6 -10q-40 -56 -58 -96q-16 -38 -16 -62q0 -26 14 -51q33 -56 101 -56q7 0 14 1q41 3 78 22l12 7q58 31 100 89t64 132.5t31.5 149.5t9.5 157q0 68 -6 192q-5 106 -5 157v16q4 220 17 344 q5 54 15 96.5t20.5 66.5t23 39.5t22 20.5t17.5 4q11 -1 18 -9q4 -6 4 -17v-8q-2 -17 -16 -40q-24 -34 -34 -69t-17 -113q-4 -42 -4 -112q0 -21 1 -45v-77q0 -44 -1 -69q-4 -39 -4 -105q0 -62 3 -146q5 -108 5 -180q0 -45 -2 -75q-5 -104 -49 -227q-19 -51 -59.5 -108.5 t-86.5 -90.5q-55 -40 -116 -53q-36 -8 -67 -8q-21 0 -39 4q-45 9 -72 32q-37 31 -53 78zM257 1270v7q0 28 22 60q27 36 47 43q4 1 9 1q15 0 32 -19q10 -13 10 -30q0 -24 -17 -56q-12 -25 -33 -41q-13 -10 -26 -10l-16 4q-25 11 -28 41z" />
<glyph unicode="k" horiz-adv-x="858" d="M43 1354l2 4q29 47 78 57q9 2 17 2q29 0 61 -18q41 -23 55 -76q29 -117 29 -178q0 -43 3.5 -115.5t4.5 -91.5q0 -29 3 -96.5t3 -77.5q22 -3 68 -25q10 -6 34 -22q10 6 19 13.5t14.5 13t22 23.5t28.5 30q37 40 67.5 102t31.5 111q1 35 27 46q22 10 31 -14q5 -12 3 -30 q-7 -78 -63 -170q-52 -83 -140 -156q44 -41 74 -80q47 -62 73 -111.5t50 -140.5q19 -73 27 -133q6 -41 19 -83t41 -80t62 -38q25 0 37 -16q6 -9 6 -18q0 -8 -5 -15q-11 -16 -40 -16q-98 0 -145 137q-17 48 -38.5 162t-45.5 176q-23 61 -46 98.5t-62 79.5q-29 29 -50 47 q-51 -26 -96 -32q1 -38 1 -70q0 -54 -3 -94q-11 -157 -12 -236q-2 -108 -40.5 -187.5t-92.5 -80.5h-4q-29 1 -42 13q-13 14 -2 29t39 21q35 8 52.5 50t29.5 110q5 29 7.5 64t4 88.5t3.5 89.5q2 38 2 88t-2 110h-5q-67 0 -92 48q-7 12 -7 24q0 25 28 53q24 24 70 27 q0 18 1 56t1 57q0 39 -6 121t-7 100q-8 215 -67 243q-24 11 -51 -14q-23 -21 -42 -21q-9 0 -17 5q-12 8 -12 20q0 8 5 17zM203 674q7 -7 23 -7q6 0 14 1v26q0 5 -1 15.5t-1 15.5q-26 -2 -38 -13q-9 -9 -9 -18q0 -15 12 -20zM301 678q26 4 49 14q-1 1 -4 3t-4 3 q-22 13 -41 19v-39z" />
<glyph unicode="l" horiz-adv-x="501" d="M161 1464q6 16 23 17q8 0 17 -5.5t20 -21.5t20.5 -41t17 -67.5t9.5 -96.5q3 -67 4.5 -185.5t3.5 -168.5v-8q0 -35 -6 -130q-8 -108 -13 -220q-4 -80 -4 -162q0 -33 1 -66q2 -116 25.5 -194t68.5 -86q26 -5 38 -22q6 -9 6 -17t-5 -16q-11 -16 -41 -17h-2q-32 1 -58 27 q-26 28 -41.5 73t-23.5 83t-12 75q-3 55 -9 118.5t-7 86.5l22 508v16q-1 40 3 122q3 68 4 119q0 23 -1 42q-2 55 -9.5 90.5t-14.5 49t-29 50.5q-9 21 -9 35q0 7 2 12z" />
<glyph unicode="m" horiz-adv-x="1163" d="M81 936q8 16 25 33q22 22 46 35.5t49.5 14.5t45.5 -15q19 -14 31 -58q9 -34 10 -85q0 -13 -1 -27q-1 -10 -1 -28q0 -36 3 -106v-38l-6 256q1 -5 2 -11t1 -9.5t1 -8t1.5 -7t2 -4.5t3 -3t3.5 -1q6 0 24 20.5t49 52.5t60 52q28 20 44 27q9 4 20 4q9 0 21 -3q24 -6 52 -32 q33 -30 56 -108q2 -7 5 -10.5t7 -2.5q5 1 22.5 22t46.5 52t58 51q28 20 44 27q9 4 20 4q9 0 21 -3q24 -6 52 -32q40 -37 61 -129q19 -84 19 -161v-15q0 -36 -0.5 -82t0.5 -101.5t1 -99t-1 -75.5v-40q0 -116 10 -174q12 -68 47 -95q25 -20 25 -37q0 -8 -5 -15 q-14 -21 -46 -11q-39 13 -58 67q-28 81 -28 335q0 27 -4.5 95.5t-4.5 130.5q0 16 3 63q2 35 2 61v17q-1 42 -6 81t-15.5 77.5t-30.5 60.5t-47 19q-48 -5 -111 -79t-63 -130v-60v-8q1 -19 -1 -185q0 -55 -1 -93q0 -75 2 -80q8 -252 15 -299q2 -11 4 -21q3 -14 3 -25 q0 -25 -17 -33q-5 -2 -10 -2q-16 0 -30 22q-11 17 -16 42q-7 40 -8 102v37q0 47 2 105q2 80 2 102q0 27 -3 95.5t-3 130.5q0 12 2 60q1 29 0 53v28q-1 41 -6 80t-15.5 78t-30.5 61t-47 19q-44 -4 -104.5 -74t-79.5 -125q-16 -47 -16 -68q8 -144 8 -278q0 -101 -2 -205 q-1 -35 -7 -75t-19 -84.5t-38 -73.5t-59 -29q-30 -1 -41 11t-1 29t36 28q26 12 42 50t23.5 103.5t9.5 114.5t3 129v60q0 55 -1 91q-2 54 -6.5 120.5t-7.5 127.5q-2 45 -8 71.5t-13 36.5t-18.5 6.5t-19.5 -10t-22 -21t-19 -19.5q-16 -15 -38 -1q-17 10 -17 28q0 12 7 26z M618 895v6v-6z" />
<glyph unicode="n" horiz-adv-x="864" d="M73 936q8 16 25 33q24 24 52 37t55.5 11.5t47 -33t23.5 -91.5q3 -19 13 -19q6 0 24 20.5t49 52.5t60 52q26 19 54 27q16 5 34 4q14 0 28 -2q34 -6 62 -33q40 -37 61 -129q19 -84 19 -161v-15v-82v-101.5v-99v-75.5v-40q0 -116 10 -174q12 -68 47 -95q25 -20 25 -37 q0 -8 -5 -15q-14 -21 -46 -11q-39 13 -58 67q-28 81 -28 335q0 27 -4.5 95.5t-4.5 130.5q0 16 3 63q2 35 2 61v17q-1 41 -7 80t-18.5 76t-35.5 59.5t-54 22.5q-53 0 -121 -71t-88 -128q-16 -47 -16 -68q8 -144 8 -278q0 -101 -2 -205q-1 -35 -7 -75t-19 -84.5t-38 -73.5 t-59 -29h-5q-26 0 -36 11q-11 12 -1 29t36 28q26 12 42 50t23.5 103.5t9.5 114.5t3 129v60q0 55 -1 91q-2 54 -6.5 120.5t-7.5 127.5q-2 45 -8 71.5t-13 36.5t-18.5 6.5t-19.5 -10t-22 -21t-19 -19.5q-16 -15 -38 -1q-17 10 -17 28q0 12 7 26z" />
<glyph unicode="o" horiz-adv-x="864" d="M82 395q0 151 50.5 315t135.5 283q30 41 62.5 64t61.5 27q13 2 24 1q15 -1 27 -3q22 -4 42 -15q14 -8 26.5 -16.5t18.5 -14t15 -14t12 -10.5q27 -21 57 -72q47 -76 88 -182q27 -68 41.5 -110.5t27.5 -102t13 -111.5q0 -168 -71 -268q-23 -33 -38 -47t-48 -33 q-55 -30 -118 -30h-3q-64 0 -131 28q-47 19 -44 49q1 21 26 27q19 4 40 -6q69 -31 103 -33q3 0 7 -1q87 0 153 76q68 78 69 226q0 127 -82 326q-30 75 -75.5 147.5t-84.5 103.5q-26 20 -55 23t-55.5 -10.5t-48.5 -33.5t-41 -46q-27 -39 -47 -82t-28 -68t-19 -67 q-1 -4 -14 -49t-16.5 -61.5t-11.5 -55.5t-11 -74.5t-3 -75.5q0 -84 20 -143.5t62 -120.5q37 -53 69 -70.5t95 -27.5q44 -6 56 -37q11 -26 -16 -37q-10 -4 -24 -4h-6q-66 2 -153 72q-61 48 -101 121q-57 109 -57 243z" />
<glyph unicode="p" horiz-adv-x="897" d="M57 -397q-8 12 -8 22q0 11 9 19q21 19 55 -8q3 -2 6 -5q20 -17 37 -17q26 0 46 38q31 63 34 209q0 21 3.5 76.5t4.5 78.5q-50 43 -58 52q-43 47 -43 96q0 28 29 43q22 11 54 11q8 0 16 -1v53q0 13 2 74t2 123t-4 111q-3 37 -5 89.5t-5 87.5t-9 64q-26 145 -84 158 q-28 6 -39 21.5t1.5 28.5t45.5 13q30 0 58 -29t47 -77q0 -1 1 -2t1 -2q28 -76 31 -156q0 -39 2 -55q-1 -10 -1 -20.5v-17t-1 -9.5l-39 278q1 -3 3 -8t3 -8q0 -1 1 -2t1 -2q4 -11 8.5 -17.5t11.5 -3.5q7 2 29.5 28t58 61.5t70.5 56.5q30 22 74 22h8q49 -2 90 -39 q112 -103 164 -305q19 -73 33 -174t14 -180q0 -109 -41.5 -215.5t-91.5 -143.5q-39 -28 -95 -45.5t-112 -17.5q-106 0 -178 35q-4 -114 -4 -178q0 -70 -25 -172q-11 -47 -46 -72t-70 -25q-27 0 -53.5 16.5t-41.5 41.5zM202 132q16 -26 44 -44q0 14 -1 39t-1 39q-16 4 -27 4 q-24 0 -24 -15q0 -9 9 -23zM287 719q2 -42 6 -95.5t6 -84.5q6 -177 6 -207q-4 -74 -4 -131q2 -1 14 -8.5t19 -12.5q21 -15 36.5 -36t14.5 -38q-2 -25 -20.5 -28.5t-30.5 20.5q-20 29 -35 37v-78q80 -41 170 -41q153 0 229 125q56 94 60 252q0 114 -23 236q-3 13 -7 35 t-5.5 29.5t-5 22.5t-6.5 24t-7 22.5t-10 28.5q-9 25 -24.5 57t-40 72.5t-57 67t-64.5 26.5q-51 0 -105 -55t-86 -115q-30 -56 -30 -125z" />
<glyph unicode="q" horiz-adv-x="886" d="M82 379q0 77 10.5 160t33 174t66 173.5t101.5 135.5q42 39 94 39q41 0 85 -26.5t73.5 -57.5t52.5 -57.5t27 -26.5q5 0 9 6.5t9 17.5t8 17q34 90 99 90q51 0 51 -29q0 -25 -43 -34q-65 -16 -86 -142.5t-21 -369.5q0 -42 2 -103.5t2 -75.5v-53q35 4 56 -2q31 -10 40 -39 q3 -8 3 -18q0 -23 -15 -52q-27 -46 -88 -92q3 -291 47 -366q42 -68 129 -68q48 0 84.5 38.5t36.5 80.5q0 55 -71 154q-11 14 -11 26q0 11 7 18t18 7q36 0 65.5 -43t41.5 -86t12 -64q0 -82 -53 -137t-134 -55q-52 0 -101.5 25.5t-78.5 74.5q-39 61 -39 195q0 58 -4 180 q-64 -37 -178 -37q-56 0 -113 17.5t-94 45.5q-50 37 -91.5 143.5t-41.5 215.5zM139 393q4 -189 86.5 -283t202.5 -94q97 0 170 43q0 12 -1 37t-1 39q-8 -6 -19.5 -21t-21.5 -25.5t-18 -10.5q-10 0 -17.5 7.5t-7.5 20.5q0 26 28.5 54t53.5 41q-2 55 -2 161q0 27 1 50.5 t2.5 49.5t2.5 44q0 109 10 219q-9 62 -28 102q-32 60 -86 115t-105 55q-32 0 -64.5 -26.5t-57 -67t-40 -72.5t-24.5 -57q-64 -176 -64 -381zM651 88q2 2 9 7t12 9q21 16 29 37q3 7 3 12q0 11 -12 15q-6 1 -12 1q-14 0 -29 -5v-76z" />
<glyph unicode="r" horiz-adv-x="782" d="M77 984q8 15 25 32q22 22 46 35t49.5 13.5t45.5 -15.5q19 -16 31 -60q9 -35 10 -85q0 -13 -1 -27t-1 -34q0 -47 5 -128q0 -2 -1 -5t-1 -5l-6 256q6 -38 9 -41q2 -2 5 -2q6 0 24 20.5t49 52t60 51.5q36 25 74 31l22 2q85 0 158 -92q47 -59 64 -124q8 -30 8 -58 q0 -33 -11 -64q-11 -28 -34.5 -48.5t-38.5 -24.5q-35 -8 -50.5 0t-10.5 25.5t26 29.5q61 31 61 74q0 50 -35 122q-13 27 -22.5 38.5t-32.5 31.5q-40 32 -82 32q-7 0 -14 -1q-52 -7 -118.5 -79t-88.5 -126q-10 -26 -13 -42.5t-2 -32t1 -21.5q6 -246 6 -293q0 -101 -2 -205 q-1 -35 -7 -75t-19 -84.5t-38 -73.5t-59 -29h-5q-26 0 -36 11q-11 12 -1 29t36 28q62 28 71 254q2 40 3 143v73v87q-2 62 -7.5 146t-7.5 136q-2 39 -6 65t-10.5 37.5t-12.5 16.5t-16.5 -1t-16.5 -11t-17.5 -17t-16.5 -16q-16 -15 -38 -3q-18 9 -18 26q0 11 8 25z" />
<glyph unicode="s" horiz-adv-x="628" d="M83 80q-12 31 -12 65q0 55 31 119q20 39 50 39h2q22 -1 24 -23q2 -15 -10 -34q-28 -46 -28 -93q0 -43 24 -77q25 -34 49.5 -49.5t69.5 -22.5q18 -3 34 -3q41 0 70 19q47 33 67.5 76t28.5 117v26q0 70 -14 113q-16 46 -59 86q-16 14 -37 27.5t-34 20.5l-13 6 q-82 36 -133 73q-89 66 -89 178q0 84 22 139t73 101q45 42 81 51q23 6 50 6q15 0 32 -2q44 -5 86.5 -45t47.5 -104q2 -24 -12 -36t-30.5 -4t-21.5 32q-8 40 -23 61t-47 33q-19 11 -57 2t-67 -43q-39 -45 -56.5 -89.5t-17.5 -101.5q0 -44 16 -75.5t56 -59.5q19 -14 41.5 -26 t35.5 -18l13 -5q65 -32 94 -52t55 -46q36 -37 56 -103q17 -55 16 -120v-27q-3 -68 -35 -139t-88 -105q-44 -26 -110 -27h-6q-62 0 -101 19q-93 41 -124 121z" />
<glyph unicode="t" horiz-adv-x="692" d="M10 715q2 36 90 41q25 2 58 3.5t41 2.5h12q0 117 -4 174q-2 20 -2 62q-1 34 1 84q1 32 1 60q0 64 -4 97q-7 78 -17 113t-34 69q-14 23 -16 40t4.5 25t17.5 9h3q7 0 15 -4q10 -5 22 -20.5t22.5 -39.5t20.5 -66.5t15 -96.5q11 -112 16 -344q0 -44 -4 -154q42 4 64 8 q10 2 61 13t76 12q31 4 45 0q13 -2 20 -16t-6 -29q-11 -11 -61 -15q-75 -4 -102 -6q-54 -3 -80 -8q-2 -1 -9 -2t-10 -2q-4 -106 -4 -166q0 -44 -5 -121q-5 -78 -6 -128v-14q0 -44 5 -94q6 -58 30.5 -100.5t67.5 -68.5q55 -28 101 -31q7 -1 14 -1q68 0 100 56q15 24 15 49 t-17 64q-17 40 -57 96q-21 29 -1 43q20 15 49 -8q5 -3 9 -8q57 -61 75 -125q9 -34 10 -62q0 -26 -8 -48q-16 -47 -52 -78q-28 -24 -70 -34q-21 -5 -46 -5q-26 0 -56 6q-60 11 -115 49q-74 45 -92 143q-7 33 -9 79q-1 26 -1 63q1 27 1 61q2 78 1 88q0 3 6 285q-16 -2 -45 -7 t-35 -6q-4 0 -33.5 -6.5t-46.5 -7.5q-41 -3 -41 27z" />
<glyph unicode="u" horiz-adv-x="813" d="M107 1033q14 21 46 11q39 -13 58 -67q6 -17 10.5 -39.5t7 -52.5t4.5 -52t2.5 -59t0.5 -52.5v-53v-41.5q0 -27 4 -99.5t4 -134.5q0 -14 -0.5 -41t-0.5 -51.5t1 -48.5q1 -41 7 -80t18.5 -76t35 -59.5t53.5 -22.5q53 0 121 71t88 128q15 52 15 66q-7 133 -7 236v44 q0 57 3 213q1 36 7 77.5t18.5 89.5t37.5 79t59 31h5q27 0 37 -11q12 -12 1.5 -29t-36.5 -28q-25 -12 -41.5 -53t-24 -112t-9.5 -122t-3 -133v-71q1 -48 1 -79q2 -53 6 -121.5t7 -127.5q2 -45 8 -71.5t13 -36.5t18.5 -6.5t19.5 10t22 21t19 19.5q16 15 38 1q17 -10 17 -28 q0 -11 -7 -26q-8 -16 -25 -33q-24 -24 -52 -37t-56 -11.5t-48 33t-24 91.5q-4 18 -11 18q-6 0 -24 -20.5t-49 -52t-60 -51.5q-26 -18 -54 -26q-16 -5 -34 -5q-14 1 -28 3q-34 6 -62 32q-40 36 -61 128q-19 84 -19 162v15v83v104.5v102v76.5v40q0 119 -10 183q-12 74 -47 101 q-25 20 -25 37q0 8 5 15z" />
<glyph unicode="v" horiz-adv-x="960" d="M38 998q7 18 28 36q13 10 31 16q9 3 21 3q10 0 21 -2q24 -5 47 -22t47.5 -57.5t42.5 -99.5q38 -122 62 -232.5t49 -205.5q12 -45 34.5 -148t40.5 -164t36 -83q6 -8 18 4q17 36 51 150q8 26 16 66.5t13 70.5t12.5 77.5t9.5 61.5q10 60 19.5 122.5t13.5 87.5t13.5 70 t25.5 111q15 60 38 101.5t46.5 59.5t48.5 23.5t44 0t32 -16.5q33 -29 33 -53q0 -9 -5 -18q-12 -20 -35 -14q-9 2 -15 9q-22 23 -42 23q-17 0 -31 -14q-34 -31 -56 -115q-18 -67 -32.5 -170t-37.5 -213q-3 -14 -11 -58.5t-17.5 -94t-20.5 -99.5q-52 -251 -111 -268 q-6 -2 -11 -1.5t-9 1.5h-6q-28 8 -49.5 52t-43 126t-24.5 90q-16 49 -27.5 97.5t-19.5 92.5t-11 58q-66 267 -100 397q-23 82 -57 112q-14 13 -29 13q-21 0 -43 -23q-16 -19 -38 -6q-17 10 -17 26q0 9 5 20z" />
<glyph unicode="w" horiz-adv-x="1255" d="M38 998q7 18 28 36q13 10 30 16q9 3 19 3t21 -2q23 -5 46 -22.5t48 -57.5t46 -99q25 -71 39.5 -120t20.5 -75.5t21.5 -103t29.5 -139.5q15 -65 29.5 -158.5t25 -150t21.5 -72.5q2 -4 4.5 -5t4.5 0.5t3 4.5q6 14 11 35.5t11 59.5t11 61q37 169 47 256q13 115 47 223 q7 21 19 27q1 1 4 2t4 2q9 3 16 -4q13 -6 23 -27q11 -30 18.5 -60t11 -46.5t9 -56t8.5 -56.5q28 -172 47 -260q5 -24 10.5 -62.5t10.5 -60.5t12 -37q4 -7 12 4q11 16 21.5 72.5t25 150t29.5 158.5q15 69 28.5 139t19.5 96.5t19.5 73.5t38.5 117q21 59 46 99t48 57.5 t46.5 22.5t40.5 -0.5t30 -16.5q33 -29 33 -53q0 -9 -5 -18q-12 -20 -35 -14q-9 2 -15 9q-22 23 -43 23q-15 -1 -29 -13q-34 -30 -57 -112q-8 -31 -25.5 -93.5t-28 -101.5t-25.5 -109.5t-28 -148.5q-18 -108 -37 -192q-6 -25 -14 -69t-13.5 -68.5t-15 -53.5t-22.5 -44.5 t-31 -20.5h-10q-4 -2 -8.5 -1.5t-8.5 1.5q-26 7 -40.5 50.5t-26 126t-13.5 91.5q-11 50 -19.5 104.5t-15 106t-8.5 63.5q-3 20 -7 41.5t-5 26.5q-3 19 -9 19q-5 0 -9 -11q-4 -12 -13 -76q-28 -180 -49 -274q-2 -9 -13.5 -91.5t-26 -126t-40.5 -50.5q-5 -2 -9 -1.5t-7 1.5 h-10q-18 5 -31 20.5t-22.5 44.5t-15 53.5t-13.5 68.5t-14 69q-14 61 -28.5 151t-19.5 109q-66 267 -100 397q-23 82 -57 112q-14 13 -29 13q-21 0 -43 -23q-16 -19 -38 -6q-17 10 -17 26q0 9 5 20z" />
<glyph unicode="x" horiz-adv-x="751" d="M49 1030q15 15 41 20.5t59.5 -2t71 -49t66.5 -112.5q52 -128 78 -221q25 87 79 217q66 160 152 170q8 1 14 1q33 0 41 -21q7 -21 -17 -34l-11 -4q-45 -12 -63.5 -34.5t-49.5 -98.5q-49 -118 -113 -311q1 -3 35 -113q87 -276 132 -364q38 -72 66 -72q9 0 17 8q29 29 46 9 q8 -10 8 -23q0 -12 -7 -26q-16 -30 -55 -40q-31 -8 -59 11t-49 58t-36 75.5t-30 80.5t-21 58q-18 40 -33 87.5t-27.5 95.5t-16.5 61q-4 -13 -17 -61t-29 -97t-34 -90q-5 -11 -22 -54.5t-31.5 -75.5t-35.5 -70.5t-46 -60t-50 -22.5h-6q-46 0 -62 29q-14 24 7 39q14 10 37 8 q19 -2 38.5 13.5t37 46t33.5 65.5t32 80.5t28 83t26 81.5t22 68q21 58 39 115q-56 168 -113 311q-47 113 -95 119h-5q-26 0 -45 -37q-15 -31 -40 -23q-22 7 -22 34q0 34 35 71z" />
<glyph unicode="y" horiz-adv-x="966" d="M-50 -373q-8 22 -8 48q0 29 10 63q17 64 75 125q27 29 53 19q22 -9 11 -35q-3 -5 -7 -11q-40 -56 -57 -96q-17 -39 -17 -64t15 -49q33 -56 100 -56q7 0 14 1q41 3 78 22l12 7q43 23 80 65t66.5 100.5t51 112.5t44.5 125q4 15 4 33q0 24 -7 51q-11 49 -46 141 q-2 6 -92 250q-61 156 -156 387q-46 110 -94 120q-4 1 -9 1q-25 0 -44 -37q-15 -30 -40 -24q-23 7 -22 36q1 32 35 68q12 12 29.5 18.5t42 4t50 -17t54 -52.5t51.5 -96q33 -80 76 -194.5t98 -241.5q27 -63 107 -273q8 -22 20 2q50 156 82 273q9 32 44 174.5t55 210.5 q21 74 47.5 123.5t50 70.5t47.5 27q14 3 25 3q9 0 17 -2q17 -5 30 -16q22 -19 22 -35q0 -7 -4 -13q-14 -22 -51 -13q-7 3 -14 3q-21 0 -43 -27q-31 -37 -49 -79.5t-25 -70.5q-10 -37 -84 -317q-79 -295 -129 -453q-22 -71 -60.5 -158t-46.5 -108q-16 -44 -52 -98t-77 -89 q-2 0 -6 -4q-1 -1 -4.5 -3.5t-5.5 -4.5q-56 -40 -117 -53q-36 -8 -67 -8q-21 0 -39 4q-45 9 -72 32q-37 31 -52 78zM532 190l5 15q-1 -2 -2 -5t-2 -5t-1 -5z" />
<glyph unicode="z" horiz-adv-x="634" d="M18 883q-10 19 -10 39q0 39 39 77q17 17 37 25t36.5 9.5t56 2.5t69.5 4q37 4 97 5h23q46 0 83 -3q81 -3 102 -38q0 -5 2 -5q0 -2 1 -4.5t1 -3.5q1 -4 1 -10q0 -58 -89 -227q-28 -51 -68 -137t-82 -162q-24 -43 -51.5 -97.5t-54.5 -105.5q-8 -15 -20.5 -36.5t-22.5 -37.5 t-20.5 -34.5t-15.5 -32t-7.5 -25.5t3 -18.5t17.5 -8.5q40 -8 66 -8q65 0 96 -2q40 -2 72 -2q39 0 65 3q48 6 86 36q24 19 43 19q11 0 21 -7q12 -8 12 -20q0 -9 -6 -19l-2 -4q-29 -50 -102 -59q-46 -6 -70.5 -7.5t-57.5 -0.5t-63 0h-38h-25h-20q-16 0 -40.5 1t-45.5 3.5 t-40 7.5q-55 8 -55 41v4q3 45 65 148q105 173 146.5 253.5t169.5 352.5q9 20 21.5 44t19.5 37t13.5 28.5t6.5 24t-4 17.5t-14.5 15.5t-28.5 11.5q-22 4 -45.5 5.5t-38.5 1.5t-51.5 -1.5t-56.5 -1.5q-52 -1 -72.5 -2.5t-47 -9t-40.5 -23.5q-12 -23 -6 -31.5t18 -24.5t10 -32 q-2 -13 -18 -18t-37 5.5t-33 37.5z" />
<glyph unicode="{" horiz-adv-x="565" d="M66 723q-10 38 12.5 72t85.5 30q42 -3 86 -43q0 2 2 4q21 34 32 98.5t5 139.5q-13 194 12 293q20 76 51 105t78 40q20 4 37.5 1t26 -13t10.5 -21.5t-9.5 -24t-33.5 -20.5q-26 -10 -36 -14.5t-27 -16t-25.5 -30t-12.5 -45.5q-16 -104 -12 -170q8 -129 4 -180 q-12 -124 -67 -191q4 -7 16 -37q9 -36 12 -61t4.5 -60.5t4.5 -62.5q4 -47 5.5 -83.5t1.5 -76t1 -59.5q3 -109 13 -158t36 -73q20 -19 41 -24t67 1q33 5 44 -21q11 -28 -17 -48q-23 -17 -65 -17q-65 0 -109.5 31t-52.5 98q-6 53 -8 104.5t-7 98.5q-4 42 -5.5 108.5 t-4.5 102.5q-2 23 -3.5 66t-4.5 70t-10 44q-4 8 -6 14q-53 -36 -115 -24q-44 8 -57 53zM125 739q5 -23 30 -22t54 22q-37 43 -67 35q-20 -7 -17 -35z" />
<glyph unicode="|" horiz-adv-x="677" d="M287.5 1023.5q0.5 21.5 2 69t1.5 50.5q1 24 -0.5 80.5t-1 104t5.5 75.5q8 42 30 47q17 3 27 -26q5 -18 6 -42q1 -72 0.5 -110.5t-3 -121.5t-3.5 -130q-2 -135 -2 -256q0 -135 4 -195q3 -54 2.5 -148t1.5 -132q1 -23 6.5 -96t6 -103t-1.5 -84q-4 -29 -15.5 -39t-23.5 -3 t-19 22q-10 21 -12.5 63t0.5 137q3 45 0.5 111t-2.5 143q0 49 1 133t0.5 138.5t-5.5 128.5q-4 58 -5 110t-0.5 73.5z" />
<glyph unicode="}" horiz-adv-x="565" d="M35 -6q-11 26 10 42q14 10 33 7q46 -6 67 -1t41 24q26 25 36.5 74t13.5 157q1 20 1 59.5t1.5 76t5.5 83.5q3 28 4 62.5t4 60t12 61.5q1 4 15 37q-57 70 -66 191q-4 51 4 180q4 66 -12 170q-4 27 -12.5 45.5t-25.5 30t-27 16t-36 14.5q-22 8 -33.5 20.5t-9.5 24t10.5 21.5 t26 13t37.5 -1q23 -5 38.5 -12t33.5 -22t32.5 -42.5t24.5 -68.5q25 -99 12 -293q-6 -75 5 -139.5t32 -98.5v-4q44 40 88 43q63 4 86 -30t13 -72q-13 -45 -58 -53q-63 -12 -114 24q-2 -6 -6 -14q-7 -18 -10 -44t-5 -70.5t-4 -65.5q-3 -36 -4.5 -102.5t-5.5 -108.5 q-5 -48 -6.5 -99t-7.5 -104q-8 -67 -52.5 -98t-109.5 -31q-66 0 -82 37zM356 739q29 -21 54 -22t30 22q4 31 -20 36q-31 4 -64 -36z" />
<glyph unicode="~" horiz-adv-x="1198" d="M104 474.5q-1 13.5 14 31.5t46 31q20 9 62.5 32t75 34t69.5 11q25 0 51 -6.5t57 -18t49 -16.5q84 -24 117 -34q159 -53 318 39q47 27 87.5 34t45.5 -20q0 -18 -20.5 -33.5t-74.5 -38.5q-83 -36 -124 -47q-48 -14 -91.5 -15.5t-70.5 4t-70 17.5q-24 8 -85 31t-120 35 q-29 6 -45 8.5t-49.5 -2.5t-62.5 -23q-56 -29 -70 -39q-32 -24 -52.5 -31.5t-43.5 -0.5q-12 4 -13 17.5z" />
<glyph unicode="&#xa1;" horiz-adv-x="440" d="M99.5 677q6.5 17 25.5 17q8 -1 19 -6.5t25.5 -22t25.5 -40.5t17.5 -66.5t4.5 -95.5q-3 -57 -8 -136.5t-7 -142t-1 -159.5q1 -60 1.5 -85.5t3 -81t7 -84t12.5 -65t21 -56.5t30 -28q26 -11 35.5 -28t-2 -29.5t-41.5 -11.5q-34 0 -59 29t-38 73.5t-19 84.5t-7 75 q-1 52 -1 116t-1 89q-5 123 3 269.5t8 166.5q1 44 -5.5 75.5t-13 45t-24.5 45.5q-18 35 -11.5 52zM104 963q37 45 89 -25q25 -36 21.5 -67t-28.5 -42q-21 -10 -42 6t-33 42q-30 57 -7 86z" />
<glyph unicode="&#xa2;" horiz-adv-x="686" d="M90 438q0 152 80 375q23 63 68 119.5t98 83.5q0 115 12 162q8 30 25.5 39.5t31.5 -7.5t13 -53v-127q91 -6 144.5 -73.5t53.5 -143.5q0 -21 -13 -35t-28 -14q-21 0 -24 33q-8 128 -86 157q-40 10 -47 11q0 -79 -6 -170q-5 -64 -6 -107.5t0.5 -86t1.5 -62.5q0 -135 4 -195 q3 -47 1.5 -148.5t2.5 -132.5q2 -24 6 -69h2q83 0 131 115q17 41 45 41q25 0 25 -33q0 -74 -59.5 -130t-139.5 -61q4 -99 -4 -143q-4 -22 -13 -34t-19 -12.5t-19.5 6t-14.5 17.5q-17 32 -14 179q-79 25 -138 107.5t-86.5 184.5t-27.5 207zM158 426q4 -290 157 -391 q19 -15 29 -19q0 15 -1 69.5t-1 129.5q0 49 1 132.5t0.5 138t-5.5 128.5q-4 58 -5 110.5t-0.5 73.5t2 69.5t1.5 50.5v22q-50 -32 -83.5 -96t-45.5 -127q-6 -28 -16.5 -67.5t-17 -74t-13.5 -92.5q-2 -20 -2 -57z" />
<glyph unicode="&#xa3;" horiz-adv-x="995" d="M82 932q3 21 28.5 32t55.5 11h94q1 61 7 107.5t22.5 102.5t53 108t91.5 98q69 59 167 76t149 3q77 -20 128.5 -84t51.5 -139q0 -35 -26 -46q-24 -11 -35 13q-4 8 -5 19q-4 51 -21.5 87t-70.5 69q-64 32 -156 10t-145 -68q-113 -99 -141 -215q-19 -72 -19 -139q15 0 97 4 q22 1 69 7.5t70 6.5q25 0 45 -8q6 -2 12 -9t8 -16.5t-10 -19.5t-61 -10h-185q-17 0 -45 -4v-2l27 -500q0 -65 -6 -221q-1 -23 0 -96.5t0 -108.5q2 -35 30 -43q20 -6 80 -6q25 0 88.5 6t102.5 4q134 -7 237 55q48 29 72 9q20 -15 2 -43q-29 -47 -110 -56q-112 -22 -185 -22 q-29 0 -188 -8q-5 0 -26 -2t-34.5 -2t-33.5 0.5t-37 4.5t-31 11q-37 18 -20 194q10 108 -5 421t-14 372v25q-7 -1 -26.5 -3.5t-30.5 -3.5q-80 -10 -82 -10q-39 0 -39 29z" />
<glyph unicode="&#xa4;" horiz-adv-x="811" d="M23 248q-1 6 2.5 14t7 13t11 14t9.5 12q12 13 45.5 44.5t46.5 47.5q-30 50 -42.5 115.5t-9.5 124t16 110.5q24 107 81 179q-6 8 -19.5 23.5t-23.5 27.5q-13 16 -47 48t-47 46q-2 3 -9.5 12t-11 14t-7 13t-2.5 14q0 16 10.5 23.5t23.5 5.5q30 -7 47 -31q54 -62 67.5 -76.5 t33.5 -37.5l35 -35q67 57 159 57q105 0 172 -57l35 35q20 23 33.5 37.5t67.5 76.5q17 24 47 31q13 2 23.5 -5.5t10.5 -23.5q1 -6 -2.5 -14t-7 -13t-11 -14t-9.5 -12q-13 -14 -47 -46t-47 -48q-41 -45 -48 -55q28 -43 46 -89q39 -93 26 -202t-80 -168q11 -15 56 -64 q13 -16 47 -48t47 -46q2 -3 9.5 -12t11 -14t7 -13t2.5 -14q0 -16 -10.5 -23.5t-23.5 -5.5q-30 7 -47 31q-54 62 -67.5 77t-33.5 38q-16 14 -59 57q-40 -14 -78 -14q-64 -2 -85 31q-16 26 10 45q19 14 55 14q69 0 116 55.5t47 126.5q0 112 -56.5 188t-145.5 76 q-126 0 -189 -133q-50 -109 -45 -223.5t60 -167.5q32 -31 69 -45.5t70 -13t69 5.5q66 9 86 -18q17 -23 -21 -47q-2 -1 -5 -3q-35 -21 -94.5 -25t-122.5 13.5t-101 54.5q-2 -3 -19 -20.5t-63 -71.5q-17 -24 -47 -31q-13 -2 -23.5 5.5t-10.5 23.5z" />
<glyph unicode="&#xa5;" horiz-adv-x="989" d="M33 1358q1 32 35 67q15 15 29 26t40 20.5t49 3.5t51.5 -36.5t51.5 -88.5q39 -97 57 -144t40.5 -110.5t39.5 -110.5q10 -28 106 -280q6 -18 15 -5q33 103 53 170q9 34 43.5 175.5t54.5 209.5q21 74 47.5 124t50 71t48 27t41.5 1t30 -16q32 -28 18.5 -50t-50.5 -7 q-28 12 -58.5 -26t-48 -80.5t-24.5 -71.5q-6 -20 -84 -318q-72 -263 -86 -307h172q96 0 122 -14q18 -9 17 -25q0 -10 -10.5 -19t-34.5 -14t-57 0q-87 11 -230 15q-4 -11 -14.5 -39.5t-16.5 -48.5q-17 -49 -36 -101q180 9 254 9q124 -6 139 -41q5 -12 -5 -24.5t-35.5 -19 t-66.5 0.5q-60 10 -270 10q-9 0 -22 -1t-17 -1q-8 -21 -22 -53t-19 -46q-36 -83 -78 -140t-79 -82t-71.5 -30.5t-61 8.5t-42.5 42q-28 48 -4 71q18 16 37 3q8 -7 12 -19q22 -70 81 -40q62 32 126 155q42 87 62 133q-31 0 -41 -2q-13 -2 -51 -3t-58 -3q-18 -2 -44.5 -5.5 t-41 -5t-31 -2t-27.5 3t-18 11.5q-10 9 -12 24t12.5 28.5t46.5 14.5q35 2 99.5 -2.5t91.5 -3.5q76 6 98 6q23 58 58 164q1 4 3 13.5t3 13.5q-37 -2 -114 -7.5t-120 -7.5q-22 -2 -53.5 -6.5t-48 -6.5t-33.5 -1.5t-25 6.5q-9 6 -10.5 19t14 27.5t48.5 19.5q55 10 200 10 q37 1 69 2.5t54 1.5h15q-13 62 -50 156q-22 55 -51 143t-33 98q-32 87 -63.5 168.5t-62.5 163.5q-16 42 -35 62t-37.5 18.5t-36.5 -18t-33 -45.5q-15 -31 -40 -24q-23 7 -21 36zM559 723l2 8q-2 -2 -2 -8z" />
<glyph unicode="&#xa6;" horiz-adv-x="688" d="M288 1306q0 17 7 29q7 11 23.5 13t34 -13t22.5 -47q4 -23 5.5 -50.5t1.5 -45.5t-0.5 -50t-0.5 -44q0 -119 8 -205q12 -123 12 -195q0 -151 -51 -149q-46 0 -31 106q16 118 13 271q-4 80 -13 139q-2 13 -4 52t-4 57q-3 24 -9.5 53t-10 45.5t-3.5 33.5zM303 -258 q0 113 8 195q6 65 6 204q0 11 -5.5 93t1.5 98q8 55 38 60q19 4 26 -13q24 -55 10 -162q0 -4 -6 -108q-1 -16 -1.5 -53t-2.5 -87q-4 -183 8 -270q15 -107 -31 -107q-51 -2 -51 150z" />
<glyph unicode="&#xa7;" horiz-adv-x="741" d="M136.5 -266.5q-30.5 80.5 19.5 184.5q22 41 52 39q22 -2 24 -23q1 -15 -11 -34q-27 -44 -28 -89.5t24 -80.5q25 -34 49.5 -49.5t69.5 -22.5q64 -10 104 16q47 34 68 76.5t29 116.5q3 86 -15 139q-16 46 -59 86q-16 14 -36.5 27t-32.5 19l-13 7q-33 19 -67.5 37.5 t-53 28.5t-29.5 18q-32 23 -53 58q-59 95 -2 227q44 100 141 133q47 20 111.5 10t106.5 -53q-16 43 -56 80q-16 14 -37 27t-34 19l-13 7q-78 35 -133 74q-88 65 -88 178q0 85 21.5 139.5t72.5 100.5q46 42 82 51t82 4q44 -5 86 -45t47 -104q2 -24 -11.5 -36t-30 -4.5 t-21.5 31.5q-8 41 -23 62t-47 33q-19 11 -57.5 2t-67.5 -43q-39 -45 -56.5 -89.5t-17.5 -101.5q0 -44 16 -75.5t56 -59.5q19 -14 41.5 -26t35.5 -18l13 -5q66 -32 95 -52t55 -46q36 -36 55.5 -102.5t15.5 -147.5q-4 -71 -33 -140t-89 -104q-31 -19 -66 -27q64 -35 100 -71 t56 -102.5t16 -147.5q-3 -68 -35 -139t-88 -105q-44 -26 -110 -27t-107 19q-93 40 -123.5 120.5zM176 514q18 41 43 34q20 -5 20 -31q0 -11 -6 -23q-49 -97 0 -172q44 -67 119 -72q75 -4 105 16q65 47 84 121q11 63 -6 113q-35 96 -148 92q-107 -3 -154 -98z" />
<glyph unicode="&#xa8;" horiz-adv-x="559" d="M47 1311q-11 24 4 69q14 38 37.5 50t50.5 -7q43 -32 27 -90q-6 -26 -29 -41t-49 -10q-30 5 -41 29zM395 1311q-11 24 4 69q14 38 37.5 50t50.5 -7q43 -32 27 -90q-6 -26 -29 -41t-49 -10q-30 5 -41 29z" />
<glyph unicode="&#xa9;" horiz-adv-x="1011" d="M82 522q0 107 16 170q38 154 83 253.5t134 187.5q45 44 97 63t87.5 16.5t67.5 -14.5q54 -21 84 -40t76 -62q55 -52 100 -138q80 -154 95 -309q8 -79 6 -112q-9 -162 -35 -261q-12 -48 -55 -118q-34 -46 -105 -82q-40 -19 -100 -20.5t-144 24.5q-70 24 -69 57q0 21 23 27 q5 2 10 2q15 0 27.5 -6t23 -13.5t38.5 -13.5t70 -6q67 0 117.5 32t79 88t42 125t13.5 152q0 88 -6 129q-22 159 -86 283q-22 45 -47.5 78.5t-54 55.5t-49.5 34t-50 26q-42 21 -86 16.5t-78.5 -22t-64.5 -45.5q-67 -64 -120 -183.5t-66 -211.5q-13 -83 -13 -207 q0 -43 23 -119q19 -64 46.5 -107t76.5 -97q44 -49 109 -80t132 -37q47 -5 62 -36q13 -28 -16 -42q-15 -8 -39 -8q-27 0 -58.5 11t-83 36t-59.5 29q-52 23 -121 102.5t-94 153.5q-31 80 -37 161q-2 23 -2 78zM293 584q0 128 49 260q24 67 71 113.5t95 46.5q72 0 114 -45 t42 -119q0 -25 -10 -35.5t-25 -7.5q-7 2 -13 10.5t-6 19.5q-8 89 -59 109q-18 6 -37 6q-37 0 -68 -30t-47 -65.5t-24 -72.5q-7 -37 -21 -160q-2 -12 -2 -39q2 -95 22.5 -162t74.5 -102q41 -26 73 -26q57 0 90 75q16 39 35 39q27 0 27 -39q0 -52 -48 -95.5t-104 -43.5 q-54 0 -96.5 24.5t-66.5 62t-39.5 88t-21 96t-5.5 92.5z" />
<glyph unicode="&#xaa;" horiz-adv-x="540" d="M51 772q11 32 51.5 71t83.5 66q73 49 133 107q33 35 46 114q-3 48 -11 115q-9 52 -22 74q-22 35 -55.5 44t-61.5 -5q-39 -19 -61 -58q-27 -42 -27 -86q0 -31 43 -53q15 -9 18.5 -21.5t-7.5 -18t-36 0.5q-9 3 -27 17.5t-26 34.5q-14 40 -1.5 88t46.5 88q61 78 144 61 q40 -9 67 -39q8 -8 14.5 -18t10.5 -18l4 -7q11 -27 20 -84q13 -148 9 -289q-3 -63 -1 -119t8 -96.5t26 -56.5t53 0q21 9 26 -10q6 -19 -13 -30q-8 -6 -20 -5q-70 -19 -102 43q-27 -31 -77.5 -49.5t-104.5 -20.5q-113 -8 -140 45q-32 52 -10 115zM84 721q0 -31 41 -55 q23 -13 58.5 -13.5t65 6t54.5 15.5q48 17 64 63q-7 47 -5 90q3 56 3 146v26q-50 -48 -103 -87t-87.5 -62t-45.5 -35q-26 -29 -35.5 -48t-9.5 -46z" />
<glyph unicode="&#xab;" horiz-adv-x="931" d="M43 459q-3 11 0 28q5 25 35.5 63.5t78 87t54.5 56.5t76 85.5t112 135.5q34 47 63 44q22 -2 17 -29q-6 -29 -41 -64q-59 -59 -79.5 -80t-55 -59.5t-82.5 -95.5q-18 -21 -40 -46l-33 -37.5t-22 -27t-15.5 -25t-4.5 -20.5q0 -17 20 -41t71 -72t79 -77q41 -42 105.5 -105 t101.5 -104t25 -70q-8 -21 -32 -9q-17 9 -32 34q-7 12 -33.5 40t-67.5 69.5t-54 54.5t-85 80t-113 112t-48 72zM389 469v2q0 10 2 16q5 25 35.5 63.5t78 87t54.5 56.5q9 10 77.5 86.5t111.5 134.5q34 47 63 44q22 -2 16 -29q-6 -29 -41 -64q-59 -59 -79.5 -80t-55 -59.5 t-82.5 -95.5q-17 -21 -39.5 -46t-33.5 -37.5t-22 -27t-15 -25t-4 -20.5v-4q2 -17 23 -40.5t69.5 -69.5t77.5 -76q40 -41 104.5 -104.5t101.5 -104.5t26 -70q-8 -20 -31 -9q-17 9 -33 34q-7 12 -34 40.5t-67.5 68.5t-54.5 55q-13 13 -85 80t-113 112t-48 72q0 2 -1 5t-1 5z " />
<glyph unicode="&#xac;" horiz-adv-x="1050" d="M106 873q-2 14 12 28t46 19q23 4 50.5 5.5t45.5 1.5t50 -0.5t44 -0.5q119 0 205 8q80 6 260 6q80 0 107 -14q34 -16 30 -82q-1 -35 0.5 -79.5t1.5 -57.5q0 -24 5.5 -67.5t5.5 -64.5q0 -25 -8 -45q-2 -6 -9 -12t-17 -8t-20 10t-10 62v102q0 22 -2 59t-2 64 q0 37 -10.5 53.5t-48.5 16.5q-115 0 -236 -7q-48 -3 -109.5 -3.5t-78.5 -2.5q-8 -1 -61.5 -3.5t-77.5 -4.5q-14 -2 -44 -6t-43 -5.5t-31.5 -3t-28.5 1t-15 7.5q-9 9 -11 23z" />
<glyph unicode="&#xad;" horiz-adv-x="694" d="M82 545q3 21 28.5 32t55.5 11h108q15 1 39.5 2t47 2t47.5 2q22 1 69 7.5t70 6.5q25 0 45 -8q6 -2 12 -9t8 -16.5t-10 -19.5t-61 -10h-185q-29 0 -81 -8.5t-72 -10.5q-80 -10 -82 -10q-39 0 -39 29z" />
<glyph unicode="&#xae;" horiz-adv-x="1011" d="M82 522q0 107 16 170q38 154 83 253.5t134 187.5q45 44 97 63t87.5 16.5t67.5 -14.5q54 -21 84 -40t76 -62q55 -52 100 -138q80 -154 95 -309q8 -79 6 -112q-9 -162 -35 -261q-12 -48 -55 -118q-34 -46 -105 -82q-40 -19 -100 -20.5t-144 24.5q-70 24 -69 57q0 21 23 27 q5 2 10 2q15 0 27.5 -6t23 -13.5t38.5 -13.5t70 -6q67 0 117.5 32t79 88t42 125t13.5 152q0 88 -6 129q-22 159 -86 283q-22 45 -47.5 78.5t-54 55.5t-49.5 34t-50 26q-42 21 -86 16.5t-78.5 -22t-64.5 -45.5q-67 -64 -120 -183.5t-66 -211.5q-13 -83 -13 -207 q0 -43 23 -119q19 -64 46.5 -107t76.5 -97q44 -49 109 -80t132 -37q47 -5 62 -36q13 -28 -16 -42q-15 -8 -39 -8q-27 0 -58.5 11t-83 36t-59.5 29q-52 23 -121 102.5t-94 153.5q-31 80 -37 161q-2 23 -2 78zM307 633q0 26 19 45q18 18 55 22q0 120 -4 179q-3 35 -7 57 t-6.5 29t-5.5 14t-4 14q-2 10 6.5 16t19.5 4t17 -14q1 -1 3.5 -4t7.5 -5t16 -3q3 -2 27 -0.5t32 0.5q76 -4 119 -39t62 -102q18 -68 -5 -115q-11 -29 -35.5 -64t-56.5 -59l-6 -6q0 -2 2 -2q30 -36 51 -94q26 -56 39 -135q6 -31 10.5 -49t18.5 -39t33 -21q15 0 20.5 -12 t-1.5 -23.5t-23 -11.5q-36 0 -55 19.5t-31 58.5q-4 10 -13 65t-20 88q-29 92 -74 140q-23 -10 -39 -13q-31 -8 -55 -8l4 -59v-21q-2 -149 -19 -204.5t-73 -55.5q-17 0 -24 9t-0.5 19t22.5 13q51 11 51 170q0 53 -4 131q-25 3 -49.5 23.5t-24.5 42.5zM350 637q0 -20 31 -29 v54q-17 -1 -24 -9t-7 -16zM412 938q2 -18 2 -72q0 -15 6 -168q9 0 39 -12q42 -27 67 -49q39 22 78 76q25 31 25 84q0 58 -35 96q-23 28 -49.5 40.5t-83.5 12.5q-36 0 -49 -8zM420 655l2 -47h10q19 0 47 8q-32 26 -35 27z" />
<glyph unicode="&#xaf;" horiz-adv-x="612" d="M41 1063q0 21 26.5 32t57.5 11h108q15 1 39.5 2t47 2t47.5 2q22 1 69 7.5t70 6.5q25 0 45 -8q6 -2 12 -9t8 -16.5t-10 -19.5q-13 -10 -61 -10h-185q-29 0 -81 -8.5t-72 -10.5q-80 -10 -82 -10q-39 0 -39 29z" />
<glyph unicode="&#xb0;" horiz-adv-x="731" d="M104 1217q7 33 20.5 65.5t36.5 67.5t51.5 62t70 44t88.5 17q51 0 91.5 -12.5t83 -54t70.5 -112.5q23 -60 24 -118t-19 -105.5t-70 -76.5t-123 -29q-52 0 -59 22q-5 17 20 25q13 5 29 4q67 -2 120.5 39.5t53.5 101.5q0 115 -57 187.5t-154 76.5q-64 3 -115 -37t-82 -102 q-51 -111 -37 -203.5t74 -134.5q42 -29 82 -38t64 -6t75 15q40 9 49 -9t-26 -38q-32 -19 -86.5 -22t-113.5 14t-93 53q-112 123 -68 304z" />
<glyph unicode="&#xb1;" horiz-adv-x="1021" d="M104 43.5q-2 16.5 13 34t47 22.5q23 4 50.5 5.5t45.5 1.5t50 -0.5t44 -0.5q108 0 205 9q123 12 195 12q151 0 149 -51q0 -46 -106 -31q-112 16 -271 12q-89 -4 -139 -12q-13 -2 -51.5 -4t-56.5 -4q-24 -3 -53 -9.5t-45.5 -10.5t-34 -4t-29.5 7q-11 7 -13 23.5zM118 617.5 q-2 16.5 13 34t47 22.5q53 8 191 8h100q0 13 -1 31t-1 24q-4 90 -2 158q0 1 1 16.5t1.5 25.5t3 27.5t6 29t9 24t14 18.5t18.5 6q42 -4 29 -110q-8 -63 -17 -246q6 1 21 2t22 2q12 1 52.5 3.5t79 4.5t63.5 2q152 0 150 -51q0 -46 -107 -31q-106 15 -270 11h-13v-94 q-2 -48 2 -125q5 -56 2.5 -96.5t-18.5 -61.5q-8 -11 -19.5 -12t-23 15t-14.5 48q-2 24 -2 50.5t1 43.5t3.5 47.5t3.5 42.5q3 81 6 138q-22 -1 -68 -7q-14 -2 -52 -4t-56 -4q-24 -3 -53 -9.5t-45.5 -10t-34 -3.5t-29.5 7q-11 7 -13 23.5z" />
<glyph unicode="&#xb2;" horiz-adv-x="516" d="M23 705q3 30 28.5 45.5t57.5 15.5q40 0 75 -21q10 -7 39 -32q11 25 36.5 103.5t45.5 129.5q39 98 47 165.5t-4 137.5q-2 28 -20 68q-19 34 -56.5 44t-64.5 -5q-39 -17 -62 -56q-26 -41 -26 -86q0 -29 43 -51q22 -12 19 -27q-6 -20 -44 -10q-7 0 -25.5 15.5t-25.5 34.5 q-14 41 -2 87t45 87q64 78 143 59q37 -6 68 -37q15 -17 31 -49q6 -12 12 -27q16 -51 16.5 -104.5t-10.5 -106.5t-35 -124q-11 -32 -28 -76.5t-27 -79.5q-28 -90 -43 -121l4 -4q41 -33 84 -33q28 0 50 18t28 44q4 22 22.5 18.5t18.5 -25.5q3 -43 -36 -68.5t-85 -27.5 q-58 0 -106 33q-1 1 -3.5 3t-3.5 3q-1 -3 -10 -12q-45 -42 -129 -12q-26 10 -47 34.5t-20 49.5zM68 705q0 -19 19.5 -35.5t43.5 -16.5q34 0 55 13l5 3q5 3 6 5q-39 35 -58 43q-29 10 -49 5t-22 -17z" />
<glyph unicode="&#xb3;" horiz-adv-x="464" d="M43 657q3 22 22 26q17 3 19 -15v-4q-3 -34 18 -67t64 -44q88 -23 139 39q32 37 44.5 74.5t12.5 97.5q0 8 0.5 22t0.5 21t-1.5 20.5t-5.5 30.5q-10 53 -37 109q-9 18 -26 28q-43 -40 -88 -28q-31 6 -37 32q-6 22 8.5 42t52.5 20q35 0 60 -14q26 54 20 135q-2 23 -7 45 t-15 47t-25 40t-36 22.5t-48 -3.5q-25 -10 -38 -39t-15 -63q-1 -22 -17 -20q-15 1 -21 20q-1 5 -1 10q0 46 26 83.5t76 51.5q58 15 97 -22q22 -22 53 -113q6 -18 9 -55t1 -62q-8 -52 -29 -96q6 -5 27 -31q33 -54 47 -123q17 -81 8 -157q-6 -38 -19 -81t-30 -63 q-37 -46 -80 -58.5t-100 -4.5q-74 11 -105.5 53.5t-23.5 93.5zM207 1008q3 -15 21.5 -12t35.5 20q-15 7 -29 8.5t-22 -2.5t-6 -14z" />
<glyph unicode="&#xb4;" horiz-adv-x="542" d="M248 1210q2 11 13 24.5t28 22.5q9 6 23 14t21.5 12.5t22 15.5t33.5 28q3 3 21.5 24.5t31.5 30.5q29 23 47 9q18 -16 9 -41.5t-39 -49.5q-53 -43 -84 -65q-4 -3 -18 -14.5t-20 -16t-16.5 -11.5t-19.5 -10t-18 -3t-15.5 1t-13.5 8.5t-6 20.5z" />
<glyph unicode="&#xb5;" horiz-adv-x="874" d="M118.5 -234.5q11.5 15.5 41.5 17.5q54 3 70 117.5t16 390.5q0 17 -1 189t1 177q2 149 -11 223t-47 101q-37 29 -20 52q14 21 46 11q39 -13 58 -67q6 -17 10.5 -39.5t7 -52.5t4.5 -52t2.5 -59t0.5 -52.5v-53v-41.5q0 -27 4 -99.5t4 -134.5v-141q1 -41 7 -80t18.5 -76 t35.5 -59.5t54 -22.5q53 0 121 71t88 128q14 49 14 66q-8 148 -6 280q0 109 2 213q1 36 7 77.5t19 89t38 79t59 31.5q30 1 41 -11t1 -29t-36 -28q-25 -12 -41.5 -53t-24 -112t-9.5 -122t-3 -133q-1 -97 1 -151t6.5 -120.5t7.5 -127.5q2 -45 8 -71.5t13 -36.5t18.5 -6.5 t19.5 10t22 21t19 19.5q16 15 38 1q28 -17 9 -55q-8 -15 -25 -32q-24 -24 -52 -37t-56 -11.5t-48 33t-24 91.5q-4 18 -10 18t-24 -20.5t-49 -52t-60 -51.5q-26 -18 -54 -26.5t-62 -2t-62 32.5q-17 14 -25 32q-2 -16 -2 -49q-2 -36 -9 -75t-21.5 -84t-42.5 -72t-64 -23 q-30 3 -42.5 19t-1 31.5z" />
<glyph unicode="&#xb6;" horiz-adv-x="1204" d="M109 1198q38 92 100.5 140.5t177.5 76.5h4q1 1 4.5 2t5.5 2q5 0 7 2q8 0 12 2q8 0 20 4q75 13 111 17q2 0 4.5 1t3.5 1q12 2 33 2q1 0 3 1t3 1h2l-18 -29l26 4q-4 -10 -10 -34q-16 -2 -39 -2q-4 -1 -11 -2t-11.5 -1.5t-8.5 -1.5v2q-30 -3 -69.5 -10t-64.5 -11t-32 -3 q-17 2 -19 16q-2 20 37 35l7 2h4q1 1 4.5 2t5.5 2q5 0 7 2q8 0 12 2q8 0 20 4q71 13 111 17q2 0 4.5 1t3.5 1q5 0 16.5 1t16.5 1q1 0 3 1t3 1q6 0 18 1t17 1q62 3 180 14q98 14 195 11q82 0 114 -45q21 -27 3 -45q-24 -22 -74 4q-45 22 -129 22v-164q1 -65 -1.5 -182.5 t-2.5 -171.5q0 -24 -6 -87.5t-15 -158t-14 -168.5q-16 -164 -2.5 -291.5t67.5 -162.5q23 -15 28 -32.5t-5 -28.5t-27 -11q-102 2 -121 254q-11 139 -2 276l37 445q0 43 8 141t8 158q0 99 -20 184q-54 -4 -74 -4q-54 -4 -98 -9l-45 -5q-28 -4 -39 -4q-8 -29 -16 -142 q-10 -138 -7 -319q37 -6 66 -31q41 -41 21 -76l-4 -7q-3 -8 -6 -13.5t-8.5 -14.5t-12 -16t-15 -14t-19.5 -12t-24 -7q0 -5 -9 -153.5t-11 -223.5v-51q0 -266 82 -284q27 -6 38 -23.5t-0.5 -33t-41.5 -15.5q-23 0 -41.5 9.5t-31 30t-22.5 40.5t-16 54t-9.5 56t-5 60.5t-2 54 t-1.5 49.5q-2 47 -2 117l16 311q-33 0 -106 17q-38 8 -81 26t-67 37q-45 38 -89.5 95.5t-59.5 97.5q-39 107 -4 188zM152 1112q0 -84 43 -141q63 -84 132 -125t160 -49q12 -2 31 -2l6 90q-32 -4 -53 -25q-20 -22 -36 -12t-7 33q11 27 61 43q24 8 37 8q0 42 4.5 140t4.5 157 q0 38 -3.5 87.5t-3.5 65.5v2q-65 -7 -92 -14q-160 -38 -219 -102q-65 -68 -65 -156zM528 1386q0 19 2 29l52 6l-23 -32q-15 -3 -31 -3zM575 797q17 7 29 20t12 29q0 36 -38 41q0 -13 -1.5 -43t-1.5 -47z" />
<glyph unicode="&#xb7;" horiz-adv-x="368" d="M129.5 586.5q-11.5 32.5 5.5 75.5q19 46 39.5 58.5t46.5 -7.5q36 -26 17 -95q-7 -30 -25.5 -51.5t-42.5 -15.5q-29 3 -40.5 35.5z" />
<glyph unicode="&#xb8;" horiz-adv-x="659" d="M46.5 -261q15.5 22 53.5 7q42 -18 99 -22q65 -5 105.5 22.5t39.5 91.5q-3 74 -92 103q-76 19 -92 20q-33 2 -34.5 38.5t18 77t40.5 56.5q30 23 40 -3q8 -21 -5 -56q-14 -41 -11.5 -50t23.5 -14q11 -3 27 -5.5t29 -6t30 -10.5q1 -1 3.5 -2t3.5 -2q31 -15 58 -49t30 -89 q4 -79 -44.5 -128t-129.5 -58q-51 -6 -99.5 2t-75.5 29q-32 26 -16.5 48z" />
<glyph unicode="&#xb9;" horiz-adv-x="571" d="M63 705q2 21 19 23t22 -19q4 -26 25.5 -43t48.5 -17q41 0 82 33q0 1 2.5 2.5t3.5 3.5q-22 55 -22 113q-4 134 -4 139q-3 103 4 295v35q-4 6 -9.5 3.5t-25.5 -16.5q-34 -27 -47 -32q-35 -13 -35 14q0 17 43 41q24 13 53 47q3 4 12.5 19t17 20.5t17.5 5.5h4q9 -1 13.5 -9 t5.5 -26.5t0 -34.5l-3 -48t-3 -52q-1 -44 -3.5 -85.5t-3.5 -76.5t-1 -100q0 -154 22 -221q6 6 33 24q30 23 72 23q31 -2 54.5 -16.5t26.5 -44.5q3 -25 -17 -48.5t-48 -33.5q-24 -12 -62 -10.5t-61 22.5l-12 12l-4 -4q-48 -36 -103 -33q-43 2 -80.5 27.5t-36.5 67.5zM322 676 l8 -8q21 -13 53 -13q24 0 42.5 16t18.5 34q-2 12 -21 17t-48 -5q-24 -12 -53 -41z" />
<glyph unicode="&#xba;" d="M195 921.5q1 67.5 16 129.5q10 46 31.5 91.5t55.5 90.5t87 72.5t117 27.5q42 0 75.5 -7.5t68.5 -27.5t65 -60.5t53 -100.5q21 -53 27.5 -110t-3.5 -111.5t-35 -98.5t-72 -72t-110 -30q-64 -2 -85 31q-16 26 10 45q20 14 55 14q70 0 117 56t47 126q0 112 -57 188t-146 76 q-125 0 -188 -133q-50 -109 -45.5 -223.5t59.5 -167.5q32 -31 69.5 -45.5t70.5 -13t69 5.5q66 9 86 -18q16 -23 -22 -47q-2 -1 -5 -3q-37 -21 -97.5 -25t-124.5 15t-101 59q-46 50 -67.5 124.5t-20.5 142z" />
<glyph unicode="&#xbb;" horiz-adv-x="931" d="M74 30q5 22 26 46q37 41 101.5 104t105.5 105q28 29 79 77t71 72t20 41q0 10 -4.5 20.5t-15.5 25t-22 27l-33 37.5t-40 46q-48 57 -82.5 95.5t-55 59.5t-79.5 80q-49 49 -41 80q6 21 33 10q24 -11 47 -41q43 -58 111.5 -134.5t77.5 -86.5q7 -8 54.5 -56.5t78 -87 t35.5 -63.5q3 -18 -2 -28q-7 -27 -49 -73.5t-110 -110t-85 -80.5q-14 -15 -54.5 -55t-67.5 -68.5t-34 -40.5q-27 -43 -52 -37q-20 6 -13 36zM423 30q5 22 26 46q37 41 101.5 104.5t104.5 104.5q28 29 79 77t71 72t20 41q0 10 -4 20.5t-15 25t-22 27t-33.5 37.5t-39.5 46 q-48 57 -82.5 95.5t-55 59.5t-79.5 80q-49 49 -41 80q6 21 33 10q23 -10 46 -41q43 -58 111.5 -134.5t77.5 -86.5q7 -8 54.5 -56.5t78 -87t35.5 -63.5q3 -18 -2 -28q-7 -27 -49 -73.5t-110 -110t-85 -80.5q-14 -15 -54.5 -55t-67.5 -68.5t-34 -40.5q-27 -43 -51 -37 q-20 6 -13 36z" />
<glyph unicode="&#xbc;" horiz-adv-x="1249" d="M33 705q2 21 19 23t22 -19q4 -26 25 -43t48 -17q41 0 82 33q0 1 3 2.5t4 3.5q-23 57 -23 113q-4 134 -4 139q-3 103 4 295v35q-4 6 -9.5 3.5t-25.5 -16.5q-34 -27 -47 -32q-35 -13 -35 14q0 17 43 41q26 14 54 47q3 4 12.5 19t17 20.5t17.5 5.5h4q9 -1 13.5 -9t5 -26 t0 -35t-3 -48t-3.5 -52q-1 -44 -3.5 -85.5t-3.5 -76.5t-1 -100q0 -154 22 -221q6 6 33 24q30 23 72 23q31 -2 55 -17t27 -44q3 -25 -17.5 -48.5t-48.5 -33.5q-24 -12 -62 -10.5t-61 22.5l-12 12l-4 -4q-48 -36 -102 -33q-43 2 -80.5 27.5t-36.5 67.5zM127.5 13 q-4.5 15 13 24t45.5 4q45 -8 95.5 57t96 176t81.5 217t69.5 214.5t42.5 132.5q18 48 42 114t43 115.5t40 97.5q78 176 148 176q20 0 23 -9t-4 -19t-17 -19q-31 -26 -44.5 -39.5t-34.5 -45t-42 -81.5q-23 -53 -51.5 -139t-40.5 -117q-24 -62 -79 -236.5t-83 -258.5 q-25 -76 -94 -199q-126 -232 -217 -192q-28 12 -32.5 27zM291 676l8 -8q21 -13 53 -13q24 0 43 16t19 34q-2 12 -21.5 17t-48.5 -5q-24 -12 -53 -41zM723 508q3 164 45 274q7 16 18.5 21.5t16.5 -3t0 -28.5q-22 -68 -29 -104q-14 -82 -14 -152q3 -92 39 -162q42 -80 129 -80 q52 0 108 27v49q-10 -3 -20 -22q-9 -15 -21.5 -13t-13.5 19q0 21 35 47l18 12v70q0 27 1 57.5t1 48.5q2 30 5 66t6 70q5 70 30 119.5t58 49.5q21 0 29.5 -8.5t1.5 -18t-25 -13.5q-38 -6 -56 -101q-3 -14 -10 -139q-3 -32 -3 -62t1.5 -57t1.5 -37v-35q22 3 43 -6 q19 -11 19 -28q0 -31 -27 -62q-9 -9 -39 -33q1 -10 3.5 -47t2.5 -53q4 -152 50 -157q13 -1 26 10q24 22 39 9q12 -11 0 -28q-9 -16 -25.5 -26.5t-33.5 -10.5q-23 0 -46 16.5t-30 47.5q-17 70 -17 110q0 39 -4 113q-40 -20 -112 -20q-61 0 -115 41q-32 23 -59 90.5t-27 138.5 zM1071 322q26 16 33 35q7 16 -14 16q-13 0 -17 -2q-2 -16 -2 -49z" />
<glyph unicode="&#xbd;" horiz-adv-x="1218" d="M23 705q2 21 18.5 23t21.5 -19q4 -26 25.5 -43t48.5 -17q41 0 82 33q0 1 2.5 2.5t3.5 3.5q-22 55 -22 113q-4 134 -4 139q-3 103 4 295v35q-4 6 -9.5 3.5t-25.5 -16.5q-34 -27 -47 -32q-35 -13 -35 14q0 17 43 41q24 13 53 47q3 4 12.5 19t17 20.5t17.5 5.5h4 q9 -1 13.5 -9t5.5 -26.5t0 -34.5l-3 -48t-3 -52q-1 -44 -3.5 -85.5t-3.5 -76.5t-1 -100q0 -154 22 -221q6 6 33 24q30 23 72 23q31 -2 54.5 -16.5t26.5 -44.5q3 -25 -17 -48.5t-48 -33.5q-24 -12 -62 -10.5t-61 22.5l-12 12l-4 -4q-48 -36 -103 -33q-43 2 -80 27.5t-36 67.5 zM117.5 13q-4.5 15 13 24t45.5 4q45 -8 95.5 57t96 176t81.5 217t69.5 214.5t42.5 132.5q18 48 42 114t43 115.5t40 97.5q78 176 148 176q20 0 23 -9t-4 -19t-17 -19q-31 -26 -44.5 -39.5t-34.5 -45t-42 -81.5q-23 -53 -51.5 -139t-40.5 -117q-24 -62 -79 -236.5t-83 -258.5 q-25 -76 -94 -199q-126 -232 -217 -192q-28 12 -32.5 27zM281 676l8 -8q21 -13 53 -13q24 0 42.5 16t18.5 34q-2 12 -21 17t-48 -5q-24 -12 -53 -41zM715 63q3 30 29 46t57 16q41 0 76 -21q4 -3 38 -32q11 25 36.5 103.5t45.5 129.5q39 98 47 165.5t-4 137.5q-2 28 -20 68 q-19 34 -56.5 44t-64.5 -5q-38 -17 -61 -56q-27 -42 -27 -86q0 -29 43 -51q22 -12 19 -27q-6 -20 -44 -10q-7 0 -25.5 15.5t-25.5 34.5q-14 41 -2 87t45 87q64 78 144 59q36 -6 67 -37q15 -17 31 -49q6 -12 12 -27q23 -84 15.5 -157t-43.5 -179q-12 -36 -29 -78.5t-27 -76.5 q-28 -90 -43 -121l4 -4q41 -33 84 -33q28 0 50 18t28 44q4 22 22.5 18.5t18.5 -25.5q3 -43 -36 -68.5t-85 -27.5q-58 0 -106 33l-6 6q0 -2 -11 -12q-45 -42 -129 -12q-27 10 -47.5 34t-19.5 49zM760 63q0 -19 19.5 -35t43.5 -16q35 0 56 13l5 3q4 3 5 5q-39 35 -58 43 q-29 10 -49 4.5t-22 -17.5z" />
<glyph unicode="&#xbe;" horiz-adv-x="1226" d="M43 657q3 22 22 26q17 3 19 -15v-4q-3 -34 18 -67t64 -44q88 -23 139 39q32 37 44.5 74.5t12.5 97.5q0 8 0.5 22t0.5 21t-1.5 20.5t-5.5 30.5q-10 53 -37 109q-9 18 -26 28q-43 -40 -88 -28q-31 6 -37 32q-6 22 8.5 42t52.5 20q35 0 60 -14q26 54 20 135q-2 23 -7 45 t-15 47t-25 40t-36 22.5t-48 -3.5q-25 -10 -38 -39t-15 -63q-1 -22 -17 -20q-15 1 -21 20q-1 5 -1 10q0 46 26 83.5t76 51.5q58 15 97 -22q22 -22 53 -113q6 -18 9 -55t1 -62q-8 -52 -29 -96q6 -5 27 -31q33 -54 47 -123q17 -81 8 -157q-6 -38 -19 -81t-30 -63 q-37 -46 -80 -58.5t-100 -4.5q-74 11 -105.5 53.5t-23.5 93.5zM94.5 13q-4.5 15 13.5 24t46 4q45 -8 95.5 57t96 176t81.5 217t69.5 214.5t42.5 132.5q18 48 42 114t43 115.5t40 97.5q78 176 147 176q20 0 23 -9t-4 -19t-17 -19q-31 -26 -44.5 -39.5t-34.5 -45t-42 -81.5 q-23 -53 -51.5 -139t-40.5 -117q-24 -62 -79 -236.5t-83 -258.5q-25 -76 -94 -199q-126 -232 -217 -192q-28 12 -32.5 27zM207 1008q3 -15 21.5 -12t35.5 20q-15 7 -29 8.5t-22 -2.5t-6 -14zM690 508q3 164 45 274q7 16 18.5 21.5t16.5 -3t0 -28.5q-22 -68 -29 -104 q-14 -82 -14 -152q3 -92 39 -162q42 -80 129 -80q53 0 109 27v49q-11 -3 -21 -22q-9 -15 -21.5 -13t-13.5 19q0 21 35 47l18 12v70q0 27 1.5 57.5t1.5 48.5q9 118 10 136q5 70 30 119.5t58 49.5q21 0 29.5 -8.5t1.5 -18t-25 -13.5q-37 -6 -55 -101q-4 -22 -11 -139 q-3 -32 -3 -62t1.5 -57t1.5 -37v-35q22 3 43 -6q19 -11 19 -28q0 -31 -27 -62q-9 -9 -39 -33q1 -10 3.5 -47t2.5 -53q4 -152 50 -157q13 -1 26 10q24 22 39 9q12 -11 0 -28q-9 -16 -25.5 -26.5t-33.5 -10.5q-23 0 -46 16.5t-30 47.5q-16 66 -16 110q0 39 -4 113 q-40 -20 -113 -20q-61 0 -115 41q-32 23 -59 90.5t-27 138.5zM1038 322q26 16 33 35q7 16 -14 16q-13 0 -17 -2q-2 -16 -2 -49z" />
<glyph unicode="&#xbf;" horiz-adv-x="831" d="M94 37q-3 234 142 319q22 14 50.5 29t42 22t29 21t21.5 31.5t9.5 47t2.5 73.5q-2 53 4 91t13 56t21.5 28t20 11t17.5 2q11 0 21 -7.5t10 -24.5t-17 -38q-42 -49 -24 -256q2 -27 -11.5 -44t-33 -25t-55.5 -23t-62 -31q-126 -78 -139 -198q-6 -53 -5.5 -85t7.5 -102 q2 -17 12 -57q2 -4 5 -13.5t5 -13.5q3 -8 21 -40q0 -1 1 -3.5t1 -3.5q16 -21 20 -28q1 -1 29 -35q79 -88 186 -76q61 7 93.5 26.5t66.5 57.5q45 49 45 133q0 56 -49 115q-17 25 -12.5 34t22.5 9q41 0 68 -35q37 -43 37 -119q0 -54 -16 -102.5t-62.5 -95t-118.5 -68.5 q-37 -12 -81 -13t-104.5 20.5t-111.5 68.5q-71 68 -98 153q-4 12 -4 17q-4 12 -4 18q-11 55 -15 154zM377.5 945q-3.5 31 21.5 67q27 36 47 42t41 -18q23 -30 -6 -86q-12 -25 -33 -41t-42 -6q-25 11 -28.5 42z" />
<glyph unicode="&#xc0;" d="M31.5 -16.5q-3.5 28.5 31.5 47.5q25 13 48.5 66t68.5 183q5 15 8 23q37 106 56.5 181.5t43.5 197t44 209.5q21 94 40 212t29 171q11 59 23.5 101t21.5 62.5t20 31.5t16.5 12.5t13.5 1.5q23 0 46.5 -51t57.5 -183q10 -37 32 -118.5t38 -144t28 -120.5q2 -8 19 -85 t27.5 -121t31 -123t41.5 -148q18 -61 41 -159t38.5 -141t39.5 -56q27 -15 30.5 -38.5t-15.5 -33t-52 1.5q-27 12 -46 46.5t-27 69t-20 93.5t-20 88q-62 235 -77 301q-44 213 -86 359q-12 2 -27 2q-10 0 -80 -7q-8 -1 -52 -7t-73 -9q-23 -87 -37 -176.5t-24 -130.5 q-6 -23 -22.5 -90.5t-23 -91.5t-19 -70.5t-23.5 -78t-23 -62.5q-10 -24 -22.5 -59.5t-20.5 -59t-20 -50t-23 -42t-27 -25.5t-34 -10q-37 2 -40.5 30.5zM381.5 1769q-4.5 18 11.5 31q10 13 43 -4q7 -7 20 -21t23 -24t15 -14q36 -31 54.5 -44t45.5 -26q38 -27 41 -47 q1 -19 -10.5 -26t-24.5 -5q-9 0 -18 3t-19.5 10t-17 12t-19.5 16t-18 15q-50 36 -84 65q-15 11 -26.5 26t-16 33zM408 958q8 -2 30 -2q25 0 68 4t61 5q6 0 41 10q-11 40 -31 129.5t-36 142.5q-2 7 -8 29q-25 104 -41 105q-7 0 -13 -13q-10 -32 -24 -115q-11 -61 -24.5 -156 t-22.5 -139z" />
<glyph unicode="&#xc1;" d="M31.5 -16.5q-3.5 28.5 31.5 47.5q25 13 48.5 66t68.5 183q5 15 8 23q37 106 56.5 181.5t43.5 197t44 209.5q21 94 40 212t29 171q11 59 23.5 101t21.5 62.5t20 31.5t16.5 12.5t13.5 1.5q23 0 46.5 -51t57.5 -183q10 -37 32 -118.5t38 -144t28 -120.5q2 -8 19 -85 t27.5 -121t31 -123t41.5 -148q18 -61 41 -159t38.5 -141t39.5 -56q27 -15 30.5 -38.5t-15.5 -33t-52 1.5q-27 12 -46 46.5t-27 69t-20 93.5t-20 88q-62 235 -77 301q-44 213 -86 359q-12 2 -27 2q-10 0 -80 -7q-8 -1 -52 -7t-73 -9q-23 -87 -37 -176.5t-24 -130.5 q-6 -23 -22.5 -90.5t-23 -91.5t-19 -70.5t-23.5 -78t-23 -62.5q-10 -24 -22.5 -59.5t-20.5 -59t-20 -50t-23 -42t-27 -25.5t-34 -10q-37 2 -40.5 30.5zM369 1620q2 11 13 24.5t28 22.5q9 6 23 14t21.5 12.5t22 15.5t33.5 28q3 3 21.5 24.5t31.5 30.5q29 23 47 8 q18 -16 9 -41t-39 -49q-53 -43 -84 -65q-4 -3 -18 -14.5t-20 -16.5t-17 -12t-20 -10t-18 -3q-8 0 -15 1.5t-13.5 9t-5.5 20.5zM408 958q8 -2 30 -2q25 0 68 4t61 5q6 0 41 10q-11 40 -31 129.5t-36 142.5q-2 7 -8 29q-25 104 -41 105q-7 0 -13 -13q-10 -32 -24 -115 q-11 -61 -24.5 -156t-22.5 -139z" />
<glyph unicode="&#xc2;" d="M31.5 -16.5q-3.5 28.5 31.5 47.5q25 13 48.5 66t68.5 183q5 15 8 23q37 106 56.5 181.5t43.5 197t44 209.5q21 94 40 212t29 171q11 59 23.5 101t21.5 62.5t20 31.5t16.5 12.5t13.5 1.5q23 0 46.5 -51t57.5 -183q10 -37 32 -118.5t38 -144t28 -120.5q2 -8 19 -85 t27.5 -121t31 -123t41.5 -148q18 -61 41 -159t38.5 -141t39.5 -56q27 -15 30.5 -38.5t-15.5 -33t-52 1.5q-27 12 -46 46.5t-27 69t-20 93.5t-20 88q-62 235 -77 301q-44 213 -86 359q-12 2 -27 2q-10 0 -80 -7q-8 -1 -52 -7t-73 -9q-23 -87 -37 -176.5t-24 -130.5 q-6 -23 -22.5 -90.5t-23 -91.5t-19 -70.5t-23.5 -78t-23 -62.5q-10 -24 -22.5 -59.5t-20.5 -59t-20 -50t-23 -42t-27 -25.5t-34 -10q-37 2 -40.5 30.5zM276 1623q-2 30 17 75q10 25 36.5 51.5t67.5 46.5q72 36 144.5 28t128.5 -63q78 -75 78 -145q0 -25 -14 -31.5t-29.5 3 t-20.5 24.5q-24 69 -68 106q-40 34 -74.5 40.5t-84.5 -9.5q-83 -26 -117 -115q-15 -38 -40 -39q-21 -1 -24 28zM408 958q8 -2 30 -2q25 0 68 4t61 5q6 0 41 10q-11 40 -31 129.5t-36 142.5q-2 7 -8 29q-25 104 -41 105q-7 0 -13 -13q-10 -32 -24 -115q-11 -61 -24.5 -156 t-22.5 -139z" />
<glyph unicode="&#xc3;" d="M31.5 -16.5q-3.5 28.5 31.5 47.5q25 13 48.5 66t68.5 183q5 15 8 23q37 106 56.5 181.5t43.5 197t44 209.5q21 94 40 212t29 171q11 59 23.5 101t21.5 62.5t20 31.5t16.5 12.5t13.5 1.5q23 0 46.5 -51t57.5 -183q10 -37 32 -118.5t38 -144t28 -120.5q2 -8 19 -85 t27.5 -121t31 -123t41.5 -148q18 -61 41 -159t38.5 -141t39.5 -56q27 -15 30.5 -38.5t-15.5 -33t-52 1.5q-27 12 -46 46.5t-27 69t-20 93.5t-20 88q-62 235 -77 301q-44 213 -86 359q-12 2 -27 2q-10 0 -80 -7q-8 -1 -52 -7t-73 -9q-23 -87 -37 -176.5t-24 -130.5 q-6 -23 -22.5 -90.5t-23 -91.5t-19 -70.5t-23.5 -78t-23 -62.5q-10 -24 -22.5 -59.5t-20.5 -59t-20 -50t-23 -42t-27 -25.5t-34 -10q-37 2 -40.5 30.5zM149 1608.5q-1 13.5 14 31.5t46 31q15 6 48 21.5t50 22.5t43.5 13.5t50.5 6.5q30 0 61 -13t61.5 -31.5t45.5 -23.5 q34 -13 63.5 -7t98.5 40q50 27 87 34.5t44 -18.5q0 -16 -17.5 -28.5t-76.5 -40.5q-92 -41 -126.5 -48t-80.5 9q-25 9 -66.5 32.5t-65 31.5t-69 -0.5t-102.5 -45.5q-4 -3 -15.5 -10.5t-15 -9.5t-12.5 -7t-14 -6.5t-12 -3t-13.5 -1t-13.5 2.5q-12 4 -13 17.5zM408 958 q8 -2 30 -2q25 0 68 4t61 5q6 0 41 10q-11 40 -31 129.5t-36 142.5q-2 7 -8 29q-25 104 -41 105q-7 0 -13 -13q-10 -32 -24 -115q-11 -61 -24.5 -156t-22.5 -139z" />
<glyph unicode="&#xc4;" d="M31.5 -16.5q-3.5 28.5 31.5 47.5q25 13 48.5 66t68.5 183q5 15 8 23q37 106 56.5 181.5t43.5 197t44 209.5q21 94 40 212t29 171q11 59 23.5 101t21.5 62.5t20 31.5t16.5 12.5t13.5 1.5q23 0 46.5 -51t57.5 -183q10 -37 32 -118.5t38 -144t28 -120.5q2 -8 19 -85 t27.5 -121t31 -123t41.5 -148q18 -61 41 -159t38.5 -141t39.5 -56q27 -15 30.5 -38.5t-15.5 -33t-52 1.5q-27 12 -46 46.5t-27 69t-20 93.5t-20 88q-62 235 -77 301q-44 213 -86 359q-12 2 -27 2q-10 0 -80 -7q-8 -1 -52 -7t-73 -9q-23 -87 -37 -176.5t-24 -130.5 q-6 -23 -22.5 -90.5t-23 -91.5t-19 -70.5t-23.5 -78t-23 -62.5q-10 -24 -22.5 -59.5t-20.5 -59t-20 -50t-23 -42t-27 -25.5t-34 -10q-37 2 -40.5 30.5zM270 1721q-11 24 4 69q14 38 37.5 50t50.5 -7q43 -32 27 -90q-6 -26 -29 -41t-49 -10q-30 5 -41 29zM408 958q8 -2 30 -2 q25 0 68 4t61 5q6 0 41 10q-11 40 -31 129.5t-36 142.5q-2 7 -8 29q-25 104 -41 105q-7 0 -13 -13q-10 -32 -24 -115q-11 -61 -24.5 -156t-22.5 -139zM618.5 1721q-10.5 24 4.5 69q14 38 37.5 50t50.5 -7q42 -31 26 -90q-6 -26 -29 -41t-49 -10q-30 5 -40.5 29z" />
<glyph unicode="&#xc5;" d="M31.5 -16.5q-3.5 28.5 31.5 47.5q25 13 48.5 66t68.5 183q5 15 8 23q37 106 56.5 181.5t43.5 197t44 209.5q21 94 40 212t29 171q11 59 23.5 101t21.5 62.5t20 31.5t16.5 12.5t13.5 1.5q23 0 46.5 -51t57.5 -183q10 -37 32 -118.5t38 -144t28 -120.5q2 -8 19 -85 t27.5 -121t31 -123t41.5 -148q18 -61 41 -159t38.5 -141t39.5 -56q27 -15 30.5 -38.5t-15.5 -33t-52 1.5q-27 12 -46 46.5t-27 69t-20 93.5t-20 88q-62 235 -77 301q-44 213 -86 359q-12 2 -27 2q-10 0 -80 -7q-8 -1 -52 -7t-73 -9q-23 -87 -37 -176.5t-24 -130.5 q-6 -23 -22.5 -90.5t-23 -91.5t-19 -70.5t-23.5 -78t-23 -62.5q-10 -24 -22.5 -59.5t-20.5 -59t-20 -50t-23 -42t-27 -25.5t-34 -10q-37 2 -40.5 30.5zM301 1665q7 30 17 58.5t28 64t46.5 57t62.5 21.5q45 0 86 -36.5t63 -107.5q13 -39 14 -76t-10 -68t-39 -50.5t-71 -20.5 q-37 -1 -48 24q-10 22 12 33q10 5 23 5q42 0 61 14t19 49q0 69 -27 122.5t-77 53.5q-58 0 -92 -94q-48 -129 2 -196q7 -9 15 -15.5t14.5 -10t17.5 -5t16.5 -1.5t19 0.5t19.5 0.5q34 0 45 -16t-12 -33q-25 -21 -82.5 -13t-87.5 39q-65 70 -35 201zM408 958q8 -2 30 -2 q25 0 68 4t61 5q6 0 41 10q-11 40 -31 129.5t-36 142.5q-2 7 -8 29q-25 104 -41 105q-7 0 -13 -13q-10 -32 -24 -115q-11 -61 -24.5 -156t-22.5 -139z" />
<glyph unicode="&#xc6;" horiz-adv-x="1234" d="M31.5 -61.5q-3.5 28.5 31.5 47.5q25 13 48.5 66t68.5 183q5 15 8 23q37 106 56.5 181.5t43.5 197t44 209.5q21 94 44 233.5t32 190.5q11 59 23 100.5t20.5 62t19 31t15.5 12t14 1.5q2 -2 3.5 -6t3.5 -19.5t-5 -34.5q-5 -16 -11 -35t-8 -25.5t-6 -22t-7.5 -34t-8.5 -51.5 q-10 -58 -26 -171.5t-27 -162.5q12 -4 36 -4q58 3 82 11l4 -76q-3 0 -18.5 4t-34 6t-39.5 0q-9 -1 -19 -2.5t-30 -3.5q-21 -84 -34.5 -172.5t-24.5 -130.5q-6 -23 -22.5 -90.5t-23 -91.5t-19 -70.5t-23.5 -78t-23 -62.5q-10 -24 -22.5 -59.5t-20.5 -59t-20 -50t-23 -42 t-27 -25.5t-34 -10q-37 2 -40.5 30.5zM465 1444q-2 15 11 26t31.5 7.5t29.5 -25.5q9 -21 12 -45q14 1 42.5 2t43.5 2q62 3 180 14q98 14 195 11q82 0 114 -45q21 -27 3 -45q-24 -22 -74 4q-18 10 -41 16t-58.5 6.5t-52.5 1t-65 -2.5t-54 -3q-100 -7 -139 -16 q-13 -2 -47.5 -4.5t-48.5 -4.5q-4 -62 -4 -114q0 -60 4 -160t4 -143v-8q35 -4 98 0q22 1 69 7.5t70 6.5q32 0 46 -4q13 -4 19 -18.5t-9 -28.5q-11 -9 -62 -9q-22 0 -58 1t-46 1q-17 0 -32 -1.5t-28.5 -3.5t-19.5 -3q-26 -4 -45 -14l25 -426q0 -39 -7 -221q-1 -23 0 -96.5 t0 -108.5q2 -35 31 -43q20 -6 80 -6q25 0 88 6t102 4q135 -7 238 55q48 29 72 9q20 -15 2 -43q-29 -47 -111 -56q-112 -22 -184 -22q-30 0 -189 -8q-5 0 -26 -2t-34.5 -2t-33 0.5t-36.5 4.5t-31 11q-36 18 -19 194q10 108 -5.5 420.5t-14.5 372.5q4 239 -4 354 q-4 60 -9 97.5t-8.5 49.5t-7.5 24t-6 24z" />
<glyph unicode="&#xc7;" horiz-adv-x="919" d="M119 563q0 13 2 54t2 57q0 98 14 178q62 352 279 539q129 111 235 82q77 -20 128.5 -84.5t51.5 -139.5q0 -36 -26 -47q-23 -9 -34 14q-4 8 -5 19q-4 51 -21.5 87t-70.5 69q-89 56 -221 -60q-105 -91 -164 -205q-111 -225 -111 -522q0 -75 17 -158q30 -145 118 -272 q66 -92 144 -145q48 -32 98 -46.5t96 -9.5t82.5 38t54.5 91q11 34 34 42.5t37 -10.5t3 -52q-23 -69 -96 -123.5t-141 -54.5q-42 0 -93.5 15.5t-76.5 31.5q-109 72 -187 177t-110 228q-3 11 -10.5 41t-11 44.5t-8.5 38.5t-7 43.5t-2 39.5zM393 -425q15 22 53 7q42 -18 99 -22 q65 -5 105.5 22.5t39.5 91.5q-3 74 -92 103q-76 19 -92 20q-33 2 -34.5 38.5t18 77t40.5 56.5q30 23 40 -3q8 -21 -5 -56q-14 -42 -11.5 -50.5t24.5 -13.5q11 -3 27 -5.5t29 -6t30 -10.5q1 -1 3 -2t3 -2q83 -40 88 -137q4 -79 -44.5 -128.5t-129.5 -58.5q-51 -6 -99 2 t-75 29q-32 26 -17 48z" />
<glyph unicode="&#xc8;" horiz-adv-x="960" d="M190 1444q-2 15 11 26t31.5 7.5t29.5 -25.5q9 -21 12 -45q14 1 42.5 2t43.5 2q64 3 181 14q98 14 194 11q83 0 115 -45q21 -27 3 -45q-25 -22 -75 4q-18 10 -41 16t-58 6.5t-52 1t-65 -2.5t-54 -3q-100 -7 -139 -16q-13 -2 -47.5 -4.5t-49.5 -4.5q-4 -62 -4 -114 q0 -60 4 -160t4 -143v-8q36 -4 99 0q22 1 69 7.5t70 6.5q31 0 45 -4q13 -4 19 -18.5t-9 -28.5q-11 -9 -61 -9q-22 0 -58 1t-47 1q-17 0 -32 -1.5t-28 -3.5t-19 -3q-26 -4 -45 -14l24 -426q0 -65 -6 -221q-1 -23 0 -96.5t0 -108.5q2 -35 31 -43q20 -6 80 -6q25 0 88 6t102 4 q135 -7 238 55q48 29 72 9q19 -16 1 -43q-29 -47 -110 -56q-112 -22 -185 -22q-29 0 -188 -8q-5 0 -26 -2t-34.5 -2t-33.5 0.5t-37 4.5t-31 11q-35 17 -18 194q10 108 -6 420.5t-15 372.5q4 239 -4 354q-4 60 -9 97.5t-8.5 49.5t-7.5 24t-6 24zM412.5 1769q-4.5 18 11.5 31 q10 13 43 -4q8 -8 29 -30.5t28 -28.5q35 -30 54 -43.5t47 -26.5q38 -27 41 -47q1 -19 -10.5 -26t-24.5 -5q-9 0 -18 3t-19.5 10t-17 12t-19.5 16t-18 15q-50 36 -84 65q-15 11 -26.5 26t-16 33z" />
<glyph unicode="&#xc9;" horiz-adv-x="960" d="M190 1444q-2 15 11 26t31.5 7.5t29.5 -25.5q9 -21 12 -45q14 1 42.5 2t43.5 2q64 3 181 14q98 14 194 11q83 0 115 -45q21 -27 3 -45q-25 -22 -75 4q-18 10 -41 16t-58 6.5t-52 1t-65 -2.5t-54 -3q-100 -7 -139 -16q-13 -2 -47.5 -4.5t-49.5 -4.5q-4 -62 -4 -114 q0 -60 4 -160t4 -143v-8q36 -4 99 0q22 1 69 7.5t70 6.5q31 0 45 -4q13 -4 19 -18.5t-9 -28.5q-11 -9 -61 -9q-22 0 -58 1t-47 1q-17 0 -32 -1.5t-28 -3.5t-19 -3q-26 -4 -45 -14l24 -426q0 -65 -6 -221q-1 -23 0 -96.5t0 -108.5q2 -35 31 -43q20 -6 80 -6q25 0 88 6t102 4 q135 -7 238 55q48 29 72 9q19 -16 1 -43q-29 -47 -110 -56q-112 -22 -185 -22q-29 0 -188 -8q-5 0 -26 -2t-34.5 -2t-33.5 0.5t-37 4.5t-31 11q-35 17 -18 194q10 108 -6 420.5t-15 372.5q4 239 -4 354q-4 60 -9 97.5t-8.5 49.5t-7.5 24t-6 24zM406 1620q4 28 40 47 q10 6 23.5 14t21.5 12.5t22.5 15.5t33.5 28q3 3 21.5 24.5t31.5 30.5q28 23 47 8q18 -16 8.5 -41t-39.5 -49q-53 -43 -84 -65q-5 -4 -18 -15t-19.5 -16t-17 -12t-19.5 -10t-18 -3q-8 0 -15 1.5t-13.5 9t-5.5 20.5z" />
<glyph unicode="&#xca;" horiz-adv-x="960" d="M190 1444q-2 15 11 26t31.5 7.5t29.5 -25.5q9 -21 12 -45q14 1 42.5 2t43.5 2q64 3 181 14q98 14 194 11q83 0 115 -45q21 -27 3 -45q-25 -22 -75 4q-18 10 -41 16t-58 6.5t-52 1t-65 -2.5t-54 -3q-100 -7 -139 -16q-13 -2 -47.5 -4.5t-49.5 -4.5q-4 -62 -4 -114 q0 -60 4 -160t4 -143v-8q36 -4 99 0q22 1 69 7.5t70 6.5q31 0 45 -4q13 -4 19 -18.5t-9 -28.5q-11 -9 -61 -9q-22 0 -58 1t-47 1q-17 0 -32 -1.5t-28 -3.5t-19 -3q-26 -4 -45 -14l24 -426q0 -65 -6 -221q-1 -23 0 -96.5t0 -108.5q2 -35 31 -43q20 -6 80 -6q25 0 88 6t102 4 q135 -7 238 55q48 29 72 9q19 -16 1 -43q-29 -47 -110 -56q-112 -22 -185 -22q-29 0 -188 -8q-5 0 -26 -2t-34.5 -2t-33.5 0.5t-37 4.5t-31 11q-35 17 -18 194q10 108 -6 420.5t-15 372.5q4 239 -4 354q-4 60 -9 97.5t-8.5 49.5t-7.5 24t-6 24zM274 1623q-2 30 17 75 q10 25 36.5 51.5t67.5 46.5q72 36 144.5 28t128.5 -63q77 -74 77 -145q0 -25 -13.5 -31.5t-29 3t-20.5 24.5q-24 69 -68 106q-40 34 -74.5 40.5t-84.5 -9.5q-83 -26 -117 -115q-15 -38 -40 -39q-21 -1 -24 28z" />
<glyph unicode="&#xcb;" horiz-adv-x="960" d="M190 1444q-2 15 11 26t31.5 7.5t29.5 -25.5q9 -21 12 -45q14 1 42.5 2t43.5 2q64 3 181 14q98 14 194 11q83 0 115 -45q21 -27 3 -45q-25 -22 -75 4q-18 10 -41 16t-58 6.5t-52 1t-65 -2.5t-54 -3q-100 -7 -139 -16q-13 -2 -47.5 -4.5t-49.5 -4.5q-4 -62 -4 -114 q0 -60 4 -160t4 -143v-8q36 -4 99 0q22 1 69 7.5t70 6.5q31 0 45 -4q13 -4 19 -18.5t-9 -28.5q-11 -9 -61 -9q-22 0 -58 1t-47 1q-17 0 -32 -1.5t-28 -3.5t-19 -3q-26 -4 -45 -14l24 -426q0 -65 -6 -221q-1 -23 0 -96.5t0 -108.5q2 -35 31 -43q20 -6 80 -6q25 0 88 6t102 4 q135 -7 238 55q48 29 72 9q19 -16 1 -43q-29 -47 -110 -56q-112 -22 -185 -22q-29 0 -188 -8q-5 0 -26 -2t-34.5 -2t-33.5 0.5t-37 4.5t-31 11q-35 17 -18 194q10 108 -6 420.5t-15 372.5q4 239 -4 354q-4 60 -9 97.5t-8.5 49.5t-7.5 24t-6 24zM293 1721q-11 24 4 69 q14 38 37.5 50t50.5 -7q43 -32 27 -90q-6 -26 -29 -41t-49 -10q-30 5 -41 29zM641 1721q-11 24 4 69q14 38 37.5 50t50.5 -7q43 -32 27 -90q-6 -26 -29 -41t-49 -10q-30 5 -41 29z" />
<glyph unicode="&#xcc;" horiz-adv-x="481" d="M123.5 1769q-4.5 18 11.5 31q10 13 43 -4q7 -7 20 -21t23 -24t15 -14q36 -31 54.5 -44t45.5 -26q38 -27 41 -47q1 -19 -10.5 -26t-24.5 -5q-9 0 -18 3t-19.5 10t-17 12t-19.5 16t-18 15q-50 36 -84 65q-15 11 -26.5 26t-16 33zM140 3.5q11 17.5 38 23.5q44 10 64.5 88.5 t18.5 194.5t-11 228t-20 219.5t-11 137.5q0 54 -2.5 171.5t-1.5 182.5q1 87 16 143.5t30.5 73.5t29.5 17q17 0 24 -15.5t-6 -46.5q-1 -2 -8.5 -15.5t-8.5 -15.5t-6.5 -13.5t-6.5 -15t-5 -14.5t-4.5 -17.5t-3 -18.5t-3 -23.5t-1 -26.5t-0.5 -32q0 -60 8.5 -158t8.5 -141 l40 -508q0 -27 -4 -91.5t-6 -113.5q-2 -36 -8.5 -75t-20 -84t-39 -74t-59.5 -29q-30 0 -41.5 15.5t-0.5 33z" />
<glyph unicode="&#xcd;" horiz-adv-x="481" d="M129 1620q2 11 13 24.5t28 22.5q9 6 23 14t21.5 12.5t22 15.5t33.5 28q3 3 22 24.5t32 30.5q29 23 47 8q18 -16 8.5 -41t-39.5 -49q-53 -43 -84 -65q-5 -4 -18 -15t-19.5 -16t-17 -12t-19.5 -10t-18 -3t-15.5 1.5t-13.5 9t-6 20.5zM140 3.5q11 17.5 38 23.5 q44 10 64.5 88.5t18.5 194.5t-11 228t-20 219.5t-11 137.5q0 54 -2.5 171.5t-1.5 182.5q1 87 16 143.5t30.5 73.5t29.5 17q17 0 24 -15.5t-6 -46.5q-1 -2 -8.5 -15.5t-8.5 -15.5t-6.5 -13.5t-6.5 -15t-5 -14.5t-4.5 -17.5t-3 -18.5t-3 -23.5t-1 -26.5t-0.5 -32 q0 -60 8.5 -158t8.5 -141l40 -508q0 -27 -4 -91.5t-6 -113.5q-2 -36 -8.5 -75t-20 -84t-39 -74t-59.5 -29q-30 0 -41.5 15.5t-0.5 33z" />
<glyph unicode="&#xce;" horiz-adv-x="481" d="M46 1623q-2 30 17 75q24 58 105 98q73 36 144.5 28t127.5 -63q78 -75 78 -145q0 -25 -13.5 -31.5t-29 3t-20.5 24.5q-24 69 -68 106q-40 34 -75 40.5t-85 -9.5q-41 -13 -69 -39t-47 -76q-15 -38 -40 -39q-21 -1 -25 28zM140 3.5q11 17.5 38 23.5q44 10 64.5 88.5 t18.5 194.5t-11 228t-20 219.5t-11 137.5q0 54 -2.5 171.5t-1.5 182.5q1 87 16 143.5t30.5 73.5t29.5 17q17 0 24 -15.5t-6 -46.5q-1 -2 -8.5 -15.5t-8.5 -15.5t-6.5 -13.5t-6.5 -15t-5 -14.5t-4.5 -17.5t-3 -18.5t-3 -23.5t-1 -26.5t-0.5 -32q0 -60 8.5 -158t8.5 -141 l40 -508q0 -27 -4 -91.5t-6 -113.5q-2 -36 -8.5 -75t-20 -84t-39 -74t-59.5 -29q-30 0 -41.5 15.5t-0.5 33z" />
<glyph unicode="&#xcf;" horiz-adv-x="481" d="M33 1721q-11 24 4 69q14 38 37.5 50t50.5 -7q43 -32 27 -90q-6 -26 -29 -41t-49 -10q-30 5 -41 29zM140 3.5q11 17.5 38 23.5q44 10 64.5 88.5t18.5 194.5t-11 228t-20 219.5t-11 137.5q0 54 -2.5 171.5t-1.5 182.5q1 87 16 143.5t30.5 73.5t29.5 17q17 0 24 -15.5 t-6 -46.5q-1 -2 -8.5 -15.5t-8.5 -15.5t-6.5 -13.5t-6.5 -15t-5 -14.5t-4.5 -17.5t-3 -18.5t-3 -23.5t-1 -26.5t-0.5 -32q0 -60 8.5 -158t8.5 -141l40 -508q0 -27 -4 -91.5t-6 -113.5q-2 -36 -8.5 -75t-20 -84t-39 -74t-59.5 -29q-30 0 -41.5 15.5t-0.5 33zM381 1721 q-11 24 4 69q14 38 37.5 50t50.5 -7q43 -32 27 -90q-6 -26 -29 -41t-49 -10q-30 5 -41 29z" />
<glyph unicode="&#xd0;" horiz-adv-x="952" d="M16 709q3 21 28.5 32t55.5 11h109h14q-4 114 -4 155q0 285 -4 342q-4 60 -9 97.5t-8.5 49.5t-7.5 24t-6 24q-2 15 11 26t31.5 7.5t29.5 -25.5q8 -2 28.5 -11.5t30.5 -13.5q110 -56 193 -139q50 -49 95.5 -119.5t92 -159.5t52.5 -100q43 -73 69 -213q4 -19 9.5 -48 t8.5 -43t6.5 -36.5t6 -47t4.5 -56.5q0 -41 -17 -98.5t-20 -75.5q-10 -58 -73.5 -165.5t-127.5 -154.5q-95 -70 -153 -88q-39 -11 -109 -20q-18 -2 -49 -2q-39 1 -71 13.5t-46 24t-18 19.5q-20 36 18 74q27 27 86 35v28q-3 73 -22 308t-25 339q-76 -11 -88 -12 q-80 -10 -82 -10q-39 0 -39 29zM215 -57q0 -30 61 -35q0 15 3 39v33q-28 -1 -46 -12.5t-18 -24.5zM262 1229q0 -60 4 -160t4 -143l9 -170q38 0 63 2q22 1 69 7.5t70 6.5q25 0 45 -8q6 -3 12.5 -9t8.5 -16t-10 -20q-13 -10 -62 -10h-184h-10l16 -283q0 -18 5 -95t5 -130v-35 q0 -59 10 -141q7 0 31 -7q51 -16 62 -43q9 -23 -7 -32.5t-36 12.5q-19 22 -43 25q7 -48 12 -70q51 0 131 33q85 35 172 131q44 50 70 93t63 142q23 62 23 158q0 145 -58 328q-19 60 -98 209q-47 93 -82 143q-73 105 -133 160q-84 79 -137 79q-3 0 -9.5 -1t-9.5 -1 q0 -16 -3 -66t-3 -89z" />
<glyph unicode="&#xd1;" horiz-adv-x="897" d="M43 5q9 18 35 24q52 12 76.5 86t27.5 211q0 254 -35 569q-7 74 -8.5 193.5t-3.5 160.5q-4 57 -2 97.5t6 67t11.5 42t14.5 21.5t15 6h4q2 -1 7.5 -3t7.5 -3q55 -37 104 -228q16 -62 53.5 -176t53.5 -178q4 -14 23 -95.5t35.5 -148t45.5 -162.5t57 -170q64 -230 107 -278 q10 -10 11 8l1 25v-8q-28 669 -31 829q-2 131 13 354q3 54 11.5 96.5t18 67t21 40.5t20.5 21.5t17 4.5q18 -2 24.5 -17t-8.5 -45q-21 -34 -29.5 -50t-15.5 -50t-10 -90q-3 -59 -0.5 -158.5t0.5 -140.5l16 -510q2 -62 3.5 -135t2.5 -93q1 -21 6.5 -60.5t7.5 -67t0 -56.5 t-16.5 -44t-42.5 -15t-50.5 17.5t-38.5 51t-27 64t-24 73.5t-21 64q-27 67 -65.5 197.5t-43.5 146.5q-28 98 -92 369q-11 51 -49 162t-51 157q-30 99 -37 90q-2 -2 -2 -6t4 -82q1 -37 2 -152.5t6 -168.5q27 -298 27 -369q0 -43 4 -161.5t2 -182.5q-2 -54 -18.5 -111.5 t-51.5 -104t-80 -46.5q-30 0 -44 16t-5 34zM98 1608.5q-1 13.5 14 31.5t46 31q15 6 48 21.5t50 22.5t43.5 13.5t50.5 6.5q30 0 61 -13t61.5 -31.5t45.5 -23.5q34 -13 63.5 -7t98.5 40q50 27 87 34.5t44 -18.5q0 -16 -17.5 -28.5t-76.5 -40.5q-92 -41 -126.5 -48t-80.5 9 q-25 9 -66.5 32.5t-65 31.5t-69 -0.5t-102.5 -45.5q-4 -3 -15.5 -10.5t-15 -9.5t-12.5 -7t-14 -6.5t-12 -3t-13.5 -1t-13.5 2.5q-12 4 -13 17.5zM197 1315l2 -21q-2 8 -2 21z" />
<glyph unicode="&#xd2;" horiz-adv-x="948" d="M121 645q0 127 14 207q33 185 71.5 305.5t115.5 228.5q30 41 62.5 64t61.5 26.5t51 -1t42 -15.5q14 -8 27 -17t18.5 -13.5t15.5 -14t12 -10.5q25 -19 56 -72q26 -43 75 -166q31 -77 47.5 -123.5t33 -113.5t20.5 -127q3 -45 1.5 -108.5t0.5 -123.5q1 -36 -1.5 -71.5 t-6.5 -55t-11.5 -52t-9.5 -44.5q-15 -72 -49 -145q-16 -34 -35 -54.5t-53 -44.5q-94 -67 -207 -20q-54 23 -92 80.5t-25 111.5q4 16 16.5 21.5t28.5 -5t27 -34.5q5 -11 13.5 -34.5t15.5 -37t20 -29t35 -23t53 -7.5q125 0 178 207q27 106 36 163.5t9 139.5t-6 156 q-5 60 -30 170.5t-52 177.5q-31 75 -76 148t-83 104q-26 20 -55.5 22.5t-55.5 -10.5t-48.5 -33.5t-41.5 -46.5q-10 -14 -18.5 -27.5t-15 -25t-12.5 -25.5t-10 -23t-8.5 -24t-6.5 -22t-6 -23t-5 -20.5t-4 -22t-4 -20.5l-22 -92q-21 -93 -27 -148q-1 -10 -7.5 -66.5t-10 -103 t-3.5 -92.5q0 -81 13 -144q31 -153 106 -272q36 -57 92 -94.5t115 -46.5q43 -6 54 -38q10 -27 -16 -39q-13 -6 -32 -5t-43 11.5t-42 22.5t-47 32t-42 28q-44 28 -103 124.5t-81 186.5q-26 101 -31 195q-2 27 -2 94zM357 1769q-4 18 12 31q10 13 43 -4q8 -8 29 -30.5 t28 -28.5q36 -31 54.5 -44t45.5 -26q38 -27 41 -47q1 -19 -10.5 -26t-24.5 -5q-9 0 -18 3t-19.5 10t-17 12t-19.5 16t-18 15q-50 36 -84 65q-15 11 -26.5 26t-15.5 33z" />
<glyph unicode="&#xd3;" horiz-adv-x="948" d="M121 645q0 127 14 207q33 185 71.5 305.5t115.5 228.5q30 41 62.5 64t61.5 26.5t51 -1t42 -15.5q14 -8 27 -17t18.5 -13.5t15.5 -14t12 -10.5q25 -19 56 -72q26 -43 75 -166q31 -77 47.5 -123.5t33 -113.5t20.5 -127q3 -45 1.5 -108.5t0.5 -123.5q1 -36 -1.5 -71.5 t-6.5 -55t-11.5 -52t-9.5 -44.5q-15 -72 -49 -145q-16 -34 -35 -54.5t-53 -44.5q-94 -67 -207 -20q-54 23 -92 80.5t-25 111.5q4 16 16.5 21.5t28.5 -5t27 -34.5q5 -11 13.5 -34.5t15.5 -37t20 -29t35 -23t53 -7.5q125 0 178 207q27 106 36 163.5t9 139.5t-6 156 q-5 60 -30 170.5t-52 177.5q-31 75 -76 148t-83 104q-26 20 -55.5 22.5t-55.5 -10.5t-48.5 -33.5t-41.5 -46.5q-10 -14 -18.5 -27.5t-15 -25t-12.5 -25.5t-10 -23t-8.5 -24t-6.5 -22t-6 -23t-5 -20.5t-4 -22t-4 -20.5l-22 -92q-21 -93 -27 -148q-1 -10 -7.5 -66.5t-10 -103 t-3.5 -92.5q0 -81 13 -144q31 -153 106 -272q36 -57 92 -94.5t115 -46.5q43 -6 54 -38q10 -27 -16 -39q-13 -6 -32 -5t-43 11.5t-42 22.5t-47 32t-42 28q-44 28 -103 124.5t-81 186.5q-26 101 -31 195q-2 27 -2 94zM342 1620q2 11 13 24.5t28 22.5q9 6 23 14t21.5 12.5 t22 15.5t33.5 28q3 3 22 24.5t32 30.5q28 23 47 8q18 -16 8.5 -41t-39.5 -49q-53 -43 -84 -65q-5 -4 -18 -15t-19.5 -16t-17 -12t-19.5 -10t-18 -3t-15.5 1.5t-13.5 9t-6 20.5z" />
<glyph unicode="&#xd4;" horiz-adv-x="948" d="M121 645q0 127 14 207q33 185 71.5 305.5t115.5 228.5q30 41 62.5 64t61.5 26.5t51 -1t42 -15.5q14 -8 27 -17t18.5 -13.5t15.5 -14t12 -10.5q25 -19 56 -72q26 -43 75 -166q31 -77 47.5 -123.5t33 -113.5t20.5 -127q3 -45 1.5 -108.5t0.5 -123.5q1 -36 -1.5 -71.5 t-6.5 -55t-11.5 -52t-9.5 -44.5q-15 -72 -49 -145q-16 -34 -35 -54.5t-53 -44.5q-94 -67 -207 -20q-54 23 -92 80.5t-25 111.5q4 16 16.5 21.5t28.5 -5t27 -34.5q5 -11 13.5 -34.5t15.5 -37t20 -29t35 -23t53 -7.5q125 0 178 207q27 106 36 163.5t9 139.5t-6 156 q-5 60 -30 170.5t-52 177.5q-31 75 -76 148t-83 104q-26 20 -55.5 22.5t-55.5 -10.5t-48.5 -33.5t-41.5 -46.5q-10 -14 -18.5 -27.5t-15 -25t-12.5 -25.5t-10 -23t-8.5 -24t-6.5 -22t-6 -23t-5 -20.5t-4 -22t-4 -20.5l-22 -92q-21 -93 -27 -148q-1 -10 -7.5 -66.5t-10 -103 t-3.5 -92.5q0 -81 13 -144q31 -153 106 -272q36 -57 92 -94.5t115 -46.5q43 -6 54 -38q10 -27 -16 -39q-13 -6 -32 -5t-43 11.5t-42 22.5t-47 32t-42 28q-44 28 -103 124.5t-81 186.5q-26 101 -31 195q-2 27 -2 94zM241 1623q-2 30 17 75q10 25 36.5 51.5t67.5 46.5 q72 36 144.5 28t128.5 -63q78 -75 78 -145q0 -25 -14 -31.5t-29.5 3t-20.5 24.5q-25 70 -67 106q-40 34 -75 40.5t-85 -9.5q-83 -26 -117 -115q-15 -38 -40 -39q-21 -1 -24 28z" />
<glyph unicode="&#xd5;" horiz-adv-x="948" d="M121 645q0 127 14 207q33 185 71.5 305.5t115.5 228.5q30 41 62.5 64t61.5 26.5t51 -1t42 -15.5q14 -8 27 -17t18.5 -13.5t15.5 -14t12 -10.5q25 -19 56 -72q26 -43 75 -166q31 -77 47.5 -123.5t33 -113.5t20.5 -127q3 -45 1.5 -108.5t0.5 -123.5q1 -36 -1.5 -71.5 t-6.5 -55t-11.5 -52t-9.5 -44.5q-15 -72 -49 -145q-16 -34 -35 -54.5t-53 -44.5q-94 -67 -207 -20q-54 23 -92 80.5t-25 111.5q4 16 16.5 21.5t28.5 -5t27 -34.5q5 -11 13.5 -34.5t15.5 -37t20 -29t35 -23t53 -7.5q125 0 178 207q27 106 36 163.5t9 139.5t-6 156 q-5 60 -30 170.5t-52 177.5q-31 75 -76 148t-83 104q-26 20 -55.5 22.5t-55.5 -10.5t-48.5 -33.5t-41.5 -46.5q-10 -14 -18.5 -27.5t-15 -25t-12.5 -25.5t-10 -23t-8.5 -24t-6.5 -22t-6 -23t-5 -20.5t-4 -22t-4 -20.5l-22 -92q-21 -93 -27 -148q-1 -10 -7.5 -66.5t-10 -103 t-3.5 -92.5q0 -81 13 -144q31 -153 106 -272q36 -57 92 -94.5t115 -46.5q43 -6 54 -38q10 -27 -16 -39q-13 -6 -32 -5t-43 11.5t-42 22.5t-47 32t-42 28q-44 28 -103 124.5t-81 186.5q-26 101 -31 195q-2 27 -2 94zM122 1608.5q-1 13.5 14 31.5t46 31q14 6 47.5 21.5 t50.5 22.5t44 13.5t51 6.5q30 0 61 -13t61.5 -31.5t45.5 -23.5q34 -13 63.5 -7t98.5 40q50 27 87 34.5t44 -18.5q0 -16 -17.5 -28.5t-77.5 -40.5q-92 -41 -126 -48t-80 9q-24 9 -55 26.5t-51.5 27t-49.5 14t-65.5 -7.5t-82.5 -42q-4 -3 -15.5 -10.5t-15 -9.5t-12.5 -7 t-14 -6.5t-12 -3t-13.5 -1t-13.5 2.5q-12 4 -13 17.5z" />
<glyph unicode="&#xd6;" horiz-adv-x="948" d="M121 645q0 127 14 207q33 185 71.5 305.5t115.5 228.5q30 41 62.5 64t61.5 26.5t51 -1t42 -15.5q14 -8 27 -17t18.5 -13.5t15.5 -14t12 -10.5q25 -19 56 -72q26 -43 75 -166q31 -77 47.5 -123.5t33 -113.5t20.5 -127q3 -45 1.5 -108.5t0.5 -123.5q1 -36 -1.5 -71.5 t-6.5 -55t-11.5 -52t-9.5 -44.5q-15 -72 -49 -145q-16 -34 -35 -54.5t-53 -44.5q-94 -67 -207 -20q-54 23 -92 80.5t-25 111.5q4 16 16.5 21.5t28.5 -5t27 -34.5q5 -11 13.5 -34.5t15.5 -37t20 -29t35 -23t53 -7.5q125 0 178 207q27 106 36 163.5t9 139.5t-6 156 q-5 60 -30 170.5t-52 177.5q-31 75 -76 148t-83 104q-26 20 -55.5 22.5t-55.5 -10.5t-48.5 -33.5t-41.5 -46.5q-10 -14 -18.5 -27.5t-15 -25t-12.5 -25.5t-10 -23t-8.5 -24t-6.5 -22t-6 -23t-5 -20.5t-4 -22t-4 -20.5l-22 -92q-21 -93 -27 -148q-1 -10 -7.5 -66.5t-10 -103 t-3.5 -92.5q0 -81 13 -144q31 -153 106 -272q36 -57 92 -94.5t115 -46.5q43 -6 54 -38q10 -27 -16 -39q-13 -6 -32 -5t-43 11.5t-42 22.5t-47 32t-42 28q-44 28 -103 124.5t-81 186.5q-26 101 -31 195q-2 27 -2 94zM248 1721q-11 24 4 69q14 38 37.5 50t50.5 -7 q43 -32 27 -90q-6 -26 -29 -41t-49 -10q-30 5 -41 29zM596 1721q-11 24 4 69q14 38 37.5 50t50.5 -7q43 -32 27 -90q-6 -26 -29 -41t-49 -10q-30 5 -41 29z" />
<glyph unicode="&#xd7;" horiz-adv-x="806" d="M115 905q0 13 8 21q34 27 98 -58q57 -72 162 -184q16 20 29 33q8 8 57.5 64.5t73.5 80.5q106 106 141 70q33 -33 -53 -98q-93 -70 -199 -185l-8 -8q54 -57 65 -66q26 -27 91 -88q35 -31 51.5 -47.5t31 -36.5t17.5 -38q2 -14 -5.5 -23t-27.5 -6t-45 24q-23 19 -42.5 39.5 t-48.5 55.5t-34 41q-59 64 -94 100q-5 -6 -43 -51q-8 -11 -34.5 -42t-35.5 -42q-18 -22 -38 -55.5t-34 -49.5t-30 -20q-13 -3 -26.5 8t-16 32t17.5 50q14 19 33 40.5t29 32t37 37t30 29.5q54 54 70 72q-8 9 -22.5 22t-16.5 15q-76 71 -113 110q-3 3 -13.5 15.5t-20 23.5 t-20 27t-16 29t-5.5 26z" />
<glyph unicode="&#xd8;" horiz-adv-x="948" d="M112 16.5q-5 18.5 12.5 30t45.5 6.5q45 -8 94.5 56.5t92.5 172.5t78.5 214.5t66.5 210t43 131.5l61 152.5t72 174.5q35 80 70.5 126t56 56t33.5 5q17 -7 17 -24.5t-24 -41.5q-32 -24 -45 -36.5t-32 -42t-41 -79.5q-23 -54 -53 -147.5t-48 -134.5l-157 -486 q-9 -21 -39 -76.5t-54 -105.5q-15 -32 -36 -66t-51 -70.5t-64.5 -53t-65.5 -2.5q-28 12 -33 30.5zM121 645q0 127 14 207q33 185 71.5 305.5t115.5 228.5q30 41 62.5 64t61.5 26.5t51 -1t42 -15.5q14 -8 27 -17t18.5 -13.5t15.5 -14t12 -10.5q25 -19 56 -72q26 -43 75 -166 q31 -77 47.5 -123.5t33 -113.5t20.5 -127q3 -45 1.5 -108.5t0.5 -123.5q1 -36 -1.5 -71.5t-6.5 -55t-11.5 -52t-9.5 -44.5q-15 -72 -49 -145q-16 -34 -35 -54.5t-53 -44.5q-94 -67 -207 -20q-54 23 -92 80.5t-25 111.5q4 17 14 27t20.5 6t15.5 -26q36 -156 159 -156 q125 0 178 207q27 106 36 163.5t9 139.5t-6 156q-5 60 -30 170.5t-52 177.5q-31 75 -76 148t-83 104q-26 20 -55.5 22.5t-55.5 -10.5t-48.5 -33.5t-41.5 -46.5q-10 -14 -18.5 -27.5t-15 -25t-12.5 -25.5t-10 -23t-8.5 -24t-6.5 -22t-6 -23t-5 -20.5t-4 -22t-4 -20.5l-22 -92 q-21 -93 -27 -148q-1 -10 -7.5 -66.5t-10 -103t-3.5 -92.5q0 -81 13 -144q31 -153 106 -272q36 -57 92 -94.5t115 -46.5q43 -6 54 -38q10 -27 -16 -39q-13 -6 -32 -5t-43 11.5t-42 22.5t-47 32t-42 28q-44 28 -103 124.5t-81 186.5q-26 101 -31 195q-2 27 -2 94z" />
<glyph unicode="&#xd9;" horiz-adv-x="1230" d="M92 1450q0 19 16.5 28.5t38.5 -3.5q21 -15 48 -57t41 -95q13 -50 20.5 -88.5t9.5 -55.5t3.5 -35t2.5 -24q6 -42 9 -182q1 -23 1.5 -94t2 -124.5t4.5 -90.5q2 -32 4 -65t3.5 -55.5t4.5 -49.5q16 -148 66 -264q40 -93 106.5 -155t138.5 -65q156 0 248 213q55 126 70 271 q3 27 4 50.5t2 58t2 65.5q2 41 4 150t4 155q7 163 10 182q1 5 2.5 23.5t3.5 35.5t10 55.5t21 88.5q14 53 37.5 90.5t44.5 52.5q22 14 39.5 4.5t15.5 -28.5q-2 -20 -19.5 -42t-37 -45t-38 -88.5t-21.5 -162.5q-1 -18 -7 -100t-6 -121q0 -17 2.5 -82t0.5 -107q-1 -17 -4 -67 t-7 -104.5t-8 -102.5q-13 -141 -78 -270q-12 -25 -24.5 -45.5t-20 -33t-21 -28t-17.5 -20t-19.5 -19.5t-18.5 -18q-76 -76 -172 -76q-40 0 -88.5 20.5t-83.5 55.5q-2 2 -21.5 21t-25.5 26t-21.5 26.5t-28.5 41.5t-28 51q-60 117 -73 268q-15 163 -19 274q-1 38 0.5 104 t1.5 85q0 39 -5.5 122t-6.5 99q-3 79 -16.5 139.5t-31 91.5t-35 52t-29 35.5t-11.5 27.5zM498.5 1769q-4.5 18 11.5 31q10 13 43 -4q8 -8 29 -30.5t28 -28.5q35 -30 54 -43.5t47 -26.5q38 -27 41 -47q1 -19 -10.5 -26t-24.5 -5q-9 0 -18 3t-19.5 10t-17 12t-19.5 16t-18 15 q-50 36 -84 65q-15 11 -26.5 26t-16 33z" />
<glyph unicode="&#xda;" horiz-adv-x="1230" d="M92 1450q0 19 16.5 28.5t38.5 -3.5q21 -15 48 -57t41 -95q13 -50 20.5 -88.5t9.5 -55.5t3.5 -35t2.5 -24q6 -42 9 -182q1 -23 1.5 -94t2 -124.5t4.5 -90.5q2 -32 4 -65t3.5 -55.5t4.5 -49.5q16 -148 66 -264q40 -93 106.5 -155t138.5 -65q156 0 248 213q55 126 70 271 q3 27 4 50.5t2 58t2 65.5q2 41 4 150t4 155q7 163 10 182q1 5 2.5 23.5t3.5 35.5t10 55.5t21 88.5q14 53 37.5 90.5t44.5 52.5q22 14 39.5 4.5t15.5 -28.5q-2 -20 -19.5 -42t-37 -45t-38 -88.5t-21.5 -162.5q-1 -18 -7 -100t-6 -121q0 -17 2.5 -82t0.5 -107q-1 -17 -4 -67 t-7 -104.5t-8 -102.5q-13 -141 -78 -270q-12 -25 -24.5 -45.5t-20 -33t-21 -28t-17.5 -20t-19.5 -19.5t-18.5 -18q-76 -76 -172 -76q-40 0 -88.5 20.5t-83.5 55.5q-2 2 -21.5 21t-25.5 26t-21.5 26.5t-28.5 41.5t-28 51q-60 117 -73 268q-15 163 -19 274q-1 38 0.5 104 t1.5 85q0 39 -5.5 122t-6.5 99q-3 79 -16.5 139.5t-31 91.5t-35 52t-29 35.5t-11.5 27.5zM483 1620q2 11 13 24.5t28 22.5q10 6 23.5 14t21.5 12.5t22.5 15.5t33.5 28q3 3 21.5 24.5t31.5 30.5q28 23 47 8q18 -16 8.5 -41t-39.5 -49q-53 -43 -84 -65q-5 -4 -18 -15 t-19.5 -16t-17 -12t-19.5 -10t-18 -3t-15.5 1.5t-13.5 9t-6 20.5z" />
<glyph unicode="&#xdb;" horiz-adv-x="1230" d="M92 1450q0 19 16.5 28.5t38.5 -3.5q21 -15 48 -57t41 -95q13 -50 20.5 -88.5t9.5 -55.5t3.5 -35t2.5 -24q6 -42 9 -182q1 -23 1.5 -94t2 -124.5t4.5 -90.5q2 -32 4 -65t3.5 -55.5t4.5 -49.5q16 -148 66 -264q40 -93 106.5 -155t138.5 -65q156 0 248 213q55 126 70 271 q3 27 4 50.5t2 58t2 65.5q2 41 4 150t4 155q7 163 10 182q1 5 2.5 23.5t3.5 35.5t10 55.5t21 88.5q14 53 37.5 90.5t44.5 52.5q22 14 39.5 4.5t15.5 -28.5q-2 -20 -19.5 -42t-37 -45t-38 -88.5t-21.5 -162.5q-1 -18 -7 -100t-6 -121q0 -17 2.5 -82t0.5 -107q-1 -17 -4 -67 t-7 -104.5t-8 -102.5q-13 -141 -78 -270q-12 -25 -24.5 -45.5t-20 -33t-21 -28t-17.5 -20t-19.5 -19.5t-18.5 -18q-76 -76 -172 -76q-40 0 -88.5 20.5t-83.5 55.5q-2 2 -21.5 21t-25.5 26t-21.5 26.5t-28.5 41.5t-28 51q-60 117 -73 268q-15 163 -19 274q-1 38 0.5 104 t1.5 85q0 39 -5.5 122t-6.5 99q-3 79 -16.5 139.5t-31 91.5t-35 52t-29 35.5t-11.5 27.5zM397 1623q-2 30 17 75q10 25 36.5 51.5t67.5 46.5q72 36 144.5 28t128.5 -63q77 -74 77 -145q0 -25 -13.5 -31.5t-29 3t-20.5 24.5q-24 69 -68 106q-40 34 -74.5 40.5t-84.5 -9.5 q-83 -26 -117 -115q-15 -38 -40 -39q-21 -1 -24 28z" />
<glyph unicode="&#xdc;" horiz-adv-x="1230" d="M92 1450q0 19 16.5 28.5t38.5 -3.5q21 -15 48 -57t41 -95q13 -50 20.5 -88.5t9.5 -55.5t3.5 -35t2.5 -24q6 -42 9 -182q1 -23 1.5 -94t2 -124.5t4.5 -90.5q2 -32 4 -65t3.5 -55.5t4.5 -49.5q16 -148 66 -264q40 -93 106.5 -155t138.5 -65q156 0 248 213q55 126 70 271 q3 27 4 50.5t2 58t2 65.5q2 41 4 150t4 155q7 163 10 182q1 5 2.5 23.5t3.5 35.5t10 55.5t21 88.5q14 53 37.5 90.5t44.5 52.5q22 14 39.5 4.5t15.5 -28.5q-2 -20 -19.5 -42t-37 -45t-38 -88.5t-21.5 -162.5q-1 -18 -7 -100t-6 -121q0 -17 2.5 -82t0.5 -107q-1 -17 -4 -67 t-7 -104.5t-8 -102.5q-13 -141 -78 -270q-12 -25 -24.5 -45.5t-20 -33t-21 -28t-17.5 -20t-19.5 -19.5t-18.5 -18q-76 -76 -172 -76q-40 0 -88.5 20.5t-83.5 55.5q-2 2 -21.5 21t-25.5 26t-21.5 26.5t-28.5 41.5t-28 51q-60 117 -73 268q-15 163 -19 274q-1 38 0.5 104 t1.5 85q0 39 -5.5 122t-6.5 99q-3 79 -16.5 139.5t-31 91.5t-35 52t-29 35.5t-11.5 27.5z" />
<glyph unicode="&#xdd;" horiz-adv-x="954" d="M12 1358q1 32 35 67q15 15 29 26t40 20.5t49 3.5t51.5 -36.5t51.5 -88.5q48 -117 138 -365q10 -28 106 -280q6 -21 14 -5q45 137 54 170q9 34 43.5 175.5t54.5 209.5q21 74 47.5 124t50 71t48 27t41.5 1t30 -16q32 -28 18 -50t-51 -7q-28 12 -58.5 -26t-48 -80.5 t-24.5 -71.5q-6 -20 -84 -318q-19 -70 -31.5 -115.5t-24 -85.5t-17 -59.5t-15 -48t-13 -39.5t-16 -46.5t-20.5 -57.5q-67 -191 -100 -267q-36 -83 -78 -140t-79 -82t-71.5 -30.5t-61 8.5t-42.5 42q-28 48 -4 71q18 16 37 3q8 -7 12 -19q22 -70 81 -40q62 32 126 155 q77 150 143 358q11 40 0.5 92.5t-47.5 147.5q-22 55 -51 143t-33 98q-31 85 -63 166t-64 166q-16 42 -35 62t-37.5 18.5t-36 -18t-32.5 -45.5q-15 -31 -40 -24q-23 7 -22 36zM371 1620q2 11 13 24.5t28 22.5q9 6 23 14t21.5 12.5t22 15.5t33.5 28q3 3 21.5 24.5t31.5 30.5 q28 23 47 8q18 -16 9 -41t-39 -49q-53 -43 -84 -65q-5 -4 -18 -15t-19.5 -16t-17 -12t-19.5 -10t-18 -3t-15.5 1.5t-13.5 9t-6 20.5zM539 723l2 8q-2 -4 -2 -8z" />
<glyph unicode="&#xde;" horiz-adv-x="684" d="M56 3q10 17 36 28q50 23 64 176q-60 10 -84 82q-20 36 20 76q29 29 74 32q2 27 2 76q2 60 0 128l-2.5 85t-4.5 78t-7 108q-13 248 24 390q6 23 30 26q26 3 31 -24q3 -15 -3 -35q-14 -54 -20.5 -116t-6 -113t1.5 -107q5 -5 18 -8q3 -4 46 -1.5t57 1.5q121 -9 184.5 -63.5 t110.5 -172.5q30 -75 -6 -174q-15 -40 -59.5 -97t-90.5 -95q-24 -19 -67 -37.5t-80 -26.5q-72 -16 -111 -16q-4 -42 -11.5 -79.5t-20.5 -76t-34.5 -61.5t-48.5 -23q-30 -1 -41 11t-1 29zM117 311q0 -17 12.5 -31.5t30.5 -19.5q1 14 6 92h-2q-25 0 -36 -12.5t-11 -28.5z M211 825q1 -27 5.5 -96t5.5 -106t-1 -148q-2 -23 -2 -80q20 -5 25 -6q50 -16 61 -43q9 -23 -7 -32.5t-36 12.5q-18 18 -43 22v-78v-10q15 0 27 2q91 8 160.5 49t132.5 125q43 57 43 142q0 98 -64 165q-23 25 -38 38t-41 27.5t-60.5 21t-81.5 6.5q-68 0 -86 -11z" />
<glyph unicode="&#xe0;" horiz-adv-x="782" d="M104 141q16 45 72 99.5t117 93.5q60 39 95.5 66.5t90.5 82.5q44 44 64 160q-2 41 -15 162q-11 68 -30 102q-32 49 -78 62t-86 -8q-53 -24 -88 -80q-37 -56 -37 -121q0 -43 61 -74q21 -12 26 -29t-10 -24.5t-50 0.5q-12 3 -38 23.5t-36 48.5q-20 57 -3 121.5t64 123.5 q89 110 203 86q52 -11 94 -53q8 -8 14.5 -16.5t10.5 -16t7 -13t5 -10.5l2 -5q21 -51 29 -117q12 -124 14 -187.5t-2 -218.5q-4 -88 -1.5 -166.5t11.5 -135.5t37 -80.5t74 -0.5q28 14 37 -10t-12 -42q-12 -12 -33 -11q-99 -25 -144 61q-36 -44 -107.5 -69.5t-148.5 -28.5 q-67 -3 -120.5 12t-75.5 52q-43 74 -13 161zM150 70q0 -23 12.5 -40.5t44.5 -37.5q32 -18 82 -19.5t91.5 7.5t76.5 22q67 24 88 90q-10 57 -4 125q3 47 3.5 83.5t-0.5 73.5t-1 48v39q-70 -67 -144 -122.5t-122 -87.5t-64 -50q-36 -40 -49.5 -67t-13.5 -64zM269 1360 q-4 18 12 31q10 12 43 -5q8 -8 29 -30.5t28 -28.5q36 -31 54.5 -44t45.5 -26q38 -27 41 -47q1 -19 -10.5 -25.5t-24.5 -4.5q-9 0 -18 3t-19.5 10t-16.5 11.5t-20 16t-18 14.5q-50 36 -84 65q-15 11 -26.5 26.5t-15.5 33.5z" />
<glyph unicode="&#xe1;" horiz-adv-x="782" d="M104 141q16 45 72 99.5t117 93.5q60 39 95.5 66.5t90.5 82.5q44 44 64 160q-2 41 -15 162q-11 68 -30 102q-32 49 -78 62t-86 -8q-53 -24 -88 -80q-37 -56 -37 -121q0 -43 61 -74q21 -12 26 -29t-10 -24.5t-50 0.5q-12 3 -38 23.5t-36 48.5q-20 57 -3 121.5t64 123.5 q89 110 203 86q52 -11 94 -53q8 -8 14.5 -16.5t10.5 -16t7 -13t5 -10.5l2 -5q21 -51 29 -117q12 -124 14 -187.5t-2 -218.5q-4 -88 -1.5 -166.5t11.5 -135.5t37 -80.5t74 -0.5q28 14 37 -10t-12 -42q-12 -12 -33 -11q-99 -25 -144 61q-36 -44 -107.5 -69.5t-148.5 -28.5 q-67 -3 -120.5 12t-75.5 52q-43 74 -13 161zM150 70q0 -23 12.5 -40.5t44.5 -37.5q32 -18 82 -19.5t91.5 7.5t76.5 22q67 24 88 90q-10 57 -4 125q3 47 3.5 83.5t-0.5 73.5t-1 48v39q-70 -67 -144 -122.5t-122 -87.5t-64 -50q-36 -40 -49.5 -67t-13.5 -64zM254 1210 q2 11 13 24.5t28 22.5q9 6 23 14t21.5 12.5t22 15.5t33.5 28q3 3 22 24.5t32 30.5q29 23 47 9q18 -16 8.5 -41.5t-39.5 -49.5q-53 -43 -84 -65q-4 -3 -18 -14.5t-20 -16t-16.5 -11.5t-19.5 -10t-18 -3t-15.5 1t-13.5 8.5t-6 20.5z" />
<glyph unicode="&#xe2;" horiz-adv-x="782" d="M104 141q16 45 72 99.5t117 93.5q60 39 95.5 66.5t90.5 82.5q44 44 64 160q-2 41 -15 162q-11 68 -30 102q-32 49 -78 62t-86 -8q-53 -24 -88 -80q-37 -56 -37 -121q0 -43 61 -74q21 -12 26 -29t-10 -24.5t-50 0.5q-12 3 -38 23.5t-36 48.5q-20 57 -3 121.5t64 123.5 q89 110 203 86q52 -11 94 -53q8 -8 14.5 -16.5t10.5 -16t7 -13t5 -10.5l2 -5q21 -51 29 -117q12 -124 14 -187.5t-2 -218.5q-4 -88 -1.5 -166.5t11.5 -135.5t37 -80.5t74 -0.5q28 14 37 -10t-12 -42q-12 -12 -33 -11q-99 -25 -144 61q-36 -44 -107.5 -69.5t-148.5 -28.5 q-67 -3 -120.5 12t-75.5 52q-43 74 -13 161zM150 70q0 -23 12.5 -40.5t44.5 -37.5q32 -18 82 -19.5t91.5 7.5t76.5 22q67 24 88 90q-10 57 -4 125q3 47 3.5 83.5t-0.5 73.5t-1 48v39q-70 -67 -144 -122.5t-122 -87.5t-64 -50q-36 -40 -49.5 -67t-13.5 -64zM160 1209 q-5 30 16 79q24 58 105 98q72 36 144 28t128 -62q78 -75 78 -146q0 -25 -14 -31.5t-29.5 3t-20.5 24.5q-25 71 -67 107q-40 34 -75 40t-85 -10q-41 -13 -69.5 -38.5t-47.5 -75.5q-15 -37 -39 -40q-20 -2 -24 24z" />
<glyph unicode="&#xe3;" horiz-adv-x="782" d="M40 1199.5q-1 13.5 14 31.5t46 31q12 5 47.5 21t51 22.5t43 13t51.5 6.5q30 0 61 -13t61.5 -31.5t45.5 -23.5q34 -13 63.5 -7t98.5 40q50 27 87 34.5t44 -17.5q0 -17 -18 -29.5t-77 -40.5q-92 -41 -126 -48t-80 9q-25 9 -66.5 32.5t-65 32t-69 0t-102.5 -45.5 q-4 -2 -14 -8.5t-13.5 -9t-11.5 -7t-12 -6t-11 -4t-11.5 -3t-11 0t-12.5 2.5q-12 4 -13 17.5zM104 141q16 45 72 99.5t117 93.5q60 39 95.5 66.5t90.5 82.5q44 44 64 160q-2 41 -15 162q-11 68 -30 102q-32 49 -78 62t-86 -8q-53 -24 -88 -80q-37 -56 -37 -121q0 -43 61 -74 q21 -12 26 -29t-10 -24.5t-50 0.5q-12 3 -38 23.5t-36 48.5q-20 57 -3 121.5t64 123.5q89 110 203 86q52 -11 94 -53q8 -8 14.5 -16.5t10.5 -16t7 -13t5 -10.5l2 -5q21 -51 29 -117q12 -124 14 -187.5t-2 -218.5q-4 -88 -1.5 -166.5t11.5 -135.5t37 -80.5t74 -0.5 q28 14 37 -10t-12 -42q-12 -12 -33 -11q-99 -25 -144 61q-36 -44 -107.5 -69.5t-148.5 -28.5q-67 -3 -120.5 12t-75.5 52q-43 74 -13 161zM150 70q0 -23 12.5 -40.5t44.5 -37.5q32 -18 82 -19.5t91.5 7.5t76.5 22q67 24 88 90q-10 57 -4 125q3 47 3.5 83.5t-0.5 73.5t-1 48 v39q-70 -67 -144 -122.5t-122 -87.5t-64 -50q-36 -40 -49.5 -67t-13.5 -64z" />
<glyph unicode="&#xe4;" horiz-adv-x="782" d="M104 141q16 45 72 99.5t117 93.5q60 39 95.5 66.5t90.5 82.5q44 44 64 160q-2 41 -15 162q-11 68 -30 102q-32 49 -78 62t-86 -8q-53 -24 -88 -80q-37 -56 -37 -121q0 -43 61 -74q21 -12 26 -29t-10 -24.5t-50 0.5q-12 3 -38 23.5t-36 48.5q-20 57 -3 121.5t64 123.5 q89 110 203 86q52 -11 94 -53q8 -8 14.5 -16.5t10.5 -16t7 -13t5 -10.5l2 -5q21 -51 29 -117q12 -124 14 -187.5t-2 -218.5q-4 -88 -1.5 -166.5t11.5 -135.5t37 -80.5t74 -0.5q28 14 37 -10t-12 -42q-12 -12 -33 -11q-99 -25 -144 61q-36 -44 -107.5 -69.5t-148.5 -28.5 q-67 -3 -120.5 12t-75.5 52q-43 74 -13 161zM150 70q0 -23 12.5 -40.5t44.5 -37.5q32 -18 82 -19.5t91.5 7.5t76.5 22q67 24 88 90q-10 57 -4 125q3 47 3.5 83.5t-0.5 73.5t-1 48v39q-70 -67 -144 -122.5t-122 -87.5t-64 -50q-36 -40 -49.5 -67t-13.5 -64zM154 1311 q-11 24 4 69q14 38 37.5 50t50.5 -7q42 -31 26 -90q-6 -26 -28.5 -41t-48.5 -10q-30 5 -41 29zM502 1311q-11 24 4 69q14 38 37.5 50t50.5 -7q43 -32 27 -90q-6 -26 -29 -41t-49 -10q-30 5 -41 29z" />
<glyph unicode="&#xe5;" horiz-adv-x="782" d="M104 141q16 45 72 99.5t117 93.5q60 39 95.5 66.5t90.5 82.5q44 44 64 160q-2 41 -15 162q-11 68 -30 102q-32 49 -78 62t-86 -8q-53 -24 -88 -80q-37 -56 -37 -121q0 -43 61 -74q21 -12 26 -29t-10 -24.5t-50 0.5q-12 3 -38 23.5t-36 48.5q-20 57 -3 121.5t64 123.5 q89 110 203 86q52 -11 94 -53q8 -8 14.5 -16.5t10.5 -16t7 -13t5 -10.5l2 -5q21 -51 29 -117q12 -124 14 -187.5t-2 -218.5q-4 -88 -1.5 -166.5t11.5 -135.5t37 -80.5t74 -0.5q28 14 37 -10t-12 -42q-12 -12 -33 -11q-99 -25 -144 61q-36 -44 -107.5 -69.5t-148.5 -28.5 q-67 -3 -120.5 12t-75.5 52q-43 74 -13 161zM150 70q0 -23 12.5 -40.5t44.5 -37.5q32 -18 82 -19.5t91.5 7.5t76.5 22q67 24 88 90q-10 57 -4 125q3 47 3.5 83.5t-0.5 73.5t-1 48v39q-70 -67 -144 -122.5t-122 -87.5t-64 -50q-36 -40 -49.5 -67t-13.5 -64zM231 1337 q7 30 17 58.5t28 64t46.5 57t62.5 21.5q45 0 86.5 -36t63.5 -107q13 -39 14 -76t-10 -68t-39.5 -50.5t-71.5 -20.5q-38 -1 -48 24q-9 23 15 33q9 4 21 4q41 0 60.5 14t19.5 50q0 69 -27.5 122.5t-77.5 53.5q-58 0 -92 -95q-48 -129 2 -196q7 -9 15 -15.5t14.5 -10t17.5 -5 t16.5 -1.5t19 0.5t19.5 0.5q34 0 45 -16t-12 -33q-26 -21 -83 -13t-87 40q-65 70 -35 200z" />
<glyph unicode="&#xe6;" horiz-adv-x="1126" d="M104 141q16 45 72 99.5t117 93.5q60 39 95.5 66.5t90.5 82.5q44 44 64 160q-2 41 -15 162q-11 68 -30 102q-32 49 -78 62t-86 -8q-53 -24 -88 -80q-37 -56 -37 -121q0 -43 61 -74q21 -12 26 -29t-10 -24.5t-50 0.5q-12 3 -38 23.5t-36 48.5q-20 57 -3 121.5t64 123.5 q89 110 203 86q52 -11 94 -53q8 -8 14.5 -16.5t10.5 -16t7 -13t5 -10.5l2 -5q21 -51 29 -117q1 -18 3.5 -43.5t4 -44t2.5 -33.5l-47 -119l2 -94q-72 -71 -148 -128t-126 -90.5t-66 -51.5q-36 -40 -49.5 -67t-13.5 -64q0 -24 12.5 -42t44.5 -36q53 -29 133.5 -20t165.5 53 q40 21 58 49.5t16 46.5l-2 18l49 -86q-55 -70 -129.5 -102t-184.5 -35q-156 -4 -196 64q-43 74 -13 161zM449.5 667q3.5 19 19.5 33q33 33 96 25q6 21 16.5 47t14.5 39q15 47 46.5 93t74.5 75q87 60 170 47q74 -10 115.5 -65t41.5 -136q-1 -55 -36.5 -113t-87.5 -102 q-107 -90 -244 -90q-44 0 -84 10q-1 -7 -2 -24t-2 -25q-4 -40 -4 -57q3 -140 57 -268q17 -41 39 -70.5t63 -58.5q55 -37 115.5 -42t106 33.5t47.5 116.5q1 45 24 48q21 3 34 -31q5 -13 7 -31q7 -71 -45.5 -135t-152.5 -64q-43 0 -91.5 13t-78.5 36q-49 37 -72.5 65t-61.5 99 q-40 71 -51 211q-11 119 4 211q-24 11 -42 27.5t-25 29.5q-6 8 -10.5 21t-1 32zM505.5 639.5q9.5 -15.5 31.5 -25.5q1 2 2 6.5t2 6.5q8 31 10 47q-32 3 -43.5 -8t-2 -26.5zM600 592q22 -7 72 -10q114 -6 202 71q31 26 57 64t36 63l10 25q13 50 -7 95t-73 56q-56 12 -104 -6 t-80 -58t-52.5 -83.5t-31.5 -91.5q-2 -2 -2 -6l8 -2q18 -7 36.5 -22.5t24.5 -27.5q12 -29 -5.5 -41.5t-39.5 9.5q-13 13 -39 28q-1 -8 -6 -30t-6 -33z" />
<glyph unicode="&#xe7;" horiz-adv-x="686" d="M90 438q0 152 80 375q30 84 96.5 151.5t134.5 67.5q99 0 157 -69.5t58 -149.5q0 -21 -13 -35t-28 -14q-21 0 -24 33q-8 128 -86 157q-33 11 -53 11q-42 0 -79 -25t-61.5 -64.5t-40.5 -79.5t-24 -79q-6 -28 -16.5 -67.5t-17 -74t-13.5 -92.5q-2 -20 -2 -57 q4 -290 157 -391q57 -41 109 -41q83 0 131 115q17 41 45 41q25 0 25 -33q0 -78 -63 -134.5t-148 -56.5q-76 0 -139 47.5t-102.5 123t-61 164.5t-21.5 177zM210.5 -415q15.5 22 53.5 7q42 -18 98 -22q65 -5 106 23t40 92q-3 73 -92 102q-76 19 -92 20q-33 2 -34.5 39t18 77.5 t40.5 56.5q30 24 40 -4q7 -21 -5 -56q-14 -42 -11.5 -50t23.5 -13q10 -2 27 -5.5t29.5 -7t29.5 -10.5q1 -1 3 -2t3 -2q83 -40 88 -137q4 -79 -44.5 -128.5t-129.5 -58.5q-51 -6 -99 2t-75 29q-32 26 -16.5 48z" />
<glyph unicode="&#xe8;" horiz-adv-x="688" d="M11.5 667q3.5 19 19.5 33q33 33 96 25q6 21 16.5 47t14.5 39q15 47 46.5 93t74.5 75q87 60 170 47q74 -10 115.5 -65t41.5 -136q-1 -54 -37 -112.5t-88 -102.5q-107 -90 -243 -90q-44 0 -84 10q-1 -7 -2 -24t-2 -25q-5 -50 -5 -57q3 -138 58 -268q17 -41 39 -70.5 t63 -58.5q55 -37 115.5 -42t105.5 33.5t47 116.5q1 44 24 48q21 3 34 -30q6 -14 8 -32q7 -71 -46 -135t-153 -64q-43 0 -91.5 13t-78.5 36q-49 36 -71.5 64.5t-61.5 99.5q-40 71 -51 211q-11 119 4 211q-24 11 -42 27.5t-25 29.5q-6 8 -10.5 21t-1 32zM66.5 639.5 q9.5 -15.5 31.5 -25.5q1 2 2 6.5t2 6.5q10 40 11 47q-32 3 -44 -8t-2.5 -26.5zM162 592q22 -7 71 -10q115 -6 203 71q31 26 57 64t36 63l10 25q13 50 -7 95t-73 56q-56 12 -104 -6t-80 -58t-53 -84t-32 -91q-2 -2 -2 -6l9 -2q18 -7 36.5 -22.5t24.5 -27.5q12 -29 -5.5 -41.5 t-39.5 9.5q-13 13 -39 28q-1 -8 -6 -30t-6 -33zM246 1360q-4 18 12 31q10 12 43 -5q8 -8 29 -30.5t28 -28.5q35 -30 54 -43.5t47 -26.5q38 -27 41 -47q1 -19 -10.5 -25.5t-24.5 -4.5q-9 0 -18 3t-19.5 10t-16.5 11.5t-20 16t-18 14.5q-50 36 -84 65q-15 11 -27 26.5 t-16 33.5z" />
<glyph unicode="&#xe9;" horiz-adv-x="688" d="M11.5 667q3.5 19 19.5 33q33 33 96 25q6 21 16.5 47t14.5 39q15 47 46.5 93t74.5 75q87 60 170 47q74 -10 115.5 -65t41.5 -136q-1 -54 -37 -112.5t-88 -102.5q-107 -90 -243 -90q-44 0 -84 10q-1 -7 -2 -24t-2 -25q-5 -50 -5 -57q3 -138 58 -268q17 -41 39 -70.5 t63 -58.5q55 -37 115.5 -42t105.5 33.5t47 116.5q1 44 24 48q21 3 34 -30q6 -14 8 -32q7 -71 -46 -135t-153 -64q-43 0 -91.5 13t-78.5 36q-49 36 -71.5 64.5t-61.5 99.5q-40 71 -51 211q-11 119 4 211q-24 11 -42 27.5t-25 29.5q-6 8 -10.5 21t-1 32zM66.5 639.5 q9.5 -15.5 31.5 -25.5q1 2 2 6.5t2 6.5q10 40 11 47q-32 3 -44 -8t-2.5 -26.5zM162 592q22 -7 71 -10q115 -6 203 71q31 26 57 64t36 63l10 25q13 50 -7 95t-73 56q-56 12 -104 -6t-80 -58t-53 -84t-32 -91q-2 -2 -2 -6l9 -2q18 -7 36.5 -22.5t24.5 -27.5q12 -29 -5.5 -41.5 t-39.5 9.5q-13 13 -39 28q-1 -8 -6 -30t-6 -33zM236 1210q4 28 40 47q10 6 23.5 14t21.5 12.5t22.5 15.5t33.5 28q3 3 21.5 24.5t31.5 30.5q29 23 47 9q18 -16 8.5 -41.5t-39.5 -49.5q-53 -43 -84 -65q-4 -3 -18 -14.5t-20 -16t-16.5 -11.5t-19.5 -10t-18 -3t-15 1t-13 8.5 t-6 20.5z" />
<glyph unicode="&#xea;" horiz-adv-x="688" d="M11.5 667q3.5 19 19.5 33q33 33 96 25q6 21 16.5 47t14.5 39q15 47 46.5 93t74.5 75q87 60 170 47q74 -10 115.5 -65t41.5 -136q-1 -54 -37 -112.5t-88 -102.5q-107 -90 -243 -90q-44 0 -84 10q-1 -7 -2 -24t-2 -25q-5 -50 -5 -57q3 -138 58 -268q17 -41 39 -70.5 t63 -58.5q55 -37 115.5 -42t105.5 33.5t47 116.5q1 44 24 48q21 3 34 -30q6 -14 8 -32q7 -71 -46 -135t-153 -64q-43 0 -91.5 13t-78.5 36q-49 36 -71.5 64.5t-61.5 99.5q-40 71 -51 211q-11 119 4 211q-24 11 -42 27.5t-25 29.5q-6 8 -10.5 21t-1 32zM66.5 639.5 q9.5 -15.5 31.5 -25.5q1 2 2 6.5t2 6.5q10 40 11 47q-32 3 -44 -8t-2.5 -26.5zM127 1209q-5 30 16 79q24 58 105 98q72 36 144 28t128 -62q78 -75 78 -146q0 -25 -13.5 -31.5t-29 3t-20.5 24.5q-25 70 -68 107q-40 34 -75 40t-85 -10q-41 -13 -69.5 -38.5t-47.5 -75.5 q-15 -37 -39 -40q-20 -2 -24 24zM162 592q22 -7 71 -10q115 -6 203 71q31 26 57 64t36 63l10 25q13 50 -7 95t-73 56q-56 12 -104 -6t-80 -58t-53 -84t-32 -91q-2 -2 -2 -6l9 -2q18 -7 36.5 -22.5t24.5 -27.5q12 -29 -5.5 -41.5t-39.5 9.5q-13 13 -39 28q-1 -8 -6 -30 t-6 -33z" />
<glyph unicode="&#xeb;" horiz-adv-x="688" d="M11.5 667q3.5 19 19.5 33q33 33 96 25q6 21 16.5 47t14.5 39q15 47 46.5 93t74.5 75q87 60 170 47q74 -10 115.5 -65t41.5 -136q-1 -54 -37 -112.5t-88 -102.5q-107 -90 -243 -90q-44 0 -84 10q-1 -7 -2 -24t-2 -25q-5 -50 -5 -57q3 -138 58 -268q17 -41 39 -70.5 t63 -58.5q55 -37 115.5 -42t105.5 33.5t47 116.5q1 44 24 48q21 3 34 -30q6 -14 8 -32q7 -71 -46 -135t-153 -64q-43 0 -91.5 13t-78.5 36q-49 36 -71.5 64.5t-61.5 99.5q-40 71 -51 211q-11 119 4 211q-24 11 -42 27.5t-25 29.5q-6 8 -10.5 21t-1 32zM66.5 639.5 q9.5 -15.5 31.5 -25.5q1 2 2 6.5t2 6.5q10 40 11 47q-32 3 -44 -8t-2.5 -26.5zM133 1311q-11 24 4 69q14 38 37.5 50t50.5 -7q43 -32 27 -90q-6 -26 -29 -41t-49 -10q-30 5 -41 29zM162 592q22 -7 71 -10q115 -6 203 71q31 26 57 64t36 63l10 25q13 50 -7 95t-73 56 q-56 12 -104 -6t-80 -58t-53 -84t-32 -91q-2 -2 -2 -6l9 -2q18 -7 36.5 -22.5t24.5 -27.5q12 -29 -5.5 -41.5t-39.5 9.5q-13 13 -39 28q-1 -8 -6 -30t-6 -33zM481 1311q-11 24 4 69q14 38 37.5 50t50.5 -7q43 -32 27 -90q-6 -26 -29 -41t-49 -10q-30 5 -41 29z" />
<glyph unicode="&#xec;" horiz-adv-x="413" d="M60 -5q10 17 36 28q26 12 42 50t23.5 103.5t9.5 114.5t3 129q1 97 -0.5 150t-6 121.5t-7.5 127.5q-2 53 4 96t16 68t23.5 42t24 23t18.5 7q11 0 18.5 -7t7 -23t-13.5 -38q-17 -29 -24 -45.5t-12.5 -47.5t-4.5 -75q0 -24 7.5 -149.5t2.5 -247.5q-1 -25 -1 -89t-1 -116 q-1 -35 -7 -75t-19 -84.5t-38 -73.5t-59 -29q-30 -1 -41 11t-1 29zM88 1360q-4 18 12 31q10 12 43 -5q7 -7 20 -21t23 -24t15 -14q36 -31 54.5 -44t45.5 -26q38 -27 41 -47q1 -19 -10.5 -25.5t-24.5 -4.5q-9 0 -18 3t-19.5 10t-16.5 11.5t-20 16t-18 14.5q-50 36 -84 65 q-15 11 -27 26.5t-16 33.5z" />
<glyph unicode="&#xed;" horiz-adv-x="413" d="M60 -5q10 17 36 28q26 12 42 50t23.5 103.5t9.5 114.5t3 129q1 97 -0.5 150t-6 121.5t-7.5 127.5q-2 53 4 96t16 68t23.5 42t24 23t18.5 7q11 0 18.5 -7t7 -23t-13.5 -38q-17 -29 -24 -45.5t-12.5 -47.5t-4.5 -75q0 -24 7.5 -149.5t2.5 -247.5q-1 -25 -1 -89t-1 -116 q-1 -35 -7 -75t-19 -84.5t-38 -73.5t-59 -29q-30 -1 -41 11t-1 29zM76 1210q2 11 13 24.5t28 22.5q9 6 23 14t21.5 12.5t22 15.5t33.5 28q3 3 21.5 24.5t31.5 30.5q29 23 47 9q18 -16 9 -41.5t-39 -49.5q-53 -43 -84 -65q-4 -3 -18 -14.5t-20 -16t-16.5 -11.5t-19.5 -10 t-18 -3t-15.5 1t-13.5 8.5t-6 20.5z" />
<glyph unicode="&#xee;" horiz-adv-x="413" d="M-12 1209q-5 30 16 79q24 58 105 98q72 36 144 28t128 -62q78 -75 78 -146q0 -25 -14 -31.5t-29.5 3t-20.5 24.5q-25 71 -67 107q-40 34 -75 40t-85 -10q-41 -13 -69.5 -38.5t-47.5 -75.5q-15 -37 -39 -40q-20 -2 -24 24zM60 -5q10 17 36 28q26 12 42 50t23.5 103.5 t9.5 114.5t3 129q1 97 -0.5 150t-6 121.5t-7.5 127.5q-2 53 4 96t16 68t23.5 42t24 23t18.5 7q11 0 18.5 -7t7 -23t-13.5 -38q-17 -29 -24 -45.5t-12.5 -47.5t-4.5 -75q0 -24 7.5 -149.5t2.5 -247.5q-1 -25 -1 -89t-1 -116q-1 -35 -7 -75t-19 -84.5t-38 -73.5t-59 -29 q-30 -1 -41 11t-1 29z" />
<glyph unicode="&#xef;" horiz-adv-x="413" d="M-10 1311q-11 24 4 69q14 38 37.5 50t50.5 -7q43 -32 27 -90q-6 -26 -29 -41t-49 -10q-30 5 -41 29zM60 -5q10 17 36 28q26 12 42 50t23.5 103.5t9.5 114.5t3 129q1 97 -0.5 150t-6 121.5t-7.5 127.5q-2 53 4 96t16 68t23.5 42t24 23t18.5 7q11 0 18.5 -7t7 -23 t-13.5 -38q-17 -29 -24 -45.5t-12.5 -47.5t-4.5 -75q0 -24 7.5 -149.5t2.5 -247.5q-1 -25 -1 -89t-1 -116q-1 -35 -7 -75t-19 -84.5t-38 -73.5t-59 -29q-30 -1 -41 11t-1 29zM338 1311q-11 24 4 69q14 38 37.5 50t50.5 -7q43 -32 27 -90q-6 -26 -29 -41t-49 -10 q-30 5 -41 29z" />
<glyph unicode="&#xf0;" horiz-adv-x="894" d="M102 952q0 150 90.5 262.5t206.5 112.5q43 0 85 -18.5t72.5 -46.5t48 -48.5t28.5 -37.5q31 -51 51 -140q31 23 51 23q29 0 43.5 -16.5t14.5 -43.5q0 -39 -22 -98t-52 -108q0 -165 -17 -349q-12 -124 -50.5 -245t-88.5 -199q-39 -63 -101.5 -102t-119.5 -39q-73 0 -134 71 t-61 166q0 18 9 27.5t22 9.5t23.5 -9.5t11.5 -27.5q3 -80 39.5 -126t101.5 -46q36 0 80 27t68 63q25 38 40.5 67t38.5 86.5t38.5 138t21.5 181.5q0 4 8 218q-106 -132 -227 -132q-73 0 -130.5 26t-92 66t-57.5 92.5t-31.5 100t-8.5 94.5zM162 936q0 -118 74.5 -209.5 t187.5 -91.5q17 0 27 2q100 10 204 172v43q0 12 -1 32.5t-1 30.5q-14 -28 -26 -59q-21 -49 -42 -41q-16 6 -16 33q0 12 4 24.5t7.5 20.5t11.5 21.5t10 17.5q13 24 41 61q-10 55 -41 123q-29 54 -83.5 102t-112.5 48q-59 0 -107.5 -33.5t-77 -85t-44 -107t-15.5 -104.5z M698 981q13 -56 17 -84q24 55 24 84q0 16 -10 16q-15 0 -31 -16z" />
<glyph unicode="&#xf1;" horiz-adv-x="864" d="M73 936q8 16 25 33q24 24 52 37t55.5 11.5t47 -33t23.5 -91.5q3 -19 13 -19q6 0 24 20.5t49 52.5t60 52q26 18 54 26.5t62 2t62 -32.5q40 -37 61 -128.5t19 -176.5q-1 -73 0 -183.5t0 -174.5q-2 -147 10 -214.5t47 -94.5q37 -29 20 -52q-14 -21 -46 -11q-39 13 -58 67 q-28 81 -28 335q0 27 -4.5 95.5t-4.5 130.5q0 16 3 63t2 78q-1 41 -7 80t-18.5 76t-35.5 59.5t-54 22.5q-53 0 -121 -71t-88 -128q-16 -47 -16 -68q8 -144 8 -278q0 -101 -2 -205q-1 -35 -7 -75t-19 -84.5t-38 -73.5t-59 -29q-30 -1 -41 11t-1 29t36 28q26 12 42 50 t23.5 103.5t9.5 114.5t3 129q1 97 -1 151t-6.5 120.5t-7.5 127.5q-2 45 -8 71.5t-13 36.5t-18.5 6.5t-19.5 -10t-22 -21t-19 -19.5q-16 -15 -38 -1q-28 17 -10 54zM81 1199.5q-1 13.5 14 31.5t46 31q12 5 47.5 21t51 22.5t43 13t51.5 6.5q30 0 61 -13t61.5 -31.5t45.5 -23.5 q34 -13 63.5 -7t98.5 40q50 27 87 34.5t44 -17.5q0 -17 -18 -29.5t-77 -40.5q-92 -41 -126 -48t-80 9q-25 9 -67 32.5t-65 32t-69 0t-103 -45.5q-4 -3 -15.5 -10.5t-15 -9.5t-12.5 -7t-14 -6.5t-12 -3t-13.5 -1t-13.5 2.5q-12 4 -13 17.5z" />
<glyph unicode="&#xf2;" horiz-adv-x="864" d="M82 395q0 151 50.5 315t135.5 283q30 41 62.5 64t61.5 26.5t51 -1t42 -15.5q14 -8 26.5 -16.5t18.5 -14t15 -14t12 -10.5q27 -21 57 -72q47 -76 88 -182q27 -68 41.5 -110.5t27.5 -102t13 -111.5q0 -168 -71 -268q-23 -33 -38 -47t-48 -33q-56 -30 -120.5 -29.5 t-131.5 27.5q-47 19 -44 49q1 21 26 27q19 4 40 -6q69 -31 103 -33q92 -3 160.5 75t68.5 226q0 127 -82 326q-30 75 -75.5 147.5t-84.5 103.5q-26 20 -55 23t-55.5 -10.5t-48.5 -33.5t-41 -46q-27 -39 -47 -82t-28 -68t-19 -67q-1 -4 -14 -49t-16.5 -61.5t-11.5 -55.5 t-11 -74.5t-3 -75.5q0 -84 20 -143.5t62 -120.5q37 -53 69 -70.5t95 -27.5q44 -6 56 -37q11 -26 -16 -37q-12 -5 -30 -4q-66 2 -153 72q-61 48 -101 121q-57 109 -57 243zM297 1360q-4 18 12 31q10 12 43 -5q7 -7 20 -21t23 -24t15 -14q36 -31 54.5 -44t45.5 -26 q38 -27 41 -47q1 -19 -10.5 -25.5t-24.5 -4.5q-9 0 -18 3t-19.5 10t-16.5 11.5t-20 16t-18 14.5q-50 36 -84 65q-15 11 -27 26.5t-16 33.5z" />
<glyph unicode="&#xf3;" horiz-adv-x="864" d="M82 395q0 151 50.5 315t135.5 283q30 41 62.5 64t61.5 26.5t51 -1t42 -15.5q14 -8 26.5 -16.5t18.5 -14t15 -14t12 -10.5q27 -21 57 -72q47 -76 88 -182q27 -68 41.5 -110.5t27.5 -102t13 -111.5q0 -168 -71 -268q-23 -33 -38 -47t-48 -33q-56 -30 -120.5 -29.5 t-131.5 27.5q-47 19 -44 49q1 21 26 27q19 4 40 -6q69 -31 103 -33q92 -3 160.5 75t68.5 226q0 127 -82 326q-30 75 -75.5 147.5t-84.5 103.5q-26 20 -55 23t-55.5 -10.5t-48.5 -33.5t-41 -46q-27 -39 -47 -82t-28 -68t-19 -67q-1 -4 -14 -49t-16.5 -61.5t-11.5 -55.5 t-11 -74.5t-3 -75.5q0 -84 20 -143.5t62 -120.5q37 -53 69 -70.5t95 -27.5q44 -6 56 -37q11 -26 -16 -37q-12 -5 -30 -4q-66 2 -153 72q-61 48 -101 121q-57 109 -57 243zM301 1210q2 11 13 24.5t28 22.5q9 6 23 14t21.5 12.5t22 15.5t33.5 28q3 3 22 24.5t32 30.5 q29 23 47 9q18 -16 8.5 -41.5t-39.5 -49.5q-53 -43 -84 -65q-4 -3 -18 -14.5t-20 -16t-16.5 -11.5t-19.5 -10t-18 -3t-15.5 1t-13.5 8.5t-6 20.5z" />
<glyph unicode="&#xf4;" horiz-adv-x="864" d="M82 395q0 151 50.5 315t135.5 283q30 41 62.5 64t61.5 26.5t51 -1t42 -15.5q14 -8 26.5 -16.5t18.5 -14t15 -14t12 -10.5q27 -21 57 -72q47 -76 88 -182q27 -68 41.5 -110.5t27.5 -102t13 -111.5q0 -168 -71 -268q-23 -33 -38 -47t-48 -33q-56 -30 -120.5 -29.5 t-131.5 27.5q-47 19 -44 49q1 21 26 27q19 4 40 -6q69 -31 103 -33q92 -3 160.5 75t68.5 226q0 127 -82 326q-30 75 -75.5 147.5t-84.5 103.5q-26 20 -55 23t-55.5 -10.5t-48.5 -33.5t-41 -46q-27 -39 -47 -82t-28 -68t-19 -67q-1 -4 -14 -49t-16.5 -61.5t-11.5 -55.5 t-11 -74.5t-3 -75.5q0 -84 20 -143.5t62 -120.5q37 -53 69 -70.5t95 -27.5q44 -6 56 -37q11 -26 -16 -37q-12 -5 -30 -4q-66 2 -153 72q-61 48 -101 121q-57 109 -57 243zM191 1209q-5 30 16 79q10 25 36.5 51.5t67.5 46.5q72 36 144.5 28t128.5 -62q78 -75 78 -146 q0 -25 -14 -31.5t-29.5 3t-20.5 24.5q-25 70 -68 107q-40 34 -74.5 40t-84.5 -10q-41 -13 -69.5 -38.5t-47.5 -75.5q-15 -37 -39 -40q-20 -2 -24 24z" />
<glyph unicode="&#xf5;" horiz-adv-x="864" d="M81 1199.5q-1 13.5 14 31.5t46 31q12 5 47.5 21t51 22.5t43 13t51.5 6.5q30 0 61 -13t61.5 -31.5t45.5 -23.5q34 -13 63.5 -7t98.5 40q50 27 87 34.5t44 -17.5q0 -17 -18 -29.5t-77 -40.5q-92 -41 -126 -48t-80 9q-25 9 -67 32.5t-65 32t-69 0t-103 -45.5 q-4 -3 -15.5 -10.5t-15 -9.5t-12.5 -7t-14 -6.5t-12 -3t-13.5 -1t-13.5 2.5q-12 4 -13 17.5zM82 395q0 151 50.5 315t135.5 283q30 41 62.5 64t61.5 26.5t51 -1t42 -15.5q14 -8 26.5 -16.5t18.5 -14t15 -14t12 -10.5q27 -21 57 -72q47 -76 88 -182q27 -68 41.5 -110.5 t27.5 -102t13 -111.5q0 -168 -71 -268q-23 -33 -38 -47t-48 -33q-56 -30 -120.5 -29.5t-131.5 27.5q-47 19 -44 49q1 21 26 27q19 4 40 -6q69 -31 103 -33q92 -3 160.5 75t68.5 226q0 127 -82 326q-30 75 -75.5 147.5t-84.5 103.5q-26 20 -55 23t-55.5 -10.5t-48.5 -33.5 t-41 -46q-27 -39 -47 -82t-28 -68t-19 -67q-1 -4 -14 -49t-16.5 -61.5t-11.5 -55.5t-11 -74.5t-3 -75.5q0 -84 20 -143.5t62 -120.5q37 -53 69 -70.5t95 -27.5q44 -6 56 -37q11 -26 -16 -37q-12 -5 -30 -4q-66 2 -153 72q-61 48 -101 121q-57 109 -57 243z" />
<glyph unicode="&#xf6;" horiz-adv-x="864" d="M82 395q0 151 50.5 315t135.5 283q30 41 62.5 64t61.5 26.5t51 -1t42 -15.5q14 -8 26.5 -16.5t18.5 -14t15 -14t12 -10.5q27 -21 57 -72q47 -76 88 -182q27 -68 41.5 -110.5t27.5 -102t13 -111.5q0 -168 -71 -268q-23 -33 -38 -47t-48 -33q-56 -30 -120.5 -29.5 t-131.5 27.5q-47 19 -44 49q1 21 26 27q19 4 40 -6q69 -31 103 -33q92 -3 160.5 75t68.5 226q0 127 -82 326q-30 75 -75.5 147.5t-84.5 103.5q-26 20 -55 23t-55.5 -10.5t-48.5 -33.5t-41 -46q-27 -39 -47 -82t-28 -68t-19 -67q-1 -4 -14 -49t-16.5 -61.5t-11.5 -55.5 t-11 -74.5t-3 -75.5q0 -84 20 -143.5t62 -120.5q37 -53 69 -70.5t95 -27.5q44 -6 56 -37q11 -26 -16 -37q-12 -5 -30 -4q-66 2 -153 72q-61 48 -101 121q-57 109 -57 243zM190.5 1311q-10.5 24 4.5 69q14 38 37.5 50t50.5 -7q42 -31 26 -90q-6 -26 -29 -41t-49 -10 q-30 5 -40.5 29zM539 1311q-11 24 4 69q14 38 37.5 50t50.5 -7q42 -31 26 -90q-6 -26 -28.5 -41t-48.5 -10q-30 5 -41 29z" />
<glyph unicode="&#xf7;" horiz-adv-x="1007" d="M104 617.5q-2 16.5 13 34t47 22.5q23 4 50.5 5.5t45.5 1.5t50 -0.5t44 -0.5q119 0 205 8q123 12 195 12q151 0 149 -51q0 -46 -106 -31q-118 16 -271 13q-80 -4 -139 -13q-14 -2 -52 -4t-56 -4q-24 -3 -53 -9.5t-45.5 -10t-34 -3.5t-29.5 7q-11 7 -13 23.5zM451.5 347.5 q-11.5 31.5 5.5 74.5q19 46 39.5 58.5t46.5 -7.5q34 -26 16 -94q-7 -30 -25 -51t-42 -17q-29 5 -40.5 36.5zM461.5 863.5q-11.5 31.5 5.5 74.5q19 46 39.5 58.5t46.5 -7.5q34 -26 16 -94q-7 -30 -25 -51t-42 -17q-29 5 -40.5 36.5z" />
<glyph unicode="&#xf8;" horiz-adv-x="864" d="M60.5 -56.5q-4.5 16.5 11.5 27.5t41 6q40 -7 84.5 51.5t83 155.5t70.5 193t60.5 188.5t39.5 118.5q17 41 56 140.5t62 154.5q32 72 64.5 114t51.5 50.5t30 3.5q15 -7 15.5 -22t-21.5 -38q-31 -23 -42 -32.5t-28.5 -36.5t-36.5 -72q-21 -50 -47.5 -134t-42.5 -120 l-143 -438q-8 -17 -34 -67t-48 -97q-8 -15 -16.5 -30.5t-22 -36.5t-27 -37.5t-30.5 -34t-32.5 -25.5t-34 -12.5t-34.5 4.5q-25 9 -29.5 25.5zM82 395q0 151 50.5 315t135.5 283q30 41 62.5 64t61.5 26.5t51 -1t42 -15.5q14 -8 26.5 -16.5t18.5 -14t15 -14t12 -10.5 q27 -21 57 -72q47 -76 88 -182q27 -68 41.5 -110.5t27.5 -102t13 -111.5q0 -168 -71 -268q-23 -33 -38 -47t-48 -33q-56 -30 -120.5 -29.5t-131.5 27.5q-47 19 -44 49q1 21 26 27q19 4 40 -6q69 -31 103 -33q92 -3 160.5 75t68.5 226q0 127 -82 326q-30 75 -75.5 147.5 t-84.5 103.5q-26 20 -55 23t-55.5 -10.5t-48.5 -33.5t-41 -46q-27 -39 -47 -82t-28 -68t-19 -67q-1 -4 -14 -49t-16.5 -61.5t-11.5 -55.5t-11 -74.5t-3 -75.5q0 -84 20 -143.5t62 -120.5q37 -53 69 -70.5t95 -27.5q44 -6 56 -37q11 -26 -16 -37q-12 -5 -30 -4q-66 2 -153 72 q-61 48 -101 121q-57 109 -57 243z" />
<glyph unicode="&#xf9;" horiz-adv-x="813" d="M107 1033q14 21 46 11q39 -13 58 -67q6 -17 10.5 -39.5t7 -52.5t4.5 -52t2.5 -59t0.5 -52.5v-53v-41.5q0 -27 4 -99.5t4 -134.5q0 -14 -0.5 -41t-0.5 -51.5t1 -48.5q1 -41 7 -80t18.5 -76t35 -59.5t53.5 -22.5q53 0 121 71t88 128q15 52 15 66q-9 162 -7 280q0 57 3 213 q1 36 7 77.5t18.5 89.5t37.5 79t59 31q30 1 41.5 -11t1.5 -29t-36 -28q-25 -12 -41.5 -53t-24 -112t-9.5 -122t-3 -133q-1 -97 0.5 -150t6 -121.5t7.5 -127.5q2 -45 8 -71.5t13 -36.5t18.5 -6.5t19.5 10t22 21t19 19.5q16 15 38 1q28 -17 10 -54q-8 -16 -25 -33 q-24 -24 -52 -37t-56 -11.5t-48 33t-24 91.5q-4 18 -11 18q-6 0 -24 -20.5t-49 -52t-60 -51.5q-26 -18 -54 -26.5t-62 -2t-62 32.5q-40 37 -61 128.5t-19 176.5q1 73 0 187.5t0 178.5q2 150 -10.5 223.5t-46.5 100.5q-37 29 -20 52zM291 1360q-4 18 12 31q10 12 43 -5 q8 -8 29 -30.5t28 -28.5q35 -30 54 -43.5t47 -26.5q38 -27 41 -47q1 -19 -10.5 -25.5t-24.5 -4.5q-9 0 -18 3t-19.5 10t-16.5 11.5t-20 16t-18 14.5q-50 36 -84 65q-15 11 -27 26.5t-16 33.5z" />
<glyph unicode="&#xfa;" horiz-adv-x="813" d="M107 1033q14 21 46 11q39 -13 58 -67q6 -17 10.5 -39.5t7 -52.5t4.5 -52t2.5 -59t0.5 -52.5v-53v-41.5q0 -27 4 -99.5t4 -134.5q0 -14 -0.5 -41t-0.5 -51.5t1 -48.5q1 -41 7 -80t18.5 -76t35 -59.5t53.5 -22.5q53 0 121 71t88 128q15 52 15 66q-9 162 -7 280q0 57 3 213 q1 36 7 77.5t18.5 89.5t37.5 79t59 31q30 1 41.5 -11t1.5 -29t-36 -28q-25 -12 -41.5 -53t-24 -112t-9.5 -122t-3 -133q-1 -97 0.5 -150t6 -121.5t7.5 -127.5q2 -45 8 -71.5t13 -36.5t18.5 -6.5t19.5 10t22 21t19 19.5q16 15 38 1q28 -17 10 -54q-8 -16 -25 -33 q-24 -24 -52 -37t-56 -11.5t-48 33t-24 91.5q-4 18 -11 18q-6 0 -24 -20.5t-49 -52t-60 -51.5q-26 -18 -54 -26.5t-62 -2t-62 32.5q-40 37 -61 128.5t-19 176.5q1 73 0 187.5t0 178.5q2 150 -10.5 223.5t-46.5 100.5q-37 29 -20 52zM274 1210q2 11 13 24.5t28 22.5 q10 6 23.5 14t21.5 12.5t22.5 15.5t33.5 28q3 3 21.5 24.5t31.5 30.5q29 23 47 9q18 -16 8.5 -41.5t-39.5 -49.5q-53 -43 -84 -65q-4 -3 -18 -14.5t-20 -16t-16.5 -11.5t-19.5 -10t-18 -3t-15.5 1t-13.5 8.5t-6 20.5z" />
<glyph unicode="&#xfb;" horiz-adv-x="813" d="M107 1033q14 21 46 11q39 -13 58 -67q6 -17 10.5 -39.5t7 -52.5t4.5 -52t2.5 -59t0.5 -52.5v-53v-41.5q0 -27 4 -99.5t4 -134.5q0 -14 -0.5 -41t-0.5 -51.5t1 -48.5q1 -41 7 -80t18.5 -76t35 -59.5t53.5 -22.5q53 0 121 71t88 128q15 52 15 66q-9 162 -7 280q0 57 3 213 q1 36 7 77.5t18.5 89.5t37.5 79t59 31q30 1 41.5 -11t1.5 -29t-36 -28q-25 -12 -41.5 -53t-24 -112t-9.5 -122t-3 -133q-1 -97 0.5 -150t6 -121.5t7.5 -127.5q2 -45 8 -71.5t13 -36.5t18.5 -6.5t19.5 10t22 21t19 19.5q16 15 38 1q28 -17 10 -54q-8 -16 -25 -33 q-24 -24 -52 -37t-56 -11.5t-48 33t-24 91.5q-4 18 -11 18q-6 0 -24 -20.5t-49 -52t-60 -51.5q-26 -18 -54 -26.5t-62 -2t-62 32.5q-40 37 -61 128.5t-19 176.5q1 73 0 187.5t0 178.5q2 150 -10.5 223.5t-46.5 100.5q-37 29 -20 52zM189 1209q-5 30 16 79q10 25 36.5 51.5 t67.5 46.5q72 36 144.5 28t128.5 -62q77 -74 77 -146q0 -25 -13.5 -31.5t-29 3t-20.5 24.5q-25 70 -68 107q-40 34 -74.5 40t-84.5 -10q-41 -13 -69.5 -38.5t-47.5 -75.5q-15 -37 -39 -40q-20 -2 -24 24z" />
<glyph unicode="&#xfc;" horiz-adv-x="813" d="M107 1033q14 21 46 11q39 -13 58 -67q6 -17 10.5 -39.5t7 -52.5t4.5 -52t2.5 -59t0.5 -52.5v-53v-41.5q0 -27 4 -99.5t4 -134.5q0 -14 -0.5 -41t-0.5 -51.5t1 -48.5q1 -41 7 -80t18.5 -76t35 -59.5t53.5 -22.5q53 0 121 71t88 128q15 52 15 66q-9 162 -7 280q0 57 3 213 q1 36 7 77.5t18.5 89.5t37.5 79t59 31q30 1 41.5 -11t1.5 -29t-36 -28q-25 -12 -41.5 -53t-24 -112t-9.5 -122t-3 -133q-1 -97 0.5 -150t6 -121.5t7.5 -127.5q2 -45 8 -71.5t13 -36.5t18.5 -6.5t19.5 10t22 21t19 19.5q16 15 38 1q28 -17 10 -54q-8 -16 -25 -33 q-24 -24 -52 -37t-56 -11.5t-48 33t-24 91.5q-4 18 -11 18q-6 0 -24 -20.5t-49 -52t-60 -51.5q-26 -18 -54 -26.5t-62 -2t-62 32.5q-40 37 -61 128.5t-19 176.5q1 73 0 187.5t0 178.5q2 150 -10.5 223.5t-46.5 100.5q-37 29 -20 52zM192.5 1311q-10.5 24 4.5 69 q14 38 37.5 50t50.5 -7q42 -31 26 -90q-6 -26 -29 -41t-49 -10q-30 5 -40.5 29zM541 1311q-11 24 4 69q14 38 37.5 50t50.5 -7q42 -31 26 -90q-6 -26 -28.5 -41t-48.5 -10q-30 5 -41 29z" />
<glyph unicode="&#xfd;" horiz-adv-x="966" d="M-50.5 -373q-15.5 47 2 111t75.5 125q27 29 53 19q22 -9 11 -35q-3 -5 -7 -11q-40 -56 -57 -96t-16.5 -65t14.5 -48q36 -61 114 -55q41 3 78 22l12 7q43 23 80 65t66.5 100.5t51 112.5t44.5 125q9 35 -2.5 84t-46.5 141q-2 6 -92 250q-61 156 -156 387q-46 110 -94 120 q-31 7 -53 -36q-15 -30 -40 -24q-23 7 -22 36q1 32 35 68q12 12 29.5 18.5t42 4t50 -17t54 -52.5t51.5 -96q33 -80 76 -194.5t98 -241.5q27 -63 107 -273q8 -22 20 2q50 156 82 273q9 32 44 174.5t55 210.5q21 74 47.5 123.5t50 70.5t48 27t41.5 1t30 -16q31 -27 17.5 -48.5 t-50.5 -12.5q-27 13 -57.5 -24t-48.5 -79.5t-25 -70.5q-10 -37 -84 -317q-79 -295 -129 -453q-22 -71 -60.5 -158t-46.5 -108q-16 -44 -52 -98t-77 -89q-2 0 -6 -4q-1 -1 -4.5 -3.5t-5.5 -4.5q-56 -40 -117 -53t-106 -4t-72 32q-37 31 -52.5 78zM365 1210q2 11 13 24.5 t28 22.5q9 6 23 14t21.5 12.5t22 15.5t33.5 28q3 3 21.5 24.5t31.5 30.5q29 23 47 9q18 -16 8.5 -41.5t-39.5 -49.5q-62 -50 -83 -65q-2 -2 -17.5 -14.5t-20.5 -16t-17 -11.5t-20.5 -10.5t-17.5 -2.5t-15 1t-13 8.5t-6 20.5zM532 190l5 15q-1 -2 -2 -5t-2 -5t-1 -5z" />
<glyph unicode="&#xfe;" horiz-adv-x="681" d="M38 -187.5q11 17.5 38 23.5q82 18 82 285v45q-2 18 -2 53q-14 0 -26.5 3t-21.5 8t-17.5 12.5t-14 14t-11 15t-8 13.5l-5.5 11l-3 7q-20 35 21 76q30 30 75 33q-13 249 -12 293q4 239 -4 354q-4 60 -9 97.5t-8.5 49t-7.5 23.5t-6 24q-2 15 11 26.5t31.5 8t29.5 -25.5 q11 -23 12.5 -50.5t-2.5 -80.5t-4 -93q0 -83 2 -120q6 -12 29 -19q3 -4 45.5 -1.5t56.5 1.5q121 -9 184.5 -63t110.5 -172q30 -76 -6 -175q-15 -40 -59 -97t-90 -95q-24 -19 -67.5 -37.5t-80.5 -26.5q-65 -14 -90 -16q0 -12 -1 -44.5t-1 -53.5q0 -28 -0.5 -39t-1.5 -42.5 t-3 -47.5t-5 -46t-8 -47t-12 -41t-16.5 -38t-21 -28t-27.5 -20t-34 -6q-30 0 -41.5 15.5t-0.5 33zM94 326q0 -21 18.5 -36.5t39.5 -17.5q-1 16 -2.5 47.5t-2.5 47.5h-6q-25 0 -36 -12.5t-11 -28.5zM182 836q0 -18 1 -51.5t1 -49.5l17 -327l20 -5q51 -16 62 -43 q9 -23 -7 -32.5t-36 12.5q-14 14 -37 22l6 -88q2 0 6.5 1t7.5 1q91 8 160.5 49t132.5 126q43 57 43 141q0 100 -63 166q-30 32 -51 48.5t-65 30t-106 13.5q-82 0 -92 -14z" />
<glyph unicode="&#xff;" horiz-adv-x="966" d="M-50.5 -373q-15.5 47 2 111t75.5 125q27 29 53 19q22 -9 11 -35q-3 -5 -7 -11q-40 -56 -57 -96t-16.5 -65t14.5 -48q36 -61 114 -55q41 3 78 22l12 7q43 23 80 65t66.5 100.5t51 112.5t44.5 125q9 35 -2.5 84t-46.5 141q-2 6 -92 250q-61 156 -156 387q-46 110 -94 120 q-31 7 -53 -36q-15 -30 -40 -24q-23 7 -22 36q1 32 35 68q12 12 29.5 18.5t42 4t50 -17t54 -52.5t51.5 -96q33 -80 76 -194.5t98 -241.5q27 -63 107 -273q8 -22 20 2q50 156 82 273q9 32 44 174.5t55 210.5q21 74 47.5 123.5t50 70.5t48 27t41.5 1t30 -16q31 -27 17.5 -48.5 t-50.5 -12.5q-27 13 -57.5 -24t-48.5 -79.5t-25 -70.5q-10 -37 -84 -317q-79 -295 -129 -453q-22 -71 -60.5 -158t-46.5 -108q-16 -44 -52 -98t-77 -89q-2 0 -6 -4q-1 -1 -4.5 -3.5t-5.5 -4.5q-56 -40 -117 -53t-106 -4t-72 32q-37 31 -52.5 78zM254 1311q-11 24 4 69 q14 38 37.5 50t50.5 -7q43 -32 27 -90q-6 -26 -29 -41t-49 -10q-30 5 -41 29zM532 190l5 15q-1 -2 -2 -5t-2 -5t-1 -5zM602 1311q-11 24 4 69q14 38 37.5 50t50.5 -7q43 -32 27 -90q-6 -26 -29 -41t-49 -10q-30 5 -41 29z" />
<glyph unicode="&#x152;" horiz-adv-x="1193" d="M119 645q0 127 14 207q33 187 71 306.5t115 227.5q51 70 107 87q0 1 -1 6t-1 10q-2 15 11 26t31.5 7.5t29.5 -25.5q1 -3 3 -8t3 -8q1 0 92 6q62 3 180 14q93 14 195 10q82 0 114 -45q21 -27 3 -45q-24 -22 -74 4q-15 8 -37 13.5t-40 8t-49.5 2.5t-46.5 -0.5t-52 -2.5 t-46 -2q-94 -6 -139 -17q-12 -2 -45 -4t-49 -4q-6 -111 -6 -145q0 -60 4 -160t4 -143v-8q35 -4 98 0q22 1 69.5 7.5t70.5 6.5q31 0 45 -4q13 -4 19 -18.5t-9 -28.5q-10 -8 -62 -8q-23 0 -58 1t-46 1q-17 0 -32 -1.5t-28.5 -4t-19.5 -3.5q-26 -4 -45 -14l25 -426 q0 -39 -7 -221q-1 -23 0 -97t0 -110q2 -33 31 -41q20 -6 80 -6q25 0 88 6t102 4q135 -7 238 55q48 29 72 9q20 -15 2 -43q-29 -47 -111 -56q-112 -22 -184 -22q-30 0 -189 -8q-91 -5 -157 10q-18 2 -41 13t-40 22t-45 31t-40 28q-44 28 -103 124.5t-81 186.5 q-26 101 -31 195q-2 27 -2 94zM178 590q0 -86 12 -144q31 -150 107 -272q27 -43 75 -80.5t101 -60.5q-2 27 6 114q10 108 -5.5 420.5t-14.5 372.5q4 239 -4 354q-5 71 -13 117q-52 -15 -104 -86q-10 -14 -18.5 -27.5t-15 -25t-12.5 -25.5t-10 -23t-8.5 -24t-6.5 -22t-6 -23 t-5 -20.5t-4 -22t-4 -20.5l-22 -92q-21 -93 -27 -148q-1 -10 -7.5 -66.5t-10 -103t-3.5 -92.5z" />
<glyph unicode="&#x153;" horiz-adv-x="1552" d="M82 395q0 151 50.5 315t135.5 283q30 41 62.5 64t61.5 26.5t51 -1t42 -15.5q14 -8 26.5 -16.5t18.5 -14t15 -14t12 -10.5q27 -21 57 -72q47 -76 88 -182q5 -15 16.5 -43.5t16.5 -42.5q18 110 37 164q47 129 113 184q74 61 170 47q74 -10 115.5 -65t41.5 -136 q0 -54 -36 -112.5t-89 -102.5q-107 -90 -243 -90q-34 0 -58 6q0 -6 -1 -19t-1 -20q-2 -14 -2 -45q2 -16 2 -49v-26q6 -134 47 -230q26 -67 80.5 -109t126.5 -42q60 0 100.5 37.5t41.5 111.5q1 43 25 48q21 4 34 -25q6 -16 6 -37q0 -79 -51 -139t-147 -60q-43 0 -91.5 13 t-78.5 36q-42 32 -66 68t-43 94q-10 26 -18 64q-13 -34 -37 -72q-23 -33 -38 -47t-48 -33q-56 -30 -120.5 -29.5t-131.5 27.5q-47 19 -44 49q1 21 26 27q19 4 40 -6q69 -31 103 -33q92 -3 160.5 75t68.5 226q0 127 -82 326q-30 75 -75.5 147.5t-84.5 103.5q-26 20 -55 23 t-55.5 -10.5t-48.5 -33.5t-41 -46q-27 -39 -47 -82t-28 -68t-19 -67q-1 -4 -14 -49t-16.5 -61.5t-11.5 -55.5t-11 -74.5t-3 -75.5q0 -84 20 -143.5t62 -120.5q37 -53 69 -70.5t95 -27.5q44 -6 56 -37q11 -26 -16 -37q-12 -5 -30 -4q-66 2 -153 72q-61 48 -101 121 q-57 109 -57 243zM793 627q28 -4 47 -4q114 -6 202 71q42 37 75.5 89.5t33.5 101.5q0 40 -22 71.5t-64 40.5q-179 40 -244 -239q-4 -12 -4 -17q35 -18 47 -41q12 -29 -5.5 -41.5t-39.5 9.5q-3 2 -8 7t-8 7q-8 -37 -10 -55z" />
<glyph unicode="&#x178;" horiz-adv-x="954" d="M12 1358q1 32 35 67q15 15 29 26t40 20.5t49 3.5t51.5 -36.5t51.5 -88.5q48 -117 138 -365q10 -28 106 -280q6 -21 14 -5q45 137 54 170q9 34 43.5 175.5t54.5 209.5q21 74 47.5 124t50 71t48 27t41.5 1t30 -16q32 -28 18 -50t-51 -7q-28 12 -58.5 -26t-48 -80.5 t-24.5 -71.5q-6 -20 -84 -318q-19 -70 -31.5 -115.5t-24 -85.5t-17 -59.5t-15 -48t-13 -39.5t-16 -46.5t-20.5 -57.5q-67 -191 -100 -267q-36 -83 -78 -140t-79 -82t-71.5 -30.5t-61 8.5t-42.5 42q-28 48 -4 71q18 16 37 3q8 -7 12 -19q22 -70 81 -40q62 32 126 155 q77 150 143 358q11 40 0.5 92.5t-47.5 147.5q-22 55 -51 143t-33 98q-31 85 -63 166t-64 166q-16 42 -35 62t-37.5 18.5t-36 -18t-32.5 -45.5q-15 -31 -40 -24q-23 7 -22 36zM270 1721q-11 24 4 69q14 38 37.5 50t50.5 -7q43 -32 27 -90q-6 -26 -29 -41t-49 -10 q-30 5 -41 29zM539 723l2 8q-2 -4 -2 -8zM618.5 1721q-10.5 24 4.5 69q14 38 37.5 50t50.5 -7q42 -31 26 -90q-6 -26 -29 -41t-49 -10q-30 5 -40.5 29z" />
<glyph unicode="&#x2c6;" horiz-adv-x="862" d="M207 1209q-5 30 16 79q24 58 105 98q72 36 144 28t128 -62q78 -75 78 -146q0 -25 -14 -31.5t-29.5 3t-20.5 24.5q-25 71 -67 107q-40 34 -75 40t-85 -10q-41 -13 -69.5 -38.5t-47.5 -75.5q-15 -37 -39 -40q-20 -2 -24 24z" />
<glyph unicode="&#x2dc;" horiz-adv-x="796" d="M42 1199.5q-1 13.5 14 31.5t46 31q12 5 47.5 21t51 22.5t43 13t51.5 6.5q30 0 61 -13t61.5 -31.5t45.5 -23.5q34 -13 63.5 -7t98.5 40q50 27 87 34.5t44 -17.5q0 -17 -18 -30t-76 -40q-92 -41 -126.5 -48t-80.5 9q-25 9 -66.5 32.5t-65 32t-69 0t-102.5 -45.5 q-4 -2 -14 -8.5t-13.5 -9t-11.5 -7t-12 -6t-11 -4t-11.5 -3t-11 0t-12.5 2.5q-12 4 -13 17.5z" />
<glyph unicode="&#x2000;" horiz-adv-x="933" />
<glyph unicode="&#x2001;" horiz-adv-x="1866" />
<glyph unicode="&#x2002;" horiz-adv-x="933" />
<glyph unicode="&#x2003;" horiz-adv-x="1866" />
<glyph unicode="&#x2004;" horiz-adv-x="622" />
<glyph unicode="&#x2005;" horiz-adv-x="466" />
<glyph unicode="&#x2006;" horiz-adv-x="311" />
<glyph unicode="&#x2007;" horiz-adv-x="311" />
<glyph unicode="&#x2008;" horiz-adv-x="233" />
<glyph unicode="&#x2009;" horiz-adv-x="373" />
<glyph unicode="&#x200a;" horiz-adv-x="103" />
<glyph unicode="&#x2010;" horiz-adv-x="694" d="M82 545q3 21 28.5 32t55.5 11h108q15 1 39.5 2t47 2t47.5 2q22 1 69 7.5t70 6.5q25 0 45 -8q6 -2 12 -9t8 -16.5t-10 -19.5t-61 -10h-185q-29 0 -81 -8.5t-72 -10.5q-80 -10 -82 -10q-39 0 -39 29z" />
<glyph unicode="&#x2011;" horiz-adv-x="694" d="M82 545q3 21 28.5 32t55.5 11h108q15 1 39.5 2t47 2t47.5 2q22 1 69 7.5t70 6.5q25 0 45 -8q6 -2 12 -9t8 -16.5t-10 -19.5t-61 -10h-185q-29 0 -81 -8.5t-72 -10.5q-80 -10 -82 -10q-39 0 -39 29z" />
<glyph unicode="&#x2012;" horiz-adv-x="694" d="M82 545q3 21 28.5 32t55.5 11h108q15 1 39.5 2t47 2t47.5 2q22 1 69 7.5t70 6.5q25 0 45 -8q6 -2 12 -9t8 -16.5t-10 -19.5t-61 -10h-185q-29 0 -81 -8.5t-72 -10.5q-80 -10 -82 -10q-39 0 -39 29z" />
<glyph unicode="&#x2013;" horiz-adv-x="833" d="M1 581q2 17 13 25q7 9 27 8t35.5 -5.5t51.5 -11t73 -7.5q41 -2 133 -2q23 0 81 2.5t95 1.5q97 -3 130.5 -2t86.5 8q107 18 107 -29q0 -53 -150 -53q-26 0 -49.5 2t-51 5.5t-38.5 4.5q-61 6 -248 -2q-15 0 -66.5 -3t-88 -2.5t-81.5 5.5q-32 4 -47 21t-13 34z" />
<glyph unicode="&#x2014;" horiz-adv-x="1169" d="M1 581q2 17 13 25t27.5 8t34.5 -4.5t53 -10.5t72 -7q164 -8 215 -8q27 0 119.5 6.5t214.5 1.5q221 -7 313 6q106 18 106 -29q0 -53 -149 -53q-113 0 -236 12q-63 6 -401 -8q-209 -5 -322 6q-32 4 -47 21t-13 34z" />
<glyph unicode="&#x2018;" horiz-adv-x="393" d="M107.5 1293.5q10.5 47.5 44.5 88.5q23 27 51.5 39.5t48.5 11t29 -9.5q16 -11 6.5 -31.5t-39.5 -19.5q-67 3 -84 -74q-10 -22 -6 -56t32 -34q13 0 23.5 7.5t13.5 17.5t-1 17t-13 7q-22 0 -26 20q-6 23 17 32q11 4 27 2q31 -6 40.5 -38t-3.5 -67q-10 -26 -35.5 -41.5 t-50.5 -15.5q-27 0 -46.5 20.5t-26.5 47.5q-12 29 -1.5 76.5z" />
<glyph unicode="&#x2019;" horiz-adv-x="393" d="M106 1199q9 21 39 20q67 -3 84 73q10 22 6 56t-32 34q-13 0 -23.5 -7t-13.5 -17q-3 -11 1 -18t13 -7q22 0 27 -21q4 -22 -18 -30q-11 -4 -27 -2q-31 6 -40.5 37.5t3.5 66.5q10 26 35.5 42t50.5 16q27 0 47 -20.5t27 -47.5q12 -29 1.5 -77t-44.5 -89q-23 -27 -51.5 -39.5 t-48.5 -11t-29 9.5q-16 11 -7 32z" />
<glyph unicode="&#x201a;" horiz-adv-x="393" d="M85.5 -263.5q9.5 20.5 39.5 19.5q67 -3 84 74q10 22 5.5 56t-32.5 34q-13 0 -23.5 -7t-13.5 -17t1.5 -17.5t13.5 -7.5q22 0 26 -21q5 -22 -18 -30q-12 -4 -27 -2q-31 6 -40.5 37.5t3.5 66.5q10 26 35.5 42t50.5 16q27 0 47 -20.5t27 -47.5q12 -29 1.5 -77t-44.5 -89 q-23 -27 -51.5 -39.5t-48.5 -11t-29 9.5q-16 11 -6.5 31.5z" />
<glyph unicode="&#x201c;" horiz-adv-x="643" d="M107.5 1293.5q10.5 47.5 44.5 88.5q23 27 51.5 39.5t48.5 11t29 -9.5q16 -11 6.5 -31.5t-39.5 -19.5q-67 3 -84 -74q-10 -22 -6 -56t32 -34q13 0 23.5 7.5t13.5 17.5t-1 17t-13 7q-22 0 -26 20q-6 23 17 32q11 4 27 2q31 -6 40.5 -38t-3.5 -67q-10 -26 -35.5 -41.5 t-50.5 -15.5q-27 0 -46.5 20.5t-26.5 47.5q-12 29 -1.5 76.5zM356.5 1293.5q10.5 47.5 44.5 88.5q23 27 51.5 39.5t48.5 11t29 -9.5q16 -11 7 -31.5t-39 -19.5q-67 3 -84 -74q-10 -22 -6 -56t32 -34q13 0 23.5 7.5t13.5 17.5t-1 17t-13 7q-22 0 -26 20q-6 23 17 32 q11 4 27 2q31 -6 40.5 -38t-3.5 -67q-10 -26 -35.5 -41.5t-50.5 -15.5q-27 0 -47 20.5t-27 47.5q-12 29 -1.5 76.5z" />
<glyph unicode="&#x201d;" horiz-adv-x="643" d="M106 1199q9 21 39 20q67 -3 84 73q10 22 6 56t-32 34q-13 0 -23.5 -7t-13.5 -17q-3 -11 1 -18t13 -7q22 0 27 -21q4 -22 -18 -30q-11 -4 -27 -2q-31 6 -40.5 37.5t3.5 66.5q10 26 35.5 42t50.5 16q27 0 47 -20.5t27 -47.5q12 -29 1.5 -77t-44.5 -89q-23 -27 -51.5 -39.5 t-48.5 -11t-29 9.5q-16 11 -7 32zM355.5 1199q9.5 21 39.5 20q67 -3 84 73q10 22 6 56t-32 34q-13 0 -23.5 -7t-13.5 -17q-3 -11 1 -18t13 -7q22 0 27 -21q4 -22 -18 -30q-11 -4 -27 -2q-31 6 -40.5 37.5t3.5 66.5q10 26 35.5 42t50.5 16q27 0 47 -20.5t27 -47.5 q12 -29 1.5 -77t-44.5 -89q-23 -27 -51.5 -39.5t-49 -11t-29.5 9.5q-16 11 -6.5 32z" />
<glyph unicode="&#x201e;" horiz-adv-x="745" d="M147 -263.5q9 20.5 39 19.5q67 -3 84 74q10 22 6 56t-32 34q-13 0 -23.5 -7t-13.5 -17q-3 -11 1 -18t13 -7q22 0 27 -21q4 -22 -18 -30q-11 -4 -27 -2q-31 6 -40.5 37.5t3.5 66.5q10 26 35.5 42t50.5 16q27 0 47 -20.5t27 -47.5q12 -29 1.5 -77t-44.5 -89 q-23 -27 -51.5 -39.5t-48.5 -11t-29 9.5q-16 11 -7 31.5zM396.5 -263.5q9.5 20.5 39.5 19.5q67 -3 84 74q10 22 6 56t-32 34q-13 0 -23.5 -7t-13.5 -17q-3 -11 1 -18t13 -7q22 0 27 -21q4 -22 -18 -30q-11 -4 -27 -2q-31 6 -40.5 37.5t3.5 66.5q10 26 35.5 42t50.5 16 q27 0 46.5 -20.5t26.5 -47.5q12 -29 1.5 -77t-44.5 -89q-23 -27 -51.5 -39.5t-48.5 -11t-29 9.5q-16 11 -6.5 31.5z" />
<glyph unicode="&#x2022;" horiz-adv-x="446" d="M114 543q-23 64 11 151q37 93 78 117.5t94 -14.5q70 -54 33 -189q-14 -61 -50.5 -103.5t-84.5 -31.5q-58 6 -81 70z" />
<glyph unicode="&#x2026;" horiz-adv-x="993" d="M88.5 -57q-11.5 32 5.5 75q37 90 86 52q36 -26 17 -95q-7 -30 -25.5 -51.5t-42.5 -15.5q-29 3 -40.5 35zM426.5 -57q-11.5 32 5.5 75q37 90 86 52q36 -26 17 -95q-7 -30 -25.5 -51.5t-42.5 -15.5q-29 3 -40.5 35zM774.5 -57q-11.5 32 5.5 75q37 90 86 52q36 -26 17 -95 q-7 -30 -25.5 -51.5t-42.5 -15.5q-29 3 -40.5 35z" />
<glyph unicode="&#x202f;" horiz-adv-x="373" />
<glyph unicode="&#x2039;" horiz-adv-x="583" d="M43 459q-3 11 0 28q5 25 35.5 63.5t78 87t54.5 56.5t76 85.5t112 135.5q34 47 63 44q22 -2 17 -29q-6 -29 -41 -64q-59 -59 -79.5 -80t-55 -59.5t-82.5 -95.5q-18 -21 -40 -46l-33 -37.5t-22 -27t-15.5 -25t-4.5 -20.5q0 -17 20 -41t71 -72t79 -77q41 -42 105.5 -105 t101.5 -104t25 -70q-8 -21 -32 -9q-17 9 -32 34q-7 12 -33.5 40t-67.5 69.5t-54 54.5t-85 80t-113 112t-48 72z" />
<glyph unicode="&#x203a;" horiz-adv-x="583" d="M74 30q5 22 26 46q37 41 101.5 104t105.5 105q28 29 79 77t71 72t20 41q0 10 -4.5 20.5t-15.5 25t-22 27l-33 37.5t-40 46q-48 57 -82.5 95.5t-55 59.5t-79.5 80q-49 49 -41 80q6 21 33 10q24 -11 47 -41q43 -58 111.5 -134.5t77.5 -86.5q7 -8 54.5 -56.5t78 -87 t35.5 -63.5q3 -18 -2 -28q-7 -27 -49 -73.5t-110 -110t-85 -80.5q-14 -15 -54.5 -55t-67.5 -68.5t-34 -40.5q-27 -43 -52 -37q-20 6 -13 36z" />
<glyph unicode="&#x205f;" horiz-adv-x="466" />
<glyph unicode="&#x20ac;" horiz-adv-x="1085" d="M155 818.5q-2 16.5 13 33.5t47 22q8 1 25.5 3.5t25.5 3.5q68 331 275 510q129 111 235 82q77 -20 128.5 -84.5t51.5 -139.5q0 -36 -26 -47q-23 -9 -34 14q-4 8 -5 19q-4 51 -21.5 87t-70.5 69q-89 56 -221 -60q-105 -91 -164 -205q-59 -117 -86 -245h78q118 0 204 8 q123 12 195 12q151 0 149 -51q0 -46 -106 -31q-112 16 -270 12q-90 -4 -140 -12q-13 -2 -51.5 -4t-56.5 -4q-4 -2 -15 -2q-12 -102 -12 -205q0 -49 4 -76q49 -3 99 0q97 7 137 11q151 14 272 14q123 0 139 -37q5 -12 -4 -24.5t-36 -19.5t-66 -1q-62 9 -270 4 q-37 -2 -68.5 -2h-46t-25.5 -2q-14 -2 -52 -4t-56 -4q-4 -2 -15 -2q1 -3 2 -8t2 -7q29 -143 119 -272q66 -92 144 -145q48 -32 98 -46.5t96 -9.5t82.5 38t54.5 91q11 34 34 42.5t37 -10.5t3 -52q-23 -69 -96 -123.5t-141 -54.5q-42 0 -93.5 15.5t-76.5 31.5 q-109 72 -187 177t-110 228q-3 12 -12.5 45t-12.5 50q-70 -10 -90 10q-10 9 -12 24t12.5 29t46.5 16h29v33q0 13 2 54t2 57q0 66 6 121q-66 -14 -86 0q-11 7 -13 23.5z" />
<glyph unicode="&#x2122;" horiz-adv-x="1284" d="M83 1347.5q-1 7.5 6.5 16t23.5 14.5q50 13 112 17q66 4 92 4q54 9 103 6q45 0 59 -25q13 -15 -1 -23q-13 -8 -36 3q-30 17 -137 12v-84q0 -31 -2 -90t-2 -94q0 -13 -2.5 -46t-7 -82.5t-6.5 -86.5q-18 -205 32 -238q19 -12 15 -24.5t-19 -12.5q-48 2 -61 134q-6 76 0 143 l18 229q0 23 4.5 74t4.5 82q0 38 -9 94q-2 0 -41 -8q-12 -4 -55 -4q-16 -2 -36 -10l-27.5 -11t-20.5 0q-6 3 -7 10.5zM524 631q0 17 23 20q56 14 78 156q13 73 32 297q2 37 11 96.5t12 87.5q5 45 13 74t15 38t13 9h2q32 -4 45 -121q3 -32 12.5 -90.5t12.5 -93.5 q1 -7 3.5 -50t5.5 -77t9.5 -84.5t15.5 -89.5q0 -1 5.5 -40t14 -70t19.5 -31q5 0 8.5 5t6.5 17.5t5.5 26.5t7 41t9.5 51q8 39 14.5 89.5t9 84.5t5.5 77.5t4 49.5q3 38 13.5 97.5t13.5 86.5q5 45 13 74t15.5 38t14.5 9q34 0 41 -121q3 -26 13 -86t13 -98q18 -213 33 -297 q11 -71 28 -106.5t46 -41.5q14 -4 19.5 -12.5t-1 -16t-22.5 -7.5q-36 -1 -62 42t-35 93q-6 29 -12 85.5t-12 86.5q-4 25 -17 190q0 1 -22 168q-2 9 -3.5 21.5t-2.5 15.5q-2 15 -7 1l-6 -38q-3 -21 -12.5 -80.5t-11.5 -87.5q-11 -141 -19 -190q-3 -19 -10.5 -82.5 t-15.5 -97.5q-1 -7 -4 -23t-5 -26t-6 -25t-8 -24.5t-9.5 -19t-13 -14t-16.5 -4.5q-14 0 -24.5 9t-17 25.5t-10 31.5t-7.5 37.5t-6 32.5q-14 69 -25 180q-11 66 -18 190q-1 26 -11.5 83t-13.5 85q-8 43 -13 43q-1 0 -3 -6v-8q-2 -8 -2 -29q-3 -24 -13 -82.5t-12 -85.5 q-8 -133 -14 -190q-2 -10 -12 -77.5t-17 -102.5q-7 -44 -36 -90t-62 -46q-25 0 -25 17z" />
<glyph unicode="&#xe000;" horiz-adv-x="1054" d="M0 0v1055h1055v-1055h-1055z" />
<glyph unicode="&#xfb01;" horiz-adv-x="960" d="M82 715q2 36 90 41q25 2 57.5 3.5t40.5 2.5h6q-4 89 -6 133q-2 39 -2.5 67.5t2.5 58t5 43t9.5 53.5t10.5 59q20 110 106 192q74 70 207 70q81 0 139 -28.5t80 -76.5q21 -45 0 -92t-67 -82q-34 -26 -60 -5q-22 17 -8 43q9 16 33 28q36 17 48.5 40t6.5 42t-24 34 q-49 41 -152 41q-46 0 -86 -12q-57 -16 -100 -70q-57 -78 -72.5 -170t-11.5 -221q1 -25 2 -72t2 -69q11 2 33 5t32 5q9 2 61 13t77 12q31 4 45 0q13 -2 20 -16t-6 -29q-11 -11 -61 -15q-77 -4 -103 -6q-54 -3 -80 -8q-2 -1 -8.5 -2t-9.5 -2q4 -125 4 -289q0 -73 -20 -241 q-3 -32 -14 -70t-28.5 -77.5t-46.5 -64.5t-63 -22q-30 2 -41 19.5t1.5 34.5t39.5 18q117 5 117 461q0 17 -6 221q-13 -2 -39.5 -6.5t-38.5 -6.5q-4 0 -33.5 -6.5t-46.5 -7.5q-41 -3 -41 27zM576 -5q10 17 36 28q26 12 42 50t23.5 103.5t9.5 114.5t3 129q1 97 -0.5 150 t-6 121.5t-7.5 127.5q-2 53 4 96t16 68t23.5 42t24 23t18.5 7q11 0 18.5 -7t7 -23t-13.5 -38q-17 -29 -24 -45.5t-12.5 -47.5t-4.5 -75q0 -24 7.5 -149.5t2.5 -247.5q-1 -26 -1 -89.5t-1 -115.5q-1 -35 -7 -75t-19 -84.5t-38 -73.5t-59 -29q-30 -1 -41 11t-1 29z" />
<glyph unicode="&#xfb02;" horiz-adv-x="1067" d="M82 715q2 36 90 41q25 2 57.5 3.5t40.5 2.5h6q-4 89 -6 133q-2 39 -2.5 67.5t2.5 58t5 43t9.5 53.5t10.5 59q20 110 106 192q32 30 88.5 51.5t124.5 20.5q76 -2 120.5 -20t70.5 -66q11 -19 16 -33q0 -4 2 -6q11 -35 13 -66q3 -65 3.5 -182t2.5 -172q1 -30 -6.5 -138 t-12.5 -220t-3 -228t25 -194t68 -86q27 -5 38.5 -22t0.5 -33t-41 -17q-34 -1 -60.5 26.5t-41.5 73t-23 83.5t-12 75q-3 55 -9 118.5t-7 86.5l22 508q-1 39 3 127.5t3 136.5q-1 7 -1 22.5t-1 22.5q0 21 -2 29q-7 53 -39 88q-25 25 -69.5 32.5t-85 2t-70.5 -18.5 q-64 -26 -100 -70q-57 -78 -72.5 -170t-11.5 -221q1 -25 2 -72t2 -69q11 2 33 5t32 5q9 2 61 13t77 12q31 4 45 0q13 -2 20 -16t-6 -29q-11 -11 -61 -15q-77 -4 -103 -6q-54 -3 -80 -8q-2 -1 -8.5 -2t-9.5 -2q4 -125 4 -289q0 -73 -20 -241q-3 -32 -14 -70t-28.5 -77.5 t-46.5 -64.5t-63 -22q-30 2 -41 19.5t1.5 34.5t39.5 18q117 5 117 461q0 17 -6 221q-13 -2 -39.5 -6.5t-38.5 -6.5q-4 0 -33.5 -6.5t-46.5 -7.5q-41 -3 -41 27z" />
</font>
</defs>
</svg>
